<?xml version="1.0" encoding="UTF-8" standalone="no"?>
<svg
   xmlns:xhtml="http://www.w3.org/1999/xhtml"
   xmlns:dc="http://purl.org/dc/elements/1.1/"
   xmlns:cc="http://creativecommons.org/ns#"
   xmlns:rdf="http://www.w3.org/1999/02/22-rdf-syntax-ns#"
   xmlns:svg="http://www.w3.org/2000/svg"
   xmlns="http://www.w3.org/2000/svg"
   id="svg31"
   version="1.1"
   fill="none"
   viewBox="0 0 539 122"
   height="122"
   width="539">
  <metadata
     id="metadata37">
    <rdf:RDF>
      <cc:Work
         rdf:about="">
        <dc:format>image/svg+xml</dc:format>
        <dc:type
           rdf:resource="http://purl.org/dc/dcmitype/StillImage" />
        <dc:title></dc:title>
      </cc:Work>
    </rdf:RDF>
  </metadata>
  <defs
     id="defs35" />
  <style
     type="text/css"
     class="stylish"
     id="stylish-1">.collectionChoiceSection {
    height: 600px;
</style>
  <path
     id="path3"
     fill="white"
     d="M67.5029 0L32.3873 10.8429L0 69.2841H28.7117L67.5029 0Z" />
  <path
     id="path5"
     fill="white"
     d="M0.282715 80.3389L22.7036 122H51.9242L28.1179 80.3389H0.282715Z" />
  <path
     id="path7"
     fill="white"
     d="M108.288 75.3349L90.4754 42.3115C79.7739 61.2265 60.5621 95.0981 54.1016 106.04L63.0218 122H81.8378L108.288 75.3349Z" />
  <path
     id="path9"
     fill="white"
     d="M48.7717 96.5113L84.9051 31.9771L73.1575 10.1924C63.9262 26.492 44.8841 60.1092 36.501 74.5428L48.7717 96.5113Z" />
  <path
     id="path11"
     fill="white"
     d="M149.666 58.2998V71.7438H173.218V81.1871H149.666V99.7204H137.89V48.8564H176.342V58.2998H149.666Z" />
  <path
     id="path13"
     fill="white"
     d="M177.274 80.1834C177.274 68.4075 186.364 60.0527 198.791 60.0527C211.217 60.0527 220.236 68.4075 220.236 80.1834C220.236 91.9593 211.217 100.314 198.791 100.314C186.364 100.314 177.274 91.9593 177.274 80.1834ZM208.743 80.1834C208.743 73.4261 204.459 69.3547 198.791 69.3547C193.122 69.3547 188.753 73.4261 188.753 80.1834C188.753 86.9408 193.122 91.0122 198.791 91.0122C204.459 91.0122 208.743 86.9408 208.743 80.1834Z" />
  <path
     id="path15"
     fill="white"
     d="M249.725 60.0527V70.5139C248.778 70.4432 248.057 70.3726 247.181 70.3726C240.932 70.3726 236.79 73.7936 236.79 81.272V99.7346H225.453V60.6323H236.281V65.7923C239.038 62.0036 243.689 60.0527 249.725 60.0527Z" />
  <path
     id="path17"
     fill="white"
     d="M295.443 60.6323V93.2034C295.443 107.736 287.598 114.423 273.489 114.423C266.081 114.423 258.886 112.599 254.306 109.051L258.815 100.908C262.833 103.813 267.669 105.367 272.627 105.347C280.628 105.347 284.106 101.714 284.106 94.6594V92.9913C282.51 94.6332 280.583 95.9162 278.452 96.7547C276.322 97.5933 274.037 97.9681 271.75 97.8544C260.922 97.8544 252.199 90.3619 252.199 78.9535C252.199 67.5452 260.922 60.0527 271.75 60.0527C277.207 60.0527 281.703 61.8764 284.685 65.6509V60.6323H295.443ZM284.247 78.9394C284.247 73.1999 279.964 69.3406 273.998 69.3406C268.032 69.3406 263.678 73.1999 263.678 78.9394C263.678 84.6789 268.046 88.5382 273.998 88.5382C279.964 88.5382 284.247 84.6931 284.247 78.9394Z" />
  <path
     id="path19"
     fill="white"
     d="M341.529 83.3783H311.941C313.03 88.2414 317.172 91.2242 323.137 91.2242C324.944 91.2981 326.746 91.0013 328.433 90.3521C330.121 89.703 331.657 88.7152 332.948 87.4497L338.985 93.995C335.352 98.1371 329.895 100.314 322.855 100.314C309.34 100.314 300.533 91.8038 300.533 80.1834C300.533 68.4782 309.467 60.0527 321.399 60.0527C332.878 60.0527 341.755 67.7573 341.755 80.3389C341.741 81.2013 341.6 82.4312 341.529 83.3783ZM311.8 76.7623H331.068C330.683 74.4855 329.505 72.4185 327.741 70.9279C325.978 69.4373 323.743 68.6195 321.434 68.6195C319.125 68.6195 316.89 69.4373 315.127 70.9279C313.363 72.4185 312.184 74.4855 311.8 76.7623Z" />
  <path
     id="path21"
     fill="white"
     d="M379.373 99.7345L369.562 85.5554H358.733V99.7345H346.958V48.8564H368.983C382.582 48.8564 391.078 55.9107 391.078 67.319C391.218 70.7507 390.285 74.1406 388.411 77.0183C386.536 79.8961 383.812 82.1189 380.617 83.3783L392.025 99.7345H379.373ZM368.332 58.4411H358.733V76.1827H368.332C375.528 76.1827 379.161 72.8465 379.161 67.319C379.161 61.7209 375.528 58.4411 368.332 58.4411Z" />
  <path
     id="path23"
     fill="white"
     d="M394.542 80.1834C394.542 68.4075 403.632 60.0527 416.058 60.0527C428.484 60.0527 437.504 68.4075 437.504 80.1834C437.504 91.9593 428.484 100.314 416.058 100.314C403.618 100.314 394.542 91.9593 394.542 80.1834ZM426.01 80.1834C426.01 73.4261 421.727 69.3547 416.058 69.3547C410.389 69.3547 406.021 73.4261 406.021 80.1834C406.021 86.9408 410.389 91.0122 416.058 91.0122C421.727 91.0122 426.01 86.9408 426.01 80.1834Z" />
  <path
     id="path25"
     fill="white"
     d="M442.452 80.1834C442.452 68.4075 451.542 60.0527 464.265 60.0527C472.478 60.0527 478.953 63.6152 481.78 70.005L472.987 74.7267C472.17 73.099 470.913 71.7329 469.358 70.7834C467.804 69.8339 466.015 69.3389 464.194 69.3547C458.454 69.3547 453.945 73.3554 453.945 80.1834C453.945 87.0115 458.454 91.0122 464.194 91.0122C466.018 91.043 467.814 90.5543 469.371 89.6031C470.927 88.6519 472.182 87.2775 472.987 85.6402L481.78 90.4326C478.938 96.681 472.478 100.314 464.265 100.314C451.542 100.314 442.452 91.9593 442.452 80.1834Z" />
  <path
     id="path27"
     fill="white"
     d="M504.271 84.396L498.814 89.768V99.7202H487.477V45.8027H498.814V76.3381L515.383 60.6322H528.897L512.612 77.2004L530.353 99.7344H516.613L504.271 84.396Z" />
  <path
     id="path29"
     fill="white"
     d="M538.836 65.2692C538.859 66.1415 538.621 67.0007 538.152 67.7369C537.684 68.4731 537.006 69.0528 536.207 69.4018C535.407 69.7508 534.521 69.8533 533.663 69.696C532.805 69.5388 532.013 69.129 531.389 68.5191C530.765 67.9092 530.337 67.127 530.16 66.2726C529.983 65.4181 530.066 64.5304 530.396 63.7229C530.727 62.9154 531.291 62.2249 532.016 61.7398C532.741 61.2547 533.595 60.9971 534.467 60.9999C535.036 60.9881 535.601 61.0898 536.13 61.2989C536.659 61.508 537.141 61.8205 537.547 62.2179C537.954 62.6154 538.278 63.09 538.499 63.6139C538.72 64.1378 538.835 64.7006 538.836 65.2692ZM531.159 65.2692C531.183 65.9141 531.395 66.538 531.77 67.0632C532.145 67.5884 532.666 67.9917 533.268 68.2229C533.871 68.4541 534.528 68.5029 535.158 68.3634C535.788 68.2239 536.363 67.9021 536.812 67.4382C537.26 66.9742 537.562 66.3886 537.681 65.7542C537.799 65.1198 537.728 64.4646 537.476 63.8703C537.225 63.276 536.804 62.7687 536.267 62.4117C535.729 62.0546 535.099 61.8636 534.453 61.8623C534.011 61.8632 533.574 61.9529 533.168 62.1258C532.761 62.2988 532.393 62.5516 532.086 62.8693C531.779 63.187 531.539 63.5631 531.38 63.9754C531.22 64.3876 531.146 64.8276 531.159 65.2692ZM533.789 67.5028H532.799V63.2335C533.34 63.136 533.89 63.0934 534.439 63.1063C534.954 63.0632 535.47 63.1713 535.924 63.4173C536.058 63.5316 536.165 63.675 536.236 63.8366C536.307 63.9983 536.34 64.1739 536.334 64.3504C536.314 64.5901 536.216 64.8167 536.055 64.9955C535.894 65.1742 535.679 65.2952 535.443 65.3399V65.3965C535.656 65.4834 535.84 65.6268 535.977 65.8112C536.114 65.9956 536.198 66.2139 536.22 66.4426C536.263 66.8111 536.368 67.1697 536.531 67.5028H535.471C535.306 67.1731 535.192 66.8204 535.132 66.4567C535.047 65.9902 534.793 65.7782 534.241 65.7782H533.775V67.5028H533.789ZM533.817 65.0855H534.284C534.835 65.0855 535.273 64.9017 535.273 64.4634C535.273 64.0676 534.991 63.8132 534.369 63.8132C534.183 63.81 533.998 63.829 533.817 63.8697V65.0855Z" />
  <xhtml:iframe
     style="height: 0px !important;"
     id="cmdline_iframe"
     src="horizontal-logo-white.a44297fa_files/commandline.html"
     class="cleanslate hidden" />
</svg>
