<svg width="72" height="72" viewBox="0 0 72 72" fill="none" xmlns="http://www.w3.org/2000/svg">
<path d="M71.9093 54.7153V69.8135C71.9093 71.5818 71.3652 71.9445 69.6876 71.6724C58.4433 69.9949 47.0629 68.4533 35.7279 66.8664C33.6876 66.5944 32.9622 65.8689 32.9622 63.6473C33.1435 55.6221 33.0528 47.5515 32.9622 39.4357C32.9622 37.6674 33.5062 37.1233 35.2745 37.1233C46.8816 37.214 58.3072 37.214 69.6876 37.214C71.5465 37.214 71.9999 37.9394 71.9999 39.617C71.8186 44.6951 71.9093 49.6825 71.9093 54.7153Z" fill="#4CA9EC"/>
<path d="M52.6398 34.3122C46.927 34.3122 41.2141 34.2216 35.5013 34.3122C33.733 34.3122 33.0076 33.9495 33.0076 31.9092C33.0982 23.7027 33.0982 15.6321 33.0076 7.51627C33.0076 5.92937 33.5516 5.38529 35.0479 5.11325C46.7456 3.43567 58.4433 1.80343 70.1411 0.0351656C72.1814 -0.236875 71.8186 1.12333 71.8186 2.25683C71.8186 9.51124 71.9093 16.9017 71.8186 24.1561C71.8186 26.8311 71.728 29.5062 71.8186 32.1813C71.9093 33.8588 71.2746 34.3122 69.6877 34.3122C64.0655 34.2216 58.3527 34.3122 52.6398 34.3122V34.3122Z" fill="#4CA9EC"/>
<path d="M14.8262 37.35H27.6121C28.9723 37.35 29.5617 37.8034 29.5617 39.209V64.4181C29.5617 65.8689 28.927 66.005 27.6121 65.8689C19.1335 64.5994 10.6549 63.3752 2.22166 62.1964C0.544081 61.9243 0 61.3803 0 59.612C0.0906801 52.9017 0.0906801 46.1914 0 39.345C0 37.6674 0.4534 37.214 2.13098 37.214C6.43829 37.35 10.5642 37.35 14.8262 37.35V37.35Z" fill="#4CA9EC"/>
<path d="M14.8263 34.3122H2.2218C0.634901 34.3122 0.0908203 33.7682 0.0908203 32.0906C0.1815 25.4709 0.1815 18.8513 0.0908203 12.1863C0.0908203 10.5994 0.544221 10.0553 2.2218 9.78328C10.7004 8.69512 19.179 7.47094 27.6122 6.11074C29.5619 5.8387 29.7432 6.47346 29.7432 8.06036V32.1813C29.7432 33.9495 29.0178 34.2216 27.4309 34.2216C23.2142 34.2216 18.9523 34.3122 14.8263 34.3122V34.3122Z" fill="#4CA9EC"/>
</svg>
