<svg width="72" height="71" viewBox="0 0 72 71" fill="none" xmlns="http://www.w3.org/2000/svg">
<path d="M72 0H0V70.1985H72V0Z" fill="url(#paint0_radial)"/>
<path fill-rule="evenodd" clip-rule="evenodd" d="M36 25.9717C40.6239 25.9717 44.407 29.6948 44.407 34.2586C44.407 38.8224 40.6539 42.5455 36.03 42.5455C32.9375 42.5455 30.2352 40.8941 28.794 38.4321L29.9049 37.7715C29.2744 36.6906 28.9141 35.4896 28.9141 34.2586C28.9141 30.4154 32.0968 27.2627 36.03 27.2627V25.9717H36ZM36.03 43.3562C41.1343 43.3562 45.2477 39.2728 45.2477 34.2285C45.2477 29.1843 41.1043 25.1009 36 25.1009V23.8099C30.2052 23.8099 25.4612 28.4938 25.4612 34.2285C25.4612 36.0601 25.9717 37.8916 26.9325 39.4829L28.0434 38.8224C29.6347 41.5547 32.6372 43.3562 36.03 43.3562ZM49.7215 42.1251C46.9592 46.749 41.8549 49.8716 36.03 49.8716C27.2928 49.8716 20.1468 42.8457 20.1468 34.2285C20.1468 25.6114 27.2627 18.5855 36 18.5855V19.8766C44.0467 19.8766 50.5622 26.332 50.5622 34.2285C50.5622 36.7807 49.9016 39.2728 48.6105 41.4646L49.7215 42.1251ZM36.03 50.7423C42.1852 50.7423 47.5597 47.4396 50.4721 42.5755L51.583 43.2361C53.2044 40.5338 54.015 37.4112 54.015 34.2586C54.015 24.4404 45.9383 16.4838 36 16.4838V17.7748C26.7823 17.7748 19.2761 25.191 19.2761 34.2886C19.2761 43.3261 26.8124 50.7423 36.03 50.7423ZM36.03 11.5597C48.7006 11.5597 59.0292 21.7381 59.0292 34.2586C59.0292 38.4321 57.8883 42.3353 55.8766 45.6981L54.7657 45.0376C50.8924 51.583 43.6864 55.6664 36 55.6664C28.3136 55.6664 21.1376 51.583 17.2344 45.0376L16.1235 45.6981C14.1718 42.3053 13.0309 38.402 13.0309 34.2285C13.0309 21.7381 23.3295 11.5597 36.03 11.5597ZM56.6272 46.1185C58.6989 42.6356 59.8999 38.5822 59.8999 34.2285C59.8999 21.2577 49.181 10.6889 36.03 10.6889C22.8791 10.6889 12.1602 21.2577 12.1602 34.2285C12.1602 38.5522 13.3612 42.6055 15.4329 46.1185L14.322 46.779C18.8257 54.3753 27.1426 59.0893 36.03 59.0893C44.9175 59.0893 53.2344 54.3753 57.7381 46.779L56.6272 46.1185Z" fill="url(#paint1_linear)"/>
<defs>
<radialGradient id="paint0_radial" cx="0" cy="0" r="1" gradientUnits="userSpaceOnUse" gradientTransform="translate(28.0956 -5.3901) scale(115.111)">
<stop stop-color="#EC202B"/>
<stop offset="0.1463" stop-color="#E2202A"/>
<stop offset="0.3994" stop-color="#C51E26"/>
<stop offset="0.7265" stop-color="#981C20"/>
<stop offset="1" stop-color="#6D1A1B"/>
</radialGradient>
<linearGradient id="paint1_linear" x1="12.1607" y1="34.8795" x2="59.8835" y2="34.8795" gradientUnits="userSpaceOnUse">
<stop offset="0.14" stop-color="white"/>
<stop offset="1" stop-color="#EBEDEB"/>
</linearGradient>
</defs>
</svg>
