<svg width="220" height="220" viewBox="0 0 220 220" fill="none" xmlns="http://www.w3.org/2000/svg">
<path d="M192.244 151.26V148.914H193.958C195.099 148.914 195.407 149.268 195.407 149.954C195.407 150.656 195.099 151.222 193.755 151.26H192.244V151.26ZM193.446 152.691C193.939 152.735 194.413 152.691 194.771 153.067C195.18 153.502 195.18 154.231 195.283 155.02C195.348 155.559 195.491 156.141 195.594 156.659H197.414C197.103 155.831 197 154.874 196.875 154.003C196.729 153.007 196.588 152.446 195.326 152.196V152.152C196.548 151.902 197.187 151.075 197.187 150.014C197.187 147.94 195.448 147.483 193.776 147.483H190.818V156.659H192.244V152.691H193.446V152.691ZM193.899 160C198.203 160 201.651 156.517 201.651 152.174C201.651 147.875 198.203 144.387 193.899 144.387C189.578 144.387 186.105 147.875 186.105 152.174C186.105 156.517 189.578 160 193.899 160ZM193.899 158.634C190.345 158.634 187.474 155.744 187.474 152.174C187.474 148.648 190.345 145.758 193.899 145.758C197.436 145.758 200.291 148.648 200.291 152.174C200.291 155.744 197.436 158.634 193.899 158.634Z" fill="#EE2722"/>
<path d="M180.759 81.1907H168.275V93.7185H180.759C183.722 93.7185 186.106 96.143 186.106 99.1021C186.106 102.082 183.722 104.476 180.759 104.476H168.275V117.015H180.759C190.611 117.015 198.591 108.991 198.591 99.1021C198.591 89.211 190.611 81.1907 180.759 81.1907ZM109.612 147.483C124.556 147.483 137.436 138.691 143.452 125.967H159.366V147.483H168.275V125.967H180.759C195.541 125.967 207.516 113.938 207.516 99.1021C207.516 84.2629 195.541 72.2288 180.759 72.2288H159.366V104.476H146.67C144.08 86.2519 128.476 72.2288 109.612 72.2288H65.7091L22.0381 147.483H32.456L44.9377 125.967H89.8167V147.483H109.612ZM220 99.1021C220 120.865 202.429 138.506 180.759 138.506V160H146.887V143.233C137.723 153.524 124.431 160 109.612 160H77.3326V138.506H52.1036L39.6219 160H0L58.2402 59.69H109.612C124.431 59.69 137.723 66.184 146.887 76.4764V59.69H180.759C202.429 59.69 220 77.3446 220 99.1021ZM77.3326 81.1907V104.476H57.4195L50.1464 117.015H89.8167V81.1907H77.3326V81.1907ZM138.151 109.845C138.151 125.676 125.369 138.506 109.612 138.506H98.7309V125.967H109.612C118.483 125.967 125.672 118.759 125.672 109.845C125.672 100.95 118.483 93.7185 109.612 93.7185H98.7309V81.1907H109.612C125.369 81.1907 138.151 94.0206 138.151 109.845Z" fill="#EE2722"/>
<path d="M180.759 81.1907H168.275V93.7185H180.759C183.722 93.7185 186.106 96.143 186.106 99.1021C186.106 102.082 183.722 104.476 180.759 104.476H168.275V117.015H180.759C190.611 117.015 198.591 108.991 198.591 99.1021C198.591 89.211 190.611 81.1907 180.759 81.1907ZM109.612 147.483C124.556 147.483 137.436 138.691 143.452 125.967H159.366V147.483H168.275V125.967H180.759C195.541 125.967 207.516 113.938 207.516 99.1021C207.516 84.2629 195.541 72.2288 180.759 72.2288H159.366V104.476H146.67C144.08 86.2519 128.476 72.2288 109.612 72.2288H65.7091L22.0381 147.483H32.456L44.9377 125.967H89.8167V147.483H109.612ZM220 99.1021C220 120.865 202.429 138.506 180.759 138.506V160H146.887V143.233C137.723 153.524 124.431 160 109.612 160H77.3326V138.506H52.1036L39.6219 160H0L58.2402 59.69H109.612C124.431 59.69 137.723 66.184 146.887 76.4764V59.69H180.759C202.429 59.69 220 77.3446 220 99.1021ZM77.3326 81.1907V104.476H57.4195L50.1464 117.015H89.8167V81.1907H77.3326V81.1907ZM138.151 109.845C138.151 125.676 125.369 138.506 109.612 138.506H98.7309V125.967H109.612C118.483 125.967 125.672 118.759 125.672 109.845C125.672 100.95 118.483 93.7185 109.612 93.7185H98.7309V81.1907H109.612C125.369 81.1907 138.151 94.0206 138.151 109.845Z" fill="#EE2722"/>
<path d="M180.759 81.1907H168.275V93.7185H180.759C183.722 93.7185 186.106 96.143 186.106 99.1021C186.106 102.082 183.722 104.476 180.759 104.476H168.275V117.015H180.759C190.611 117.015 198.591 108.991 198.591 99.1021C198.591 89.211 190.611 81.1907 180.759 81.1907ZM109.612 147.483C124.556 147.483 137.436 138.691 143.452 125.967H159.366V147.483H168.275V125.967H180.759C195.541 125.967 207.516 113.938 207.516 99.1021C207.516 84.2629 195.541 72.2288 180.759 72.2288H159.366V104.476H146.67C144.08 86.2519 128.476 72.2288 109.612 72.2288H65.7091L22.0381 147.483H32.456L44.9377 125.967H89.8167V147.483H109.612ZM220 99.1021C220 120.865 202.429 138.506 180.759 138.506V160H146.887V143.233C137.723 153.524 124.431 160 109.612 160H77.3326V138.506H52.1036L39.6219 160H0L58.2402 59.69H109.612C124.431 59.69 137.723 66.184 146.887 76.4764V59.69H180.759C202.429 59.69 220 77.3446 220 99.1021ZM77.3326 81.1907V104.476H57.4195L50.1464 117.015H89.8167V81.1907H77.3326V81.1907ZM138.151 109.845C138.151 125.676 125.369 138.506 109.612 138.506H98.7309V125.967H109.612C118.483 125.967 125.672 118.759 125.672 109.845C125.672 100.95 118.483 93.7185 109.612 93.7185H98.7309V81.1907H109.612C125.369 81.1907 138.151 94.0206 138.151 109.845Z" fill="#EE2722"/>
</svg>