<svg width="448" height="512" viewBox="0 0 448 512" fill="none" xmlns="http://www.w3.org/2000/svg">
<path d="M257.2 162.7C208.5 164.5 87.7 178.2 87.7 280.2C87.7 389.7 226 394.2 271.2 323.4C277.7 333.6 306.6 360.9 316.5 370.2L373.3 314.2C373.3 314.2 341 288.9 341 261.4V114.3C341 89 316.5 32 228.7 32C140.7 32 94 87 94 136.3L167.5 143.1C183.8 93.6 221.7 93.6 221.7 93.6C262.4 93.5 257.2 123.4 257.2 162.7ZM257.2 249.5C257.2 329.5 173 317.5 173 266.7C173 219.5 223.5 210 257.2 208.9V249.5Z" fill="#232F3E"/>
<path d="M393.2 413C385.5 423 323.2 480 218.7 480C114.2 480 34.1999 408.5 9.69989 379C2.89989 371.3 10.6999 367.7 15.1999 370.7C88.4999 415.2 203 488.5 387.7 401C395.2 397.3 401 403 393.2 413ZM433 415.2C426.5 431 417 442 411.8 446.2C406.3 450.7 402.3 448.9 405.3 442.4C408.3 435.9 424.6 395.9 418 387.4C411.5 379.1 381 383.1 370 384.2C359.2 385.2 357 386.2 356 383.9C353.7 378.2 377.7 368.4 393.5 366.4C409.2 364.6 434.5 365.6 439.5 372.1C443.2 377.2 439.5 399.2 433 415.2Z" fill="#F8991C"/>
</svg>
