<svg width="385" height="385" viewBox="0 0 385 385" fill="none" xmlns="http://www.w3.org/2000/svg">
<path fill-rule="evenodd" clip-rule="evenodd" d="M156.804 111.08L253.892 208.168L368.252 192.872L176.257 0.871574L156.804 111.08" fill="#D6468C"/>
<path fill-rule="evenodd" clip-rule="evenodd" d="M156.804 274.664L238.602 192.872L368.258 192.872L176.257 384.872L156.804 274.664" fill="#1BB4E7"/>
<path fill-rule="evenodd" clip-rule="evenodd" d="M176.252 159.129L176.252 0.871582L18.0003 159.129L176.252 159.129" fill="url(#paint0_linear)"/>
<path fill-rule="evenodd" clip-rule="evenodd" d="M176.251 130.528L183.492 137.762L215.53 40.1391L176.251 0.87158L176.251 130.528" fill="#961584"/>
<path fill-rule="evenodd" clip-rule="evenodd" d="M176.252 226.62L176.252 384.871L18.0004 226.62L176.252 226.62Z" fill="url(#paint1_linear)"/>
<path fill-rule="evenodd" clip-rule="evenodd" d="M176.251 255.221L183.492 247.986L215.53 345.598L176.251 384.871L176.251 255.221" fill="#297DE2"/>
<defs>
<linearGradient id="paint0_linear" x1="63.7959" y1="273.364" x2="287.42" y2="-74.5161" gradientUnits="userSpaceOnUse">
<stop offset="0.012" stop-color="#E0B386"/>
<stop offset="0.519" stop-color="#DA498C"/>
<stop offset="1" stop-color="#961484"/>
</linearGradient>
<linearGradient id="paint1_linear" x1="143.432" y1="248.607" x2="-112.418" y2="366.361" gradientUnits="userSpaceOnUse">
<stop stop-color="#29D3DA"/>
<stop offset="0.519" stop-color="#0077FF"/>
<stop offset="0.999" stop-color="#064093"/>
<stop offset="1" stop-color="#084698"/>
</linearGradient>
</defs>
</svg>
