<svg id="Layer_5" height="512" viewBox="0 0 16 16" width="512" xmlns="http://www.w3.org/2000/svg" data-name="Layer 5"><path d="m2.14 15.72a1.4569 1.4569 0 0 0 1.34.2l4.37-1.49a.39.39 0 0 1 .3 0l4.37 1.49a1.6094 1.6094 0 0 0 .48.08 1.4268 1.4268 0 0 0 .86-.28 1.5261 1.5261 0 0 0 .64-1.25v-12.94a1.511 1.511 0 0 0 -1.5-1.53h-10a1.511 1.511 0 0 0 -1.5 1.53v12.94a1.5261 1.5261 0 0 0 .64 1.25zm2.15-9.42a1.0087 1.0087 0 0 1 .81-.69l1.38-.2.62-1.25a1.0414 1.0414 0 0 1 1.8 0l.62 1.25 1.38.2a1.0087 1.0087 0 0 1 .81.69.9936.9936 0 0 1 -.25 1.02l-1.01.98.24 1.38a.9908.9908 0 0 1 -.4.98 1.0294 1.0294 0 0 1 -.58.19.9953.9953 0 0 1 -.47-.12l-1.24-.65-1.24.65a.9961.9961 0 0 1 -1.45-1.05l.24-1.38-1.01-.98a.9936.9936 0 0 1 -.25-1.02zm1.95 1.28-1-.98 1.39-.2a1.0109 1.0109 0 0 0 .75-.55l.62-1.25.62 1.26a1.0232 1.0232 0 0 0 .75.54l1.39.2-1 .98a.9829.9829 0 0 0 -.29.89l.24 1.38-1.25-.66a1.0388 1.0388 0 0 0 -.46-.11.9291.9291 0 0 0 -.46.12l-1.25.65.24-1.39a.9727.9727 0 0 0 -.29-.88z" fill="#ffc107"/></svg>