<svg width="45" height="54" viewBox="0 0 45 54" fill="none" xmlns="http://www.w3.org/2000/svg">
<path d="M20.584 53.9999H34.2759L44.296 36.0475L34.2759 18.0933H20.5848L30.6049 36.0475L20.584 53.9999Z" fill="url(#paint0_linear)"/>
<path d="M30.6049 36.0477L20.584 54.0001H34.2759L44.296 36.0477" fill="url(#paint1_linear)"/>
<path d="M20.584 54.0001H34.2759L44.296 36.0477" fill="url(#paint2_linear)"/>
<path d="M10.7427 35.9074L24.4355 35.9066L14.4138 17.9542L24.4355 0H10.7427L0.722656 17.9542L10.7427 35.9074Z" fill="url(#paint3_linear)"/>
<path d="M0.722656 17.954L10.7427 35.9073L24.4355 35.9065L14.4138 17.954" fill="url(#paint4_linear)"/>
<path d="M0.722656 17.954L10.7427 35.9073L24.4355 35.9065" fill="url(#paint5_linear)"/>
<defs>
<linearGradient id="paint0_linear" x1="10.0187" y1="17.5308" x2="26.0099" y2="38.1947" gradientUnits="userSpaceOnUse">
<stop offset="0.012" stop-color="#E0B386"/>
<stop offset="0.519" stop-color="#DA498C"/>
<stop offset="1" stop-color="#961484"/>
</linearGradient>
<linearGradient id="paint1_linear" x1="23.0354" y1="54.8646" x2="46.1452" y2="15.4197" gradientUnits="userSpaceOnUse">
<stop offset="0.012" stop-color="#E0B386"/>
<stop offset="0.519" stop-color="#DA498C"/>
<stop offset="1" stop-color="#961484"/>
</linearGradient>
<linearGradient id="paint2_linear" x1="30.0776" y1="51.0989" x2="25.3831" y2="34.9816" gradientUnits="userSpaceOnUse">
<stop offset="0.012" stop-color="#E0B386"/>
<stop offset="0.519" stop-color="#DA498C"/>
<stop offset="1" stop-color="#961484"/>
</linearGradient>
<linearGradient id="paint3_linear" x1="23.0904" y1="-10.8664" x2="16.3327" y2="25.8939" gradientUnits="userSpaceOnUse">
<stop stop-color="#29D3DA"/>
<stop offset="0.519" stop-color="#0077FF"/>
<stop offset="0.999" stop-color="#064093"/>
<stop offset="1" stop-color="#084698"/>
</linearGradient>
<linearGradient id="paint4_linear" x1="18.9606" y1="32.5365" x2="3.84767" y2="-0.937453" gradientUnits="userSpaceOnUse">
<stop stop-color="#29D3DA"/>
<stop offset="0.519" stop-color="#0077FF"/>
<stop offset="0.999" stop-color="#064093"/>
<stop offset="1" stop-color="#084698"/>
</linearGradient>
<linearGradient id="paint5_linear" x1="15.47" y1="28.1005" x2="32.153" y2="11.9022" gradientUnits="userSpaceOnUse">
<stop stop-color="#29D3DA"/>
<stop offset="0.519" stop-color="#0077FF"/>
<stop offset="0.999" stop-color="#064093"/>
<stop offset="1" stop-color="#084698"/>
</linearGradient>
</defs>
</svg>
