<svg width="512" height="512" viewBox="0 0 512 512" fill="none" xmlns="http://www.w3.org/2000/svg">
<path d="M443.099 209.715L398.106 164.722C398.106 164.722 397.317 163.933 396.528 164.722C395.738 164.722 395.738 165.511 395.738 165.511V483.62C395.738 484.41 395.738 484.41 396.528 484.41C396.528 484.41 396.528 484.41 397.317 484.41H398.106L443.099 439.417C444.678 437.838 446.257 433.891 446.257 431.523V217.608C446.257 215.24 444.678 211.294 443.099 209.715Z" fill="#FF5500"/>
<path d="M361.797 137.884H201.558C199.979 137.884 199.19 137.095 199.19 135.516V1.32585C199.19 0.536502 199.19 0.536499 198.401 0.536499C197.611 0.536499 197.611 0.536499 196.822 0.536499L151.829 45.5296C150.25 47.1083 148.671 51.0551 148.671 53.4231V186.824C148.671 187.613 149.461 188.402 150.25 188.402H309.699C311.278 188.402 312.067 189.192 312.067 190.77V214.451C312.067 217.608 308.91 220.766 305.753 220.766H149.461H148.671V221.555V392.055C148.671 411.789 164.458 427.576 184.192 427.576H306.542C309.699 427.576 312.857 430.734 312.857 433.891V457.572C312.857 459.15 312.067 459.94 310.489 459.94H183.403C145.514 459.94 115.519 429.155 115.519 392.055V84.2079C115.519 83.4185 115.519 83.4185 114.729 83.4185C113.94 83.4185 113.94 83.4185 113.151 83.4185L68.1574 128.412C66.5787 129.99 65 133.937 65 136.305V407.053C65 464.676 111.572 511.248 169.195 511.248H361.797C362.586 511.248 363.375 510.458 363.375 509.669V138.673C363.375 137.884 362.586 137.884 361.797 137.884ZM312.067 370.743C312.067 373.9 308.91 377.058 305.753 377.058H205.505C202.347 377.058 199.19 373.9 199.19 370.743V277.599C199.19 274.442 202.347 271.284 205.505 271.284H306.542C309.699 271.284 312.857 274.442 312.857 277.599V370.743H312.067Z" fill="#FF5500"/>
</svg>
