<svg width="512" height="512" viewBox="0 0 512 512" fill="none" xmlns="http://www.w3.org/2000/svg">
<path d="M256 512C397.385 512 512 397.385 512 256C512 114.615 397.385 0 256 0C114.615 0 0 114.615 0 256C0 397.385 114.615 512 256 512Z" fill="url(#paint0_linear)"/>
<path d="M422.992 290.454L403.744 278.398C404.856 270.928 406 263.849 406 256.001C406 248.677 404.975 241.66 403.715 233.633L422.992 221.563C429.203 217.681 431.722 209.874 428.91 203.106L415.697 171.158C412.914 164.39 405.59 160.596 398.47 162.266L376.351 167.378C367.445 155.264 356.751 144.585 344.622 135.635L349.749 113.574C351.39 106.426 347.64 99.1156 340.872 96.3176L308.91 83.0906C302.142 80.2486 294.291 82.7536 290.453 89.0086L278.412 108.272C275.332 107.898 267.79 106.419 256 106.45C249.014 106.466 241.725 107.023 233.588 108.272L221.547 89.0086C217.68 82.7536 209.828 80.2636 203.09 83.0906L171.156 96.3186C164.388 99.1166 160.638 106.412 162.279 113.56L167.377 135.635C155.219 144.585 144.555 155.279 135.648 167.364V167.379L113.529 162.252C106.439 160.553 99.0858 164.376 96.3018 171.144L83.0898 203.105C80.2768 209.873 82.7968 217.666 89.0078 221.547L108.256 233.603C107.144 241.072 106 248.151 106 256.001C106 263.325 107.025 270.342 108.285 278.369L89.0078 290.439C82.7968 294.321 80.2778 302.128 83.0898 308.896L96.3028 340.844C99.0858 347.626 106.498 351.464 113.53 349.736L135.649 344.624C144.555 356.738 155.249 367.417 167.378 376.367L162.251 398.428C160.61 405.576 164.36 412.886 171.128 415.684L203.091 428.912C209.923 431.741 217.747 429.157 221.548 422.994L233.589 403.731C236.634 404.095 244.202 405.555 256.001 405.529C262.979 405.514 270.263 404.978 278.413 403.731L290.454 422.994C294.35 429.234 302.173 431.695 308.911 428.912L340.845 415.684C347.613 412.886 351.363 405.591 349.722 398.443L344.624 376.368C356.782 367.418 367.446 356.724 376.353 344.639V344.624L398.472 349.736C405.533 351.421 412.915 347.627 415.699 340.844L428.912 308.896C431.723 302.129 429.203 294.336 422.992 290.454V290.454ZM256 316.001C222.924 316.001 196 289.092 196 256.001C196 222.91 222.924 196.001 256 196.001C289.076 196.001 316 222.91 316 256.001C316 289.092 289.076 316.001 256 316.001Z" fill="url(#paint1_linear)"/>
<defs>
<linearGradient id="paint0_linear" x1="256" y1="512" x2="256" y2="0" gradientUnits="userSpaceOnUse">
<stop stop-color="#109CF1"/>
<stop offset="1" stop-color="#3DBFF9"/>
</linearGradient>
<linearGradient id="paint1_linear" x1="256" y1="430.055" x2="256" y2="81.9256" gradientUnits="userSpaceOnUse">
<stop stop-color="#E0F2FF"/>
<stop offset="0.5028" stop-color="#FAFDFF"/>
<stop offset="1" stop-color="#F3FAFF"/>
</linearGradient>
</defs>
</svg>
