<svg width="63" height="72" viewBox="0 0 63 72" fill="none" xmlns="http://www.w3.org/2000/svg">
<path d="M63 10.4062C63 4.64062 48.7969 0 31.5 0C14.0625 0 0 4.64062 0 10.4062V16.7344C0 22.5 14.0625 27 31.5 27C48.7969 27 63 22.5 63 16.7344V10.4062ZM63 24.75C56.1094 29.5312 43.7344 31.6406 31.5 31.6406C19.125 31.6406 6.75 29.5312 0 24.75V39.2344C0 45 14.0625 49.5 31.5 49.5C48.7969 49.5 63 45 63 39.2344V24.75ZM63 47.25C56.1094 52.0312 43.7344 54.1406 31.5 54.1406C19.125 54.1406 6.75 52.0312 0 47.25V61.7344C0 67.5 14.0625 72 31.5 72C48.7969 72 63 67.5 63 61.7344V47.25Z" fill="#324054"/>
</svg>
