<svg width="448" height="448" viewBox="0 0 448 448" fill="none" xmlns="http://www.w3.org/2000/svg">
<rect width="448" height="448" rx="60" fill="black"/>
<path d="M53.628 237.471C67.0978 237.471 72.3518 229.285 72.3518 215.278C72.3518 201.274 66.2074 191.51 54.0226 191.51H40.3665V237.471H53.628ZM26 179.282H55.8066C74.7262 179.282 86.911 194.471 86.911 215.278C86.911 226.717 83.0462 236.78 75.6166 242.993C70.3658 247.33 63.5298 249.797 54.6162 249.797H26V179.282ZM127.942 224.552C127.942 214.687 123.288 207.981 115.066 207.981C106.743 207.981 102.184 214.687 102.184 224.552C102.184 234.413 106.743 241.019 115.066 241.019C123.288 241.019 127.942 234.413 127.942 224.552V224.552ZM88.515 224.552C88.515 209.461 99.3135 197.824 115.066 197.824C130.816 197.824 141.614 209.461 141.614 224.552C141.614 239.636 130.816 251.277 115.066 251.277C99.3104 251.277 88.5118 239.64 88.5118 224.552H88.515ZM143.84 224.552C143.84 209.461 153.748 197.824 169.201 197.824C182.381 197.824 190.502 205.419 192.286 216.365H179.109C178.219 211.928 174.752 208.572 169.798 208.572C161.674 208.572 157.515 214.788 157.515 224.552C157.515 234.118 161.377 240.529 169.599 240.529C175.049 240.529 178.914 237.669 179.804 231.95H192.781C191.891 242.697 183.467 251.277 169.896 251.277C153.85 251.277 143.84 239.64 143.84 224.552V224.552ZM227.861 249.8V243.882H227.564C224.097 248.518 220.135 251.179 213.002 251.179C201.707 251.179 195.367 243.983 195.367 232.933V199.203H208.739V230.664C208.739 236.582 211.417 239.838 217.16 239.838C223.5 239.838 227.365 235.105 227.365 228.398V199.203H240.838V249.8H227.861V249.8ZM306.479 249.8H319.949V199.203H306.479V249.8V249.8ZM306.479 192.132H319.949V179.593H306.479V192.132V192.132ZM361.103 222.28C361.103 214.885 357.141 208.575 349.017 208.575C342.181 208.575 337.624 213.898 337.624 222.38C337.624 230.96 342.181 235.991 349.118 235.991C357.636 235.991 361.103 229.778 361.103 222.283V222.28ZM325.538 251.277H338.906C339.999 254.432 342.869 256.899 349.111 256.899C356.74 256.899 360.406 253.25 360.406 246.346V240.821H360.109C357.134 244.174 353.273 246.739 346.832 246.739C335.54 246.739 324.445 237.864 324.445 222.578C324.445 207.487 333.558 197.824 346.437 197.824C352.777 197.824 357.431 200.288 360.503 204.53H360.702V199.203H373.68V245.95C373.68 253.052 371.4 257.883 367.636 261.336C363.374 265.28 356.838 267.056 349.31 267.056C335.439 267.056 326.92 261.138 325.534 251.277H325.538ZM392.637 206.108H392.934C396.401 200.684 401.058 197.824 407.992 197.824C418.494 197.824 425.525 205.712 425.525 216.758V249.797H412.052V218.732C412.052 213.307 408.882 209.461 403.237 209.461C397.291 209.461 392.934 214.194 392.934 221.098V249.797H379.461V199.203H392.637V206.108V206.108ZM275.776 207.289C265.274 205.027 260.32 203.348 260.32 197.626C260.32 192.598 265.372 189.342 273.101 189.342C280.152 189.342 285.542 192.635 286.647 199.203H300.464C299.059 185.511 288.851 178 273.199 178C257.45 178 246.054 185.2 246.054 199.106C246.054 213.801 257.645 217.154 270.326 220.014C281.124 222.481 287.862 223.86 287.862 230.762C287.862 237.273 281.421 239.838 274.093 239.838C263.989 239.838 259.133 236.484 258.141 228.002H244.075C244.57 242.895 255.467 251.374 274.686 251.374C290.635 251.374 302.226 243.389 302.226 229.087C302.226 213.898 290.338 210.448 275.776 207.289" fill="white"/>
</svg>
