<svg width="512" height="512" viewBox="0 0 512 512" fill="none" xmlns="http://www.w3.org/2000/svg">
<path d="M375.349 159H330.998L325.372 185.848H369.723L375.349 159Z" fill="#CD1543"/>
<path d="M440.11 223.435C456.987 223.435 464.967 229.198 466.014 239.282H511.935C513.505 206.017 486.554 194.099 445.735 194.099C404.917 194.099 371.555 209.291 358.08 240.068L366.845 198.683H322.494L314.383 237.187C312.42 210.47 292.142 195.801 259.565 195.801C241.642 195.801 224.503 202.35 212.598 213.744H212.205L215.345 198.683H172.302L155.033 279.882H56.5182L61.2281 254.474H149.145L155.687 223.435H67.7695L72.4794 198.421H172.302L179.105 166.203H29.6982L0 312.23H148.23L139.464 353.222H183.815L194.674 301.884H195.066C200.823 310.266 214.56 316.683 234.184 316.683C267.807 316.683 293.842 299.265 306.14 275.298L298.291 312.099H342.642L351.277 271.238C351.538 302.146 376.134 316.683 419.439 316.683C468.238 316.683 494.142 298.872 507.879 267.571H461.042C454.762 280.798 442.595 287.347 426.503 287.347C405.178 287.347 395.497 275.822 399.814 255.26C404.132 234.698 419.177 223.173 439.848 223.173L440.11 223.435ZM267.546 255.653C263.49 274.512 250.276 284.596 229.998 284.596C209.719 284.596 200.823 273.333 204.486 255.653C208.28 238.103 221.494 226.709 242.165 226.709C262.836 226.709 271.34 236.794 267.415 255.653H267.546Z" fill="#CD1543"/>
</svg>
