<svg width="534" height="545" viewBox="0 0 534 545" fill="none" xmlns="http://www.w3.org/2000/svg">
<g clip-path="url(#clip0)">
<path d="M533.188 301.704C533.188 284.846 531.821 267.897 528.905 251.312H294.992V346.81H428.943C423.384 377.609 405.524 404.855 379.372 422.168V484.132H459.287C506.215 440.94 533.188 377.154 533.188 301.704Z" fill="#4285F4"/>
<path d="M294.992 544C361.876 544 418.281 522.039 459.378 484.132L379.463 422.168C357.229 437.295 328.525 445.86 295.083 445.86C230.385 445.86 175.529 402.212 155.847 343.529H73.3802V407.406C115.479 491.149 201.226 544 294.992 544Z" fill="#34A853"/>
<path d="M155.755 343.529C145.367 312.729 145.367 279.378 155.755 248.579V184.701H73.3802C38.2066 254.775 38.2066 337.333 73.3802 407.406L155.755 343.529Z" fill="#FBBC04"/>
<path d="M294.992 146.156C330.347 145.61 364.519 158.914 390.124 183.335L460.927 112.532C416.094 70.433 356.591 47.2877 294.992 48.0167C201.226 48.0167 115.479 100.868 73.3802 184.701L155.756 248.579C175.347 189.804 230.294 146.156 294.992 146.156Z" fill="#EA4335"/>
</g>
<defs>
<clipPath id="clip0">
<rect width="533.5" height="544.3" fill="white"/>
</clipPath>
</defs>
</svg>
