<svg width="640" height="516" viewBox="0 0 640 516" fill="none" xmlns="http://www.w3.org/2000/svg">
<path d="M406.111 141.835H425.627L481.255 86.2068L483.983 62.5802C380.448 -28.8142 222.438 -18.941 131.044 84.5933C105.65 113.329 87.2484 147.559 77.1831 184.593C83.3683 182.058 90.2449 181.635 96.699 183.441L207.955 165.077C207.955 165.077 213.602 155.703 216.561 156.28C266.042 101.919 349.33 95.5806 406.495 141.835H406.111Z" fill="#EA4335"/>
<path d="M560.51 184.593C547.717 137.494 521.478 95.158 484.981 62.8108L406.918 140.874C439.88 167.805 458.666 208.412 457.859 250.978V264.847C496.238 264.847 527.356 295.965 527.356 334.343C527.356 372.722 496.238 403.84 457.859 403.84H318.866L304.997 417.901V501.266L318.866 515.135H457.859C557.667 515.903 639.226 435.611 639.995 335.803C640.456 275.181 610.606 218.477 560.51 184.593Z" fill="#4285F4"/>
<path d="M179.68 514.251H318.673V402.995H179.68C169.768 402.995 160.01 400.843 150.982 396.733L131.466 402.803L75.4542 458.431L70.5752 477.947C101.962 501.688 140.302 514.443 179.68 514.251Z" fill="#34A853"/>
<path d="M179.68 153.36C79.834 153.936 -0.573179 235.342 0.00307816 335.188C0.348833 390.932 26.3573 443.41 70.5754 477.37L151.175 396.771C116.215 380.982 100.656 339.799 116.446 304.839C132.235 269.879 173.418 254.32 208.378 270.11C223.783 277.063 236.115 289.434 243.107 304.839L323.706 224.24C289.438 179.368 236.115 153.13 179.68 153.36Z" fill="#FBBC05"/>
</svg>
