<svg width="330" height="512" viewBox="0 0 330 512" fill="none" xmlns="http://www.w3.org/2000/svg">
<path d="M115.5 137L195.5 54.5H230.5V167.5L278 278V355.5H195.5L94.5 320.5L59 238L115.5 137Z" fill="black" stroke="black"/>
<mask id="path-3-outside-1" maskUnits="userSpaceOnUse" x="11.3364" y="6.99683" width="311.25" height="496.25" fill="black">
<rect fill="white" x="11.3364" y="6.99683" width="311.25" height="496.25"/>
<path d="M221.887 28.5664C268.505 28.5664 241.335 145.054 224.757 180.179C210.561 210.249 178.601 253.621 140.724 253.621C95.2795 253.621 96.6312 202.722 114.721 164.405C124.514 143.66 139.565 120.405 160.301 103.309C154.993 121.154 172.935 133.343 165.678 148.719C160.722 159.219 150.464 170.69 145.134 181.984C136.513 200.242 139.807 232.647 160.634 232.647C179.277 232.647 195.843 209.552 202.634 195.166C216.547 165.687 251.336 39.9268 212.45 39.9268C167.665 39.9268 90.4932 149.061 74.3328 183.294C45.4878 244.397 66.3967 319.663 132.119 319.663C176.527 319.663 213.053 276.97 230.696 239.592C241.206 217.329 246.929 195.178 249.183 174.291L257.803 172.714C259.708 230.21 320.533 325.414 294.64 380.261C261.502 450.461 162.416 449.833 105.839 474.747C93.9472 446.929 77.8367 421.066 55.1522 401.327C105.619 384.351 229.634 355.845 256.6 298.719C267.933 274.717 260.217 234.921 247.124 221.434C244.896 229.917 241.813 238.565 237.721 247.232C214.631 296.143 165.194 334.074 114.228 334.074C43.2689 334.074 13.1865 283.085 46.5812 212.332C66.6236 169.878 168.969 28.5664 221.887 28.5664"/>
</mask>
<path d="M221.887 28.5664C268.505 28.5664 241.335 145.054 224.757 180.179C210.561 210.249 178.601 253.621 140.724 253.621C95.2795 253.621 96.6312 202.722 114.721 164.405C124.514 143.66 139.565 120.405 160.301 103.309C154.993 121.154 172.935 133.343 165.678 148.719C160.722 159.219 150.464 170.69 145.134 181.984C136.513 200.242 139.807 232.647 160.634 232.647C179.277 232.647 195.843 209.552 202.634 195.166C216.547 165.687 251.336 39.9268 212.45 39.9268C167.665 39.9268 90.4932 149.061 74.3328 183.294C45.4878 244.397 66.3967 319.663 132.119 319.663C176.527 319.663 213.053 276.97 230.696 239.592C241.206 217.329 246.929 195.178 249.183 174.291L257.803 172.714C259.708 230.21 320.533 325.414 294.64 380.261C261.502 450.461 162.416 449.833 105.839 474.747C93.9472 446.929 77.8367 421.066 55.1522 401.327C105.619 384.351 229.634 355.845 256.6 298.719C267.933 274.717 260.217 234.921 247.124 221.434C244.896 229.917 241.813 238.565 237.721 247.232C214.631 296.143 165.194 334.074 114.228 334.074C43.2689 334.074 13.1865 283.085 46.5812 212.332C66.6236 169.878 168.969 28.5664 221.887 28.5664" fill="white"/>
<path d="M224.757 180.179L244.223 189.366L244.222 189.367L244.222 189.368L224.757 180.179ZM114.721 164.405L134.186 173.594L134.186 173.594L114.721 164.405ZM160.301 103.309L146.608 86.701L201.047 41.8168L180.932 109.446L160.301 103.309ZM165.678 148.719L185.144 157.905L185.144 157.907L165.678 148.719ZM145.134 181.984L164.6 191.171L164.599 191.173L164.598 191.174L145.134 181.984ZM202.634 195.166L222.1 204.354L222.099 204.355L202.634 195.166ZM74.3328 183.294L54.8677 174.105L54.8678 174.105L74.3328 183.294ZM230.696 239.592L211.231 230.404L211.231 230.403L230.696 239.592ZM249.183 174.291L227.782 171.982L229.505 156.009L245.309 153.118L249.183 174.291ZM257.803 172.714L253.929 151.541L278.49 147.047L279.317 172.001L257.803 172.714ZM294.64 380.261L275.175 371.073L275.175 371.072L294.64 380.261ZM105.839 474.747L114.514 494.446L94.6004 503.216L86.0471 483.208L105.839 474.747ZM55.1522 401.327L41.0225 417.565L12.6805 392.903L48.2894 380.925L55.1522 401.327ZM256.6 298.719L237.134 289.531L237.135 289.53L237.135 289.529L256.6 298.719ZM247.124 221.434L226.305 215.967L235.995 179.067L262.568 206.441L247.124 221.434ZM237.721 247.232L218.256 238.043L218.256 238.042L237.721 247.232ZM46.5812 212.332L27.1155 203.144L27.1159 203.143L27.1163 203.143L46.5812 212.332ZM221.887 7.04138C232.613 7.04138 242.447 10.5538 250.319 17.5029C257.781 24.0891 262.164 32.5842 264.793 40.6281C269.918 56.3062 270.059 75.4805 268.458 93.1438C265.219 128.877 253.706 169.273 244.223 189.366L205.291 170.991C212.386 155.96 222.747 120.55 225.583 89.2577C227.02 73.4086 226.248 61.2656 223.874 54.0046C222.754 50.5791 221.741 49.6992 221.83 49.7777C222.33 50.2192 222.816 50.0914 221.887 50.0914V7.04138ZM244.222 189.368C236.326 206.094 223.488 226.632 206.895 243.343C190.632 259.722 167.976 275.146 140.724 275.146V232.096C151.35 232.096 163.612 225.835 176.347 213.01C188.752 200.517 198.992 184.334 205.292 170.989L244.222 189.368ZM140.724 275.146C125.195 275.146 111.27 270.698 100.565 261.086C90.0626 251.656 84.8247 239.201 82.6977 227.112C78.574 203.673 85.112 176.702 95.256 155.215L134.186 173.594C126.24 190.425 123.057 208.062 125.097 219.652C126.051 225.078 127.866 227.742 129.326 229.053C130.584 230.182 133.531 232.096 140.724 232.096V275.146ZM95.2557 155.216C105.886 132.698 122.637 106.465 146.608 86.701L173.994 119.917C156.493 134.346 143.142 154.622 134.186 173.594L95.2557 155.216ZM180.932 109.446C180.737 110.103 180.348 110.652 183.672 118.862C186.168 125.027 193.3 140.624 185.144 157.905L146.212 139.532C145.313 141.438 147.102 143.252 143.768 135.018C141.263 128.828 134.557 114.36 139.669 97.1726L180.932 109.446ZM185.144 157.907C181.763 165.068 176.816 172.118 173.275 177.261C169.221 183.15 166.386 187.387 164.6 191.171L125.668 172.797C129.212 165.287 134.172 158.142 137.817 152.847C141.977 146.805 144.637 142.869 146.213 139.531L185.144 157.907ZM164.598 191.174C163.651 193.181 162.774 196.199 162.402 199.811C162.031 203.4 162.241 206.787 162.835 209.412C163.464 212.191 164.231 212.913 163.946 212.608C163.189 211.797 161.693 211.122 160.634 211.122V254.172C149.161 254.172 139.444 249.446 132.48 241.988C125.99 235.037 122.567 226.517 120.847 218.912C117.481 204.037 119.223 186.446 125.67 172.793L164.598 191.174ZM160.634 211.122C161.188 211.122 164.704 210.442 170.603 204.34C175.987 198.771 180.576 191.47 183.169 185.977L222.099 204.355C217.901 213.248 210.811 224.687 201.553 234.263C192.811 243.305 178.723 254.172 160.634 254.172V211.122ZM183.168 185.979C189.051 173.515 200.742 136.764 206.083 103.117C208.778 86.1403 209.455 72.2589 208.031 63.488C207.311 59.0564 206.381 58.1049 206.828 58.6746C208.04 60.2191 210.499 61.4518 212.45 61.4518V18.4018C224.122 18.4018 234 23.5644 240.698 32.1016C246.631 39.6641 249.254 48.7679 250.524 56.587C253.079 72.3174 251.481 91.7186 248.6 109.866C242.79 146.47 230.13 187.339 222.1 204.354L183.168 185.979ZM212.45 61.4518C208.888 61.4518 200.596 64.2479 187.497 74.4782C175.295 84.0081 162.003 97.5309 149.037 112.739C122.901 143.392 100.81 177.629 93.7979 192.483L54.8678 174.105C64.016 154.726 88.591 117.28 116.278 84.8075C130.222 68.4525 145.63 52.5522 160.999 40.5496C175.47 29.2475 193.619 18.4018 212.45 18.4018V61.4518ZM93.798 192.483C81.4977 218.539 80.392 246.595 87.9386 266.89C95.0514 286.018 109.376 298.138 132.119 298.138V341.188C89.1397 341.188 60.1489 315.674 47.5879 281.894C35.4606 249.281 38.323 209.152 54.8677 174.105L93.798 192.483ZM132.119 298.138C147.182 298.138 162.483 290.876 176.969 277.713C191.398 264.602 203.381 247.034 211.231 230.404L250.162 248.78C240.368 269.528 225.267 291.995 205.92 309.575C186.63 327.103 161.464 341.188 132.119 341.188V298.138ZM211.231 230.403C220.665 210.419 225.772 190.607 227.782 171.982L270.583 176.6C268.086 199.749 261.747 224.24 250.161 248.781L211.231 230.403ZM245.309 153.118L253.929 151.541L261.677 193.888L253.057 195.465L245.309 153.118ZM279.317 172.001C279.691 183.309 283.082 197.714 288.555 215.285C294.348 233.884 300.388 249.969 307.131 270.872C313.34 290.119 319.105 310.564 321.449 330.23C323.786 349.828 322.986 370.639 314.105 389.451L275.175 371.072C279.241 362.46 280.547 350.803 278.702 335.327C276.865 319.92 272.159 302.686 266.16 284.089C260.696 267.149 252.79 245.224 247.453 228.088C241.795 209.924 236.868 190.867 236.29 173.427L279.317 172.001ZM314.105 389.45C293.632 432.822 253.27 452.703 215.701 464.951C196.847 471.098 177.138 475.787 159.879 480.199C142.046 484.758 126.84 489.019 114.514 494.446L97.1645 455.047C113.127 448.018 131.523 443.014 149.216 438.491C167.484 433.82 185.225 429.607 202.357 424.022C236.76 412.806 262.511 397.901 275.175 371.073L314.105 389.45ZM86.0471 483.208C74.9672 457.29 60.4993 434.513 41.0225 417.565L69.2818 385.088C95.174 407.618 112.927 436.568 125.632 466.286L86.0471 483.208ZM48.2894 380.925C75.8196 371.664 116.499 361.286 156.646 345.113C176.271 337.208 194.331 328.419 208.778 318.639C223.431 308.721 232.719 298.884 237.134 289.531L276.065 307.908C266.997 327.118 250.672 342.266 232.911 354.29C214.944 366.452 193.79 376.562 172.732 385.045C131.513 401.65 84.9514 414.013 62.0149 421.728L48.2894 380.925ZM237.135 289.529C240.331 282.761 241.529 271.546 239.725 259.26C237.841 246.431 233.613 238.419 231.679 236.427L262.568 206.441C273.728 217.936 279.904 236.565 282.318 253.006C284.812 269.991 284.201 290.675 276.064 307.91L237.135 289.529ZM267.943 226.901C265.388 236.631 261.857 246.527 257.185 256.422L218.256 238.042C221.768 230.603 224.404 223.204 226.305 215.967L267.943 226.901ZM257.186 256.421C231.454 310.928 175.468 355.599 114.228 355.599V312.549C154.92 312.549 197.808 281.358 218.256 238.043L257.186 256.421ZM114.228 355.599C73.8628 355.599 39.8041 340.853 22.5376 310.335C5.58556 280.373 8.76508 242.023 27.1155 203.144L66.0469 221.52C51.0026 253.394 52.526 275.915 60.0062 289.136C67.1718 301.801 83.6338 312.549 114.228 312.549V355.599ZM27.1163 203.143C38.2752 179.506 70.2025 131.921 105.538 90.5493C123.338 69.7087 142.706 49.6048 161.524 34.5164C170.938 26.9677 180.661 20.3115 190.365 15.4647C199.907 10.6988 210.698 7.04138 221.887 7.04138V50.0914C219.846 50.0914 215.864 50.85 209.601 53.9779C203.501 57.0249 196.39 61.7403 188.454 68.1029C172.573 80.8371 155.18 98.7145 138.273 118.509C104.196 158.406 74.9296 202.704 66.0461 221.521L27.1163 203.143Z" fill="black" mask="url(#path-3-outside-1)"/>
</svg>
