<svg width="512" height="512" viewBox="0 0 512 512" fill="none" xmlns="http://www.w3.org/2000/svg">
<g clip-path="url(#clip0_9558_181564)">
<path d="M0 344.087H99.5497V358.338H0V344.087Z" fill="#1F70C1"/>
<path d="M0 316.753H99.5497V331.054H0V316.753Z" fill="#1F70C1"/>
<path d="M28.3997 289.469H71.0999V303.77H28.3997V289.469Z" fill="#1F70C1"/>
<path d="M28.3997 262.186H71.0999V276.487H28.3997V262.186Z" fill="#1F70C1"/>
<path d="M28.3997 234.902H71.0999V249.203H28.3997V234.902Z" fill="#1F70C1"/>
<path d="M28.3997 207.567H71.0999V221.869H28.3997V207.567Z" fill="#1F70C1"/>
<path d="M99.5497 180.283H0V194.585H99.5497V180.283Z" fill="#1F70C1"/>
<path d="M99.5497 153H0V167.301H99.5497V153Z" fill="#1F70C1"/>
<path d="M113.75 331.054H266.852C269.438 326.642 271.366 321.824 272.532 316.752H113.75V331.054Z" fill="#1F70C1"/>
<path d="M254.935 262.186H142.2V276.487H266.853C263.607 271.009 259.6 266.192 254.935 262.186Z" fill="#1F70C1"/>
<path d="M142.2 234.902V249.203H254.935C259.702 245.196 263.708 240.378 266.853 234.902H142.2Z" fill="#1F70C1"/>
<path d="M266.853 180.283H113.75V194.585H272.532C271.214 189.513 269.287 184.696 266.853 180.283Z" fill="#1F70C1"/>
<path d="M219.791 153H113.75V167.301H256.355C246.821 158.477 233.889 153 219.791 153Z" fill="#1F70C1"/>
<path d="M184.849 207.567H142.2V221.869H184.849V207.567Z" fill="#1F70C1"/>
<path d="M227.55 221.869H272.177C273.445 217.305 274.104 212.487 274.104 207.567H227.55V221.869Z" fill="#1F70C1"/>
<path d="M142.2 289.469H184.849V303.77H142.2V289.469Z" fill="#1F70C1"/>
<path d="M227.55 289.469V303.77H274.104C274.104 298.851 273.445 294.033 272.177 289.469H227.55Z" fill="#1F70C1"/>
<path d="M113.75 358.236L219.791 358.388C233.991 358.388 246.821 352.911 256.406 344.087H113.75V358.236Z" fill="#1F70C1"/>
<path d="M284.45 344.087H355.55V358.338H284.45V344.087Z" fill="#1F70C1"/>
<path d="M284.45 316.753H355.55V331.054H284.45V316.753Z" fill="#1F70C1"/>
<path d="M312.849 289.469H355.55V303.77H312.849V289.469Z" fill="#1F70C1"/>
<path d="M312.849 262.186H355.55V276.487H312.849V262.186Z" fill="#1F70C1"/>
<path d="M375.328 180.283H284.45V194.585H380.247L375.328 180.283Z" fill="#1F70C1"/>
<path d="M365.895 153H284.45V167.301H370.814L365.895 153Z" fill="#1F70C1"/>
<path d="M440.849 344.087H512V358.338H440.849V344.087Z" fill="#1F70C1"/>
<path d="M440.849 316.753H512V331.054H440.849V316.753Z" fill="#1F70C1"/>
<path d="M440.849 289.469H483.55V303.77H440.849V289.469Z" fill="#1F70C1"/>
<path d="M440.849 262.186H483.55V276.487H440.849V262.186Z" fill="#1F70C1"/>
<path d="M440.849 249.203H483.55V234.902H440.849H402.206L398.2 246.465L394.193 234.902H355.55H312.849V249.203H355.55V236.068L360.063 249.203H436.336L440.849 236.068V249.203Z" fill="#1F70C1"/>
<path d="M483.55 207.567H411.639L406.719 221.869H483.55V207.567Z" fill="#1F70C1"/>
<path d="M430.555 153L425.635 167.301H512V153H430.555Z" fill="#1F70C1"/>
<path d="M398.2 358.236L403.118 344.087H393.28L398.2 358.236Z" fill="#1F70C1"/>
<path d="M388.767 331.054H407.632L412.704 316.753H383.746L388.767 331.054Z" fill="#1F70C1"/>
<path d="M379.182 303.77H417.217L422.238 289.469H374.161L379.182 303.77Z" fill="#1F70C1"/>
<path d="M369.648 276.487H426.802L431.67 262.186H364.729L369.648 276.487Z" fill="#1F70C1"/>
<path d="M312.849 221.869H389.68L384.761 207.567H312.849V221.869Z" fill="#1F70C1"/>
<path d="M416.203 194.585H512V180.283H421.071L416.203 194.585Z" fill="#1F70C1"/>
</g>
<defs>
<clipPath id="clip0_9558_181564">
<rect width="512" height="205.388" fill="white" transform="translate(0 153)"/>
</clipPath>
</defs>
</svg>
