<svg width="230" height="512" viewBox="0 0 230 512" fill="none" xmlns="http://www.w3.org/2000/svg">
<g clip-path="url(#clip0)">
<path fill-rule="evenodd" clip-rule="evenodd" d="M126.272 511.972L112.644 507.314C112.644 507.314 114.308 437.84 89.3731 432.854C72.7556 413.571 92.0388 -384.916 151.873 430.192C151.873 430.192 131.261 440.495 127.604 458.117C123.613 475.405 126.272 511.972 126.272 511.972V511.972Z" fill="white"/>
<path fill-rule="evenodd" clip-rule="evenodd" d="M126.272 511.972L112.644 507.314C112.644 507.314 114.308 437.84 89.3731 432.854C72.7556 413.571 92.0388 -384.916 151.873 430.192C151.873 430.192 131.261 440.495 127.604 458.117C123.613 475.405 126.272 511.972 126.272 511.972V511.972Z" fill="#A6A385"/>
<path fill-rule="evenodd" clip-rule="evenodd" d="M133.588 444.821C133.588 444.821 252.933 366.367 225.004 203.143C198.08 84.4719 134.586 45.5778 127.605 30.6174C119.961 19.9798 112.645 1.3667 112.645 1.3667L117.634 331.46C117.634 331.795 107.328 432.519 133.592 444.825" fill="white"/>
<path fill-rule="evenodd" clip-rule="evenodd" d="M133.588 444.821C133.588 444.821 252.933 366.367 225.004 203.143C198.08 84.4719 134.586 45.5778 127.605 30.6174C119.961 19.9798 112.645 1.3667 112.645 1.3667L117.634 331.46C117.634 331.795 107.328 432.519 133.592 444.825" fill="#499D4A"/>
<path fill-rule="evenodd" clip-rule="evenodd" d="M105.667 449.14C105.667 449.14 -6.36511 372.682 0.284741 238.053C6.59958 103.42 85.717 37.2672 101.009 25.3004C110.984 14.6628 111.315 10.6714 111.981 0.0338135C118.963 14.9942 117.633 223.759 118.628 248.355C121.618 343.096 113.311 431.194 105.667 449.14Z" fill="white"/>
<path fill-rule="evenodd" clip-rule="evenodd" d="M105.667 449.14C105.667 449.14 -6.36511 372.682 0.284741 238.053C6.59958 103.42 85.717 37.2672 101.009 25.3004C110.984 14.6628 111.315 10.6714 111.981 0.0338135C118.963 14.9942 117.633 223.759 118.628 248.355C121.618 343.096 113.311 431.194 105.667 449.14Z" fill="#58AA50"/>
</g>
<defs>
<clipPath id="clip0">
<rect width="229.441" height="512" fill="white"/>
</clipPath>
</defs>
</svg>
