<svg width="69" height="69" viewBox="0 0 69 69" fill="none" xmlns="http://www.w3.org/2000/svg">
<path d="M42.804 0C42.7177 0 5.81948 13.8431 5.76917 13.8958C5.75 13.9126 5.74521 23.2468 5.75479 34.6366L5.77396 55.3437L10.374 53.5445C12.904 52.555 15.7263 51.4505 16.6415 51.0888L18.309 50.4347V33.5776C18.309 21.9506 18.3329 16.7061 18.3904 16.6726C18.5294 16.5864 42.7225 10.822 42.7848 10.8579C42.8615 10.9058 42.8615 60.3918 42.7848 60.4373C42.7537 60.4565 34.5 59.3376 24.4423 57.9528C14.387 56.5656 6.13333 55.4396 6.10458 55.4492C6.07344 55.4611 14.2672 58.5086 24.3129 62.227C34.3563 65.9429 42.6602 68.988 42.7656 68.9928C42.8711 68.9952 47.5381 67.7326 53.1348 66.1849L63.3123 63.3698L63.2931 34.627L63.274 5.88417L53.0773 2.94208C47.4711 1.3249 42.8471 0 42.804 0Z" fill="#EB3C00"/>
</svg>
