<?xml version="1.0" standalone="no"?>
<!DOCTYPE svg PUBLIC "-//W3C//DTD SVG 20010904//EN"
 "http://www.w3.org/TR/2001/REC-SVG-20010904/DTD/svg10.dtd">
<svg version="1.0" xmlns="http://www.w3.org/2000/svg"
 width="595.000000pt" height="237.000000pt" viewBox="0 0 595.000000 237.000000"
 preserveAspectRatio="xMidYMid meet">

<g transform="translate(0.000000,237.000000) scale(0.100000,-0.100000)"
fill="#000000" stroke="none">
<path d="M717 1806 c-129 -46 -203 -173 -177 -302 20 -95 97 -178 189 -204 61
-17 398 -13 460 6 101 30 181 140 181 249 0 109 -80 219 -181 249 -70 21 -414
22 -472 2z m476 -106 c109 -75 100 -243 -16 -299 -39 -19 -61 -21 -223 -21
-167 0 -183 2 -224 23 -132 66 -129 247 4 308 36 17 63 19 232 17 184 -3 192
-4 227 -28z"/>
<path d="M1430 1555 l0 -265 50 0 50 0 0 220 0 220 175 0 c194 0 226 -7 242
-57 13 -40 6 -67 -23 -94 -24 -23 -35 -24 -178 -29 l-153 -5 146 -127 146
-127 68 -1 c37 0 67 2 67 4 0 2 -43 40 -95 84 l-94 79 49 6 c27 3 62 13 79 21
93 48 121 187 54 267 -53 63 -81 69 -345 69 l-238 0 0 -265z"/>
<path d="M2398 1808 c-9 -7 -53 -71 -99 -143 -45 -71 -117 -185 -160 -252
l-79 -123 59 0 58 0 133 211 c73 115 133 209 135 207 17 -21 135 -218 135
-227 0 -8 -40 -11 -130 -11 l-130 0 26 -40 27 -40 137 0 138 0 31 -50 31 -50
55 0 c30 0 55 2 55 5 0 9 -303 480 -323 503 -23 25 -73 30 -99 10z"/>
<path d="M2960 1805 c-191 -59 -242 -317 -89 -448 65 -56 115 -67 315 -67
l172 0 25 43 25 42 -207 5 c-204 5 -208 5 -248 32 -100 66 -100 220 0 286 39
26 45 27 218 30 l177 3 26 39 c14 22 26 42 26 45 0 3 -89 5 -197 4 -140 0
-211 -5 -243 -14z"/>
<path d="M3470 1565 c0 -241 1 -255 19 -265 12 -6 112 -10 255 -10 l235 0 31
45 31 45 -238 2 -238 3 -3 218 -2 217 -45 0 -45 0 0 -255z"/>
<path d="M4214 1809 c-59 -17 -126 -71 -158 -129 -26 -47 -31 -65 -31 -125 0
-60 5 -78 31 -125 33 -60 99 -112 162 -130 20 -5 115 -10 209 -10 l173 0 25
40 c14 22 25 42 25 45 0 3 -83 5 -184 5 -101 0 -198 3 -216 7 -37 7 -120 81
-120 106 0 15 21 17 218 17 l217 0 27 45 28 45 -245 0 c-222 0 -245 2 -245 17
0 25 83 99 120 106 18 4 103 7 189 7 l156 1 27 44 27 45 -202 -1 c-111 0 -216
-5 -233 -10z"/>
<path d="M4716 1804 c-19 -18 -21 -65 -4 -82 17 -17 64 -15 82 4 34 34 9 94
-39 94 -13 0 -31 -7 -39 -16z m72 -6 c28 -28 7 -78 -33 -78 -27 0 -45 18 -45
45 0 27 18 45 45 45 12 0 26 -5 33 -12z"/>
<path d="M4730 1768 c0 -25 3 -29 10 -18 8 13 11 13 22 -3 12 -15 13 -14 13
15 0 27 -4 34 -22 36 -20 3 -23 -1 -23 -30z m40 12 c0 -5 -7 -10 -15 -10 -8 0
-15 5 -15 10 0 6 7 10 15 10 8 0 15 -4 15 -10z"/>
<path d="M4057 965 c-77 -27 -113 -91 -87 -155 16 -38 43 -55 121 -75 117 -31
129 -38 129 -84 0 -32 -5 -44 -24 -56 -63 -41 -161 -22 -172 35 -6 26 -11 30
-40 30 -32 0 -34 -2 -28 -27 9 -39 30 -70 61 -90 40 -26 156 -25 203 2 46 27
74 84 65 132 -10 53 -45 78 -143 104 -120 32 -145 61 -99 114 41 49 138 41
162 -13 7 -16 18 -22 42 -22 30 0 31 1 23 30 -12 44 -19 50 -64 71 -48 22 -96
23 -149 4z"/>
<path d="M580 750 l0 -220 140 0 140 0 0 30 0 30 -110 0 -110 0 0 70 0 70 105
0 105 0 0 25 0 25 -105 0 -105 0 0 70 0 70 110 0 110 0 0 25 0 25 -140 0 -140
0 0 -220z"/>
<path d="M1160 749 l0 -221 121 3 121 4 34 37 c25 28 34 47 34 73 0 48 -22 88
-57 104 l-28 13 24 12 c72 39 63 150 -14 182 -22 9 -71 14 -135 14 l-100 0 0
-221z m213 154 c19 -23 23 -41 14 -75 -8 -31 -52 -48 -124 -48 l-43 0 0 70 0
70 68 0 c53 0 73 -4 85 -17z m16 -199 c26 -33 27 -65 2 -95 -16 -20 -30 -24
-95 -27 l-76 -4 0 76 0 76 74 0 c69 0 76 -2 95 -26z"/>
<path d="M2250 941 c0 -29 3 -31 36 -31 33 0 35 2 32 28 -2 22 -8 28 -35 30
-31 3 -33 1 -33 -27z"/>
<path d="M4750 940 c0 -27 3 -30 30 -30 27 0 30 3 30 30 0 27 -3 30 -30 30
-27 0 -30 -3 -30 -30z"/>
<path d="M4968 908 c-22 -8 -28 -16 -28 -39 0 -24 -4 -29 -25 -29 -18 0 -25
-5 -25 -20 0 -14 7 -20 24 -20 24 0 24 -1 28 -121 3 -138 10 -149 85 -149 36
0 43 3 43 20 0 14 -7 20 -23 20 -41 0 -47 18 -47 127 l0 103 35 0 c28 0 35 4
35 20 0 16 -7 20 -34 20 -33 0 -35 2 -38 38 -3 37 -4 38 -30 30z"/>
<path d="M1550 725 c0 -126 9 -159 51 -181 50 -25 137 -9 152 28 3 7 6 1 6
-14 1 -24 5 -28 31 -28 l31 0 -3 153 -3 152 -27 3 -28 3 0 -100 c0 -110 -10
-143 -47 -160 -35 -16 -60 -14 -83 9 -18 18 -20 33 -20 135 l0 115 -30 0 -30
0 0 -115z"/>
<path d="M1952 815 c-24 -20 -32 -35 -32 -61 0 -43 26 -70 82 -84 84 -22 93
-26 96 -49 5 -33 -16 -51 -59 -51 -35 0 -69 20 -69 41 0 5 -13 9 -30 9 -36 0
-39 -16 -9 -53 61 -78 229 -40 229 52 0 46 -29 71 -104 92 -72 20 -88 31 -78
58 8 23 23 31 57 31 35 0 49 -8 58 -32 4 -11 17 -18 32 -18 20 0 25 5 25 23 0
39 -34 61 -104 65 -56 4 -65 1 -94 -23z"/>
<path d="M2254 827 c-2 -7 -3 -76 -2 -152 l3 -140 28 -3 27 -3 0 155 0 156
-25 0 c-14 0 -28 -6 -31 -13z"/>
<path d="M2424 827 c-2 -7 -3 -76 -2 -152 l3 -140 28 -3 27 -3 0 100 c0 55 5
111 11 125 14 29 59 51 88 41 46 -14 51 -30 51 -151 l0 -114 30 0 30 0 0 115
c0 128 -10 163 -55 183 -41 19 -99 15 -129 -9 l-26 -20 0 20 c0 16 -6 21 -25
21 -14 0 -28 -6 -31 -13z"/>
<path d="M2848 824 c-78 -42 -89 -207 -19 -267 37 -31 89 -41 140 -27 65 17
113 100 58 100 -16 0 -28 -9 -35 -25 -14 -30 -54 -48 -88 -39 -31 8 -64 49
-64 80 0 23 2 23 108 26 l107 3 -1 37 c-2 53 -23 97 -55 113 -36 19 -116 18
-151 -1z m125 -36 c9 -7 20 -28 23 -45 l7 -33 -83 0 -82 0 6 28 c4 15 16 35
28 45 24 20 77 22 101 5z"/>
<path d="M3171 815 c-28 -24 -32 -33 -29 -69 3 -36 8 -43 38 -58 19 -10 55
-23 79 -30 51 -15 71 -39 55 -65 -21 -34 -108 -28 -119 7 -4 14 -15 20 -36 20
-35 0 -37 -17 -8 -53 61 -78 229 -40 229 52 0 45 -28 69 -104 90 -83 23 -102
43 -70 75 25 26 81 20 100 -9 20 -31 64 -35 64 -6 0 10 -8 29 -19 42 -15 19
-30 24 -83 27 -58 4 -67 2 -97 -23z"/>
<path d="M3492 815 c-24 -20 -32 -35 -32 -61 0 -43 26 -70 82 -84 84 -22 93
-26 96 -49 5 -33 -16 -51 -58 -51 -29 0 -43 6 -58 25 -22 27 -72 35 -72 11 0
-26 41 -66 80 -76 109 -29 209 59 155 137 -15 21 -38 31 -122 53 -35 9 -43 15
-43 33 0 32 18 47 56 47 31 0 64 -21 64 -41 0 -5 11 -9 25 -9 20 0 25 5 25 23
0 39 -34 61 -104 65 -56 4 -65 1 -94 -23z"/>
<path d="M4370 725 c0 -126 9 -159 51 -181 50 -25 137 -9 152 28 3 7 6 1 6
-14 1 -24 5 -28 31 -28 l31 0 -3 153 -3 152 -27 3 -28 3 0 -100 c0 -110 -10
-143 -47 -160 -35 -16 -60 -14 -83 9 -18 18 -20 33 -20 135 l0 115 -30 0 -30
0 0 -115z"/>
<path d="M4757 833 c-4 -3 -7 -73 -7 -155 l0 -148 30 0 30 0 0 155 0 155 -23
0 c-13 0 -27 -3 -30 -7z"/>
<path d="M5188 824 c-78 -42 -89 -207 -19 -267 37 -31 89 -41 140 -27 65 17
113 100 58 100 -16 0 -28 -9 -35 -25 -14 -30 -54 -48 -88 -39 -31 8 -64 49
-64 80 0 23 2 23 108 26 l107 3 -1 37 c-2 53 -23 97 -55 113 -36 19 -116 18
-151 -1z m125 -36 c9 -7 20 -28 23 -45 l7 -33 -83 0 -82 0 6 28 c4 15 16 35
28 45 24 20 77 22 101 5z"/>
<path d="M930 755 c0 -24 2 -25 75 -25 73 0 75 1 75 25 0 24 -2 25 -75 25 -73
0 -75 -1 -75 -25z"/>
</g>
</svg>
