<svg width="513" height="512" viewBox="0 0 513 512" fill="none" xmlns="http://www.w3.org/2000/svg">
<mask id="path-1-outside-1_7734_147161" maskUnits="userSpaceOnUse" x="0" y="7.97168" width="513" height="481" fill="black">
<rect fill="white" y="7.97168" width="513" height="481"/>
<path fill-rule="evenodd" clip-rule="evenodd" d="M236.55 19.7905C180.537 107.972 151.66 251.664 144.166 310.324C151.767 251.628 200.57 116.143 260.573 116.143C350.578 116.143 453.383 268.913 502.986 351.329C439.772 204.809 334.023 95.9415 242.396 18.9078C240.565 17.3688 237.832 17.7718 236.55 19.7905ZM14.7414 419.162C118.963 423.814 257.535 377.23 311.951 354.485C257.453 377.154 115.995 402.349 85.9274 350.271C40.8266 272.154 121.242 106.757 167.56 22.6141C72.6981 150.541 31.6715 296.612 11.061 414.55C10.6506 416.898 12.3599 419.055 14.7414 419.162ZM266.531 185.225C312.886 221.69 421.025 320.068 467.688 413.376C468.754 415.508 467.701 418.051 465.45 418.836C352.394 458.234 204.823 493.491 46.9006 472.887C142.948 472.395 326.572 462.14 372.86 384.721C403.719 333.108 312.859 221.799 266.531 185.225Z"/>
</mask>
<path fill-rule="evenodd" clip-rule="evenodd" d="M236.55 19.7905C180.537 107.972 151.66 251.664 144.166 310.324C151.767 251.628 200.57 116.143 260.573 116.143C350.578 116.143 453.383 268.913 502.986 351.329C439.772 204.809 334.023 95.9415 242.396 18.9078C240.565 17.3688 237.832 17.7718 236.55 19.7905ZM14.7414 419.162C118.963 423.814 257.535 377.23 311.951 354.485C257.453 377.154 115.995 402.349 85.9274 350.271C40.8266 272.154 121.242 106.757 167.56 22.6141C72.6981 150.541 31.6715 296.612 11.061 414.55C10.6506 416.898 12.3599 419.055 14.7414 419.162ZM266.531 185.225C312.886 221.69 421.025 320.068 467.688 413.376C468.754 415.508 467.701 418.051 465.45 418.836C352.394 458.234 204.823 493.491 46.9006 472.887C142.948 472.395 326.572 462.14 372.86 384.721C403.719 333.108 312.859 221.799 266.531 185.225Z" fill="#E25241"/>
<path d="M144.166 310.324L134.247 309.057C133.548 314.532 137.416 319.539 142.891 320.243C148.365 320.947 153.375 317.082 154.084 311.608L144.166 310.324ZM236.55 19.7905L228.109 14.4287L228.109 14.4288L236.55 19.7905ZM502.986 351.329L494.418 356.485C497.132 360.994 502.875 362.628 507.556 360.224C512.236 357.819 514.253 352.199 512.168 347.367L502.986 351.329ZM242.396 18.9078L248.831 11.2535L248.831 11.2535L242.396 18.9078ZM311.951 354.485L315.808 363.711C320.9 361.583 323.305 355.731 321.181 350.636C319.057 345.542 313.207 343.132 308.11 345.252L311.951 354.485ZM14.7414 419.162L15.1873 409.171L15.1873 409.171L14.7414 419.162ZM85.9274 350.271L77.2672 355.271L77.2672 355.271L85.9274 350.271ZM167.56 22.6141L176.32 27.4364C178.858 22.8273 177.389 17.0405 172.962 14.1985C168.534 11.3566 162.661 12.4316 159.527 16.6577L167.56 22.6141ZM11.061 414.55L1.21026 412.828L1.21026 412.828L11.061 414.55ZM467.688 413.376L458.744 417.849L458.744 417.849L467.688 413.376ZM266.531 185.225L272.714 177.366C268.376 173.953 262.093 174.701 258.677 179.036C255.261 183.371 256.003 189.654 260.335 193.074L266.531 185.225ZM465.45 418.836L468.741 428.279L468.741 428.279L465.45 418.836ZM46.9006 472.887L46.8493 462.888C41.5881 462.915 37.2476 467.014 36.92 472.265C36.5924 477.516 40.3898 482.123 45.6069 482.803L46.9006 472.887ZM372.86 384.721L364.278 379.589L364.278 379.589L372.86 384.721ZM154.086 311.591C157.774 282.72 166.773 232.609 181.795 178.818C196.849 124.91 217.755 68.0299 244.991 25.1522L228.109 14.4288C199.332 59.7326 177.793 118.79 162.532 173.438C147.238 228.203 138.052 279.268 134.247 309.057L154.086 311.591ZM260.573 106.143C241.668 106.143 224.931 116.779 210.941 131.288C196.837 145.915 184.341 165.665 173.778 186.742C152.672 228.859 138.207 278.479 134.249 309.04L154.084 311.608C157.727 283.473 171.463 236.003 191.659 195.703C201.747 175.571 213.178 157.782 225.338 145.171C237.612 132.442 249.476 126.143 260.573 126.143V106.143ZM511.554 346.172C486.646 304.787 448.169 245.368 404.401 196.182C382.52 171.592 359.059 149.264 335.049 133.019C311.122 116.829 285.856 106.143 260.573 106.143V126.143C280.292 126.143 301.628 134.553 323.841 149.583C345.972 164.558 368.189 185.573 389.46 209.477C431.997 257.28 469.724 315.455 494.418 356.485L511.554 346.172ZM235.961 26.5621C327.02 103.118 431.463 210.794 493.804 355.29L512.168 347.367C448.081 198.825 341.026 88.7647 248.831 11.2535L235.961 26.5621ZM244.991 25.1522C242.984 28.3118 238.697 28.8623 235.961 26.5621L248.831 11.2535C242.434 5.8753 232.68 7.23173 228.109 14.4287L244.991 25.1522ZM308.095 345.258C281.316 356.452 233.53 373.626 179.55 387.408C125.452 401.22 65.8582 411.433 15.1873 409.171L14.2954 429.152C67.8463 431.542 129.65 420.79 184.497 406.787C239.462 392.753 288.171 375.263 315.808 363.711L308.095 345.258ZM77.2672 355.271C86.7266 371.656 104.282 380.877 123.828 385.787C143.529 390.735 166.85 391.734 190.348 390.392C237.301 387.711 287.408 375.524 315.792 363.718L308.11 345.252C281.996 356.114 234.126 367.86 189.208 370.424C166.771 371.706 145.683 370.655 128.701 366.389C111.564 362.085 100.162 354.926 94.5877 345.271L77.2672 355.271ZM158.8 17.7918C135.54 60.0458 103.507 123.068 82.9617 185.58C72.6902 216.833 65.1644 248.327 63.166 277.263C61.1743 306.101 64.608 333.345 77.2672 355.271L94.5877 345.271C84.6964 328.139 81.2694 305.414 83.1184 278.641C84.9608 251.965 91.9773 222.204 101.962 191.825C121.929 131.074 153.262 69.3255 176.32 27.4364L158.8 17.7918ZM20.9117 416.271C41.395 299.062 82.0464 154.723 175.593 28.5705L159.527 16.6577C63.3499 146.358 21.948 294.163 1.21026 412.828L20.9117 416.271ZM15.1873 409.171C18.9145 409.338 21.5251 412.761 20.9117 416.271L1.21026 412.828C-0.223939 421.035 5.80522 428.773 14.2955 429.152L15.1873 409.171ZM476.632 408.903C452.656 360.96 413.182 312.205 374.254 271.108C335.243 229.923 296.257 195.886 272.714 177.366L260.348 193.085C283.16 211.03 321.421 244.414 359.734 284.861C398.13 325.396 436.057 372.484 458.744 417.849L476.632 408.903ZM468.741 428.279C476.608 425.537 480.433 416.504 476.632 408.903L458.744 417.849C457.075 414.512 458.795 410.565 462.16 409.393L468.741 428.279ZM45.6069 482.803C205.72 503.692 354.987 467.92 468.741 428.279L462.16 409.393C349.801 448.548 203.926 483.289 48.1943 462.971L45.6069 482.803ZM364.278 379.589C354.126 396.569 335.942 410.623 311.654 422.039C287.454 433.413 258.042 441.769 226.644 447.833C163.856 459.96 94.6649 462.642 46.8493 462.888L46.9519 482.887C95.1839 482.64 165.829 479.949 230.437 467.47C262.737 461.232 293.912 452.477 320.162 440.139C346.323 427.843 368.451 411.583 381.443 389.853L364.278 379.589ZM260.335 193.074C282.534 210.6 316.094 246.701 340.197 284.691C352.236 303.667 361.583 322.6 366.122 339.511C370.702 356.576 369.998 370.021 364.278 379.589L381.443 389.853C391.152 373.615 390.663 353.791 385.438 334.327C380.172 314.708 369.694 293.85 357.085 273.976C331.89 234.265 296.856 196.425 272.727 177.377L260.335 193.074Z" fill="#E25241" mask="url(#path-1-outside-1_7734_147161)"/>
</svg>