<svg width="384" height="512" viewBox="0 0 384 512" fill="none" xmlns="http://www.w3.org/2000/svg">
<path fill-rule="evenodd" clip-rule="evenodd" d="M224 0V136C224 150 234 160 248 160H384V488C384 502 373 512 360 512H24C10 512 0 502 0 488V24C0 11 10 0 24 0H224ZM279 7L377 105C381 110 384 116 384 122V128H256V0H262C268 0 274 3 279 7ZM158.291 367.891C160.634 370.234 160.634 374.033 158.291 376.376L150.909 383.757C148.566 386.1 144.767 386.1 142.424 383.757L78.6665 320L142.424 256.243C144.767 253.899 148.566 253.899 150.909 256.243L158.291 263.624C160.634 265.967 160.634 269.766 158.291 272.109L110.4 320L158.291 367.891ZM225.709 367.891C223.366 370.234 223.366 374.033 225.709 376.376L233.091 383.757C235.434 386.1 239.233 386.1 241.576 383.757L305.333 320L241.576 256.243C239.233 253.899 235.434 253.899 233.091 256.243L225.709 263.624C223.366 265.967 223.366 269.766 225.709 272.109L273.6 320L225.709 367.891Z" fill="#BA4DE1"/>
</svg>
