<svg width="81" height="72" viewBox="0 0 81 72" fill="none" xmlns="http://www.w3.org/2000/svg">
<path fill-rule="evenodd" clip-rule="evenodd" d="M40.3628 0C18.5669 0 0 17.7596 0 39.9591C0 51.6643 4.84349 62.1587 12.5124 69.8276C15.3378 72.653 19.7777 72.653 23.0068 70.2312C27.4467 66.5986 33.5011 64.5804 40.3628 64.5804C47.2244 64.5804 52.8752 66.5986 57.7188 70.2312C60.9478 72.653 65.3876 72.2494 68.213 69.424C75.882 62.1587 80.7255 51.6643 80.7255 39.9591C80.3219 18.1632 62.5623 0 40.3628 0ZM39.9591 60.5442C28.2539 60.5442 19.7777 51.6643 19.7777 40.3628C19.7777 29.0612 27.8503 20.1814 39.9591 20.1814C52.0679 20.1814 60.1405 29.4648 60.1405 40.3628C60.1405 51.2607 52.0679 60.5442 39.9591 60.5442Z" fill="#82B6A1"/>
</svg>
