<svg width="809" height="400" viewBox="0 0 809 400" fill="none" xmlns="http://www.w3.org/2000/svg">
<g clip-path="url(#clip0_1075_79116)">
<path fill-rule="evenodd" clip-rule="evenodd" d="M0 400H408.867L809 0H0V400" fill="url(#paint0_linear_1075_79116)"/>
<path fill-rule="evenodd" clip-rule="evenodd" d="M480.103 80H400.204L400.471 267.822L330.898 79.9289H261.912L202.521 236.844C196.207 196.916 154.906 183.138 122.409 172.818C100.95 165.929 78.1735 155.796 78.4047 144.596C78.5826 135.404 90.5887 126.88 114.45 128.151C130.458 129.013 144.599 130.302 172.728 143.884L200.387 95.7067C174.738 82.6578 139.271 74.4178 110.19 74.3911H110.012C76.1013 74.3911 47.8647 85.3689 30.3624 103.458C18.1606 116.08 11.5795 132.133 11.3126 149.884C10.868 174.311 19.8237 191.627 38.6422 205.467C54.5436 217.111 74.8829 224.667 92.8032 230.213C114.903 237.058 132.957 243.013 132.735 255.689C132.557 260.311 130.814 264.631 127.488 268.116C121.974 273.804 113.525 275.938 101.83 276.169C79.2674 276.649 62.5477 273.102 35.903 257.36L11.2949 306.16C37.9129 321.289 66.1673 328.88 98.2726 328.88L105.494 328.827C133.437 328.32 156.116 321.627 174.134 307.138C175.165 306.311 176.09 305.476 177.051 304.631L174.027 320.204L241.439 319.991L253.534 289.04C266.252 293.378 280.713 295.778 296.063 295.778C311.021 295.778 325.091 293.502 337.568 289.413L345.999 319.991L466.95 320.107L467.243 249.547H492.981C555.191 249.547 591.965 217.902 591.965 164.836C591.945 105.733 556.195 79.9911 480.103 79.9911L480.103 80ZM296.062 240.551C286.769 240.551 278.053 238.933 270.556 236.089L295.778 156.489H296.267L321.08 236.311C313.609 238.978 305.098 240.551 296.053 240.551H296.062ZM484.781 194.818H467.225V130.667H484.79C508.18 130.667 526.856 138.453 526.856 162.329C526.836 187.04 508.18 194.818 484.79 194.818" fill="white"/>
</g>
<defs>
<linearGradient id="paint0_linear_1075_79116" x1="404.5" y1="0" x2="404.5" y2="400.009" gradientUnits="userSpaceOnUse">
<stop stop-color="#00AEEF"/>
<stop offset="0.212" stop-color="#0097DC"/>
<stop offset="0.519" stop-color="#007CC5"/>
<stop offset="0.792" stop-color="#006CB8"/>
<stop offset="1" stop-color="#0066B3"/>
</linearGradient>
<clipPath id="clip0_1075_79116">
<rect width="809" height="400" fill="white"/>
</clipPath>
</defs>
</svg>
