<svg width="625" height="624" viewBox="0 0 625 624" fill="none" xmlns="http://www.w3.org/2000/svg">
<path d="M142.731 314.308C149.823 338.244 158.688 362.18 171.099 384.344C176.418 394.095 181.738 403.847 191.489 410.053L196.809 412.712C210.993 415.372 218.972 403.847 224.291 394.095C231.383 377.251 237.589 360.407 242.908 342.677C243.794 339.131 244.681 336.471 245.567 332.925C247.34 326.719 249.113 320.514 250 314.308L312.943 145.868C326.241 128.138 343.085 113.953 362.589 104.202C381.206 93.5634 402.482 88.2443 424.645 88.2443C455.674 88.2443 486.702 98.8826 511.525 118.386C553.192 149.414 577.128 211.471 577.128 211.471C580.674 219.45 582.447 228.315 582.447 237.18C582.447 245.159 580.674 253.138 578.014 261.117C574.468 268.209 570.035 275.301 564.716 281.507C559.397 286.826 552.305 292.145 544.326 294.805C537.234 297.464 528.369 299.237 520.39 299.237C511.525 299.237 502.66 297.464 494.681 293.032C486.702 289.485 479.61 283.28 473.404 277.074C473.404 277.074 473.404 276.188 472.518 276.188C468.972 270.868 465.426 264.663 462.766 258.457C459.22 250.478 455.674 243.386 451.241 236.294C448.582 232.748 446.809 229.202 444.149 225.656C442.376 222.11 439.716 219.45 436.17 216.79C429.965 212.358 422.872 210.585 416.667 214.131L415.78 215.017C408.688 219.45 404.255 229.202 400.709 237.18C390.957 258.457 385.638 279.734 379.433 302.783L376.773 316.081L350.177 401.188L313.83 481.861C300.532 498.705 283.688 512.89 264.184 521.755C244.681 531.507 223.404 535.939 202.128 536.826C112.589 538.599 70.922 457.925 70.922 457.925C20.3901 374.592 5.31915 264.663 1.77305 229.202C0 221.223 0 216.79 0 216.79C0 206.152 2.65957 194.627 8.86525 185.762C14.1844 176.01 22.1631 168.031 31.9149 162.712C42.5532 157.393 53.1915 155.62 64.7163 155.62C75.3546 155.62 85.1064 159.166 94.8582 164.485C101.95 168.918 108.156 174.237 112.589 180.443C120.567 191.968 123.227 207.039 124.113 221.223C127.66 253.138 133.865 284.166 142.731 314.308Z" fill="url(#paint0_linear_11090_71458)"/>
<path d="M142.731 314.308C149.823 338.244 158.688 362.18 171.099 384.344C176.418 394.095 181.738 403.847 191.489 410.053L196.809 412.712C210.993 415.372 218.972 403.847 224.291 394.095C231.383 377.251 237.589 360.407 242.908 342.677C243.794 339.131 244.681 336.471 245.567 332.925C247.34 326.719 249.113 320.514 250 314.308L312.943 145.868C326.241 128.138 343.085 113.953 362.589 104.202C381.206 93.5634 402.482 88.2443 424.645 88.2443C455.674 88.2443 486.702 98.8826 511.525 118.386C553.192 149.414 577.128 211.471 577.128 211.471C580.674 219.45 582.447 228.315 582.447 237.18C582.447 245.159 580.674 253.138 578.014 261.117C574.468 268.209 570.035 275.301 564.716 281.507C559.397 286.826 552.305 292.145 544.326 294.805C537.234 297.464 528.369 299.237 520.39 299.237C511.525 299.237 502.66 297.464 494.681 293.032C486.702 289.485 479.61 283.28 473.404 277.074C473.404 277.074 473.404 276.188 472.518 276.188C468.972 270.868 465.426 264.663 462.766 258.457C459.22 250.478 455.674 243.386 451.241 236.294C448.582 232.748 446.809 229.202 444.149 225.656C442.376 222.11 439.716 219.45 436.17 216.79C429.965 212.358 422.872 210.585 416.667 214.131L415.78 215.017C408.688 219.45 404.255 229.202 400.709 237.18C390.957 258.457 385.638 279.734 379.433 302.783L376.773 316.081L350.177 401.188L313.83 481.861C300.532 498.705 283.688 512.89 264.184 521.755C244.681 531.507 223.404 535.939 202.128 536.826C112.589 538.599 70.922 457.925 70.922 457.925C20.3901 374.592 5.31915 264.663 1.77305 229.202C0 221.223 0 216.79 0 216.79C0 206.152 2.65957 194.627 8.86525 185.762C14.1844 176.01 22.1631 168.031 31.9149 162.712C42.5532 157.393 53.1915 155.62 64.7163 155.62C75.3546 155.62 85.1064 159.166 94.8582 164.485C101.95 168.918 108.156 174.237 112.589 180.443C120.567 191.968 123.227 207.039 124.113 221.223C127.66 253.138 133.865 284.166 142.731 314.308Z" fill="url(#paint1_radial_11090_71458)"/>
<path d="M142.731 314.308C149.823 338.244 158.688 362.18 171.099 384.344C176.418 394.095 181.738 403.847 191.489 410.053L196.809 412.712C210.993 415.372 218.972 403.847 224.291 394.095C231.383 377.251 237.589 360.407 242.908 342.677C243.794 339.131 244.681 336.471 245.567 332.925C247.34 326.719 249.113 320.514 250 314.308L312.943 145.868C326.241 128.138 343.085 113.953 362.589 104.202C381.206 93.5634 402.482 88.2443 424.645 88.2443C455.674 88.2443 486.702 98.8826 511.525 118.386C553.192 149.414 577.128 211.471 577.128 211.471C580.674 219.45 582.447 228.315 582.447 237.18C582.447 245.159 580.674 253.138 578.014 261.117C574.468 268.209 570.035 275.301 564.716 281.507C559.397 286.826 552.305 292.145 544.326 294.805C537.234 297.464 528.369 299.237 520.39 299.237C511.525 299.237 502.66 297.464 494.681 293.032C486.702 289.485 479.61 283.28 473.404 277.074C473.404 277.074 473.404 276.188 472.518 276.188C468.972 270.868 465.426 264.663 462.766 258.457C459.22 250.478 455.674 243.386 451.241 236.294C448.582 232.748 446.809 229.202 444.149 225.656C442.376 222.11 439.716 219.45 436.17 216.79C429.965 212.358 422.872 210.585 416.667 214.131L415.78 215.017C408.688 219.45 404.255 229.202 400.709 237.18C390.957 258.457 385.638 279.734 379.433 302.783L376.773 316.081L350.177 401.188L313.83 481.861C300.532 498.705 283.688 512.89 264.184 521.755C244.681 531.507 223.404 535.939 202.128 536.826C112.589 538.599 70.922 457.925 70.922 457.925C20.3901 374.592 5.31915 264.663 1.77305 229.202C0 221.223 0 216.79 0 216.79C0 206.152 2.65957 194.627 8.86525 185.762C14.1844 176.01 22.1631 168.031 31.9149 162.712C42.5532 157.393 53.1915 155.62 64.7163 155.62C75.3546 155.62 85.1064 159.166 94.8582 164.485C101.95 168.918 108.156 174.237 112.589 180.443C120.567 191.968 123.227 207.039 124.113 221.223C127.66 253.138 133.865 284.166 142.731 314.308Z" fill="url(#paint2_radial_11090_71458)"/>
<path d="M142.731 314.308C149.823 338.244 158.688 362.18 171.099 384.344C176.418 394.095 181.738 403.847 191.489 410.053L196.809 412.712C210.993 415.372 218.972 403.847 224.291 394.095C231.383 377.251 237.589 360.407 242.908 342.677C243.794 339.131 244.681 336.471 245.567 332.925C247.34 326.719 249.113 320.514 250 314.308L312.943 145.868C326.241 128.138 343.085 113.953 362.589 104.202C381.206 93.5634 402.482 88.2443 424.645 88.2443C455.674 88.2443 486.702 98.8826 511.525 118.386C553.192 149.414 577.128 211.471 577.128 211.471C580.674 219.45 582.447 228.315 582.447 237.18C582.447 245.159 580.674 253.138 578.014 261.117C574.468 268.209 570.035 275.301 564.716 281.507C559.397 286.826 552.305 292.145 544.326 294.805C537.234 297.464 528.369 299.237 520.39 299.237C511.525 299.237 502.66 297.464 494.681 293.032C486.702 289.485 479.61 283.28 473.404 277.074C473.404 277.074 473.404 276.188 472.518 276.188C468.972 270.868 465.426 264.663 462.766 258.457C459.22 250.478 455.674 243.386 451.241 236.294C448.582 232.748 446.809 229.202 444.149 225.656C442.376 222.11 439.716 219.45 436.17 216.79C429.965 212.358 422.872 210.585 416.667 214.131L415.78 215.017C408.688 219.45 404.255 229.202 400.709 237.18C390.957 258.457 385.638 279.734 379.433 302.783L376.773 316.081L350.177 401.188L313.83 481.861C300.532 498.705 283.688 512.89 264.184 521.755C244.681 531.507 223.404 535.939 202.128 536.826C112.589 538.599 70.922 457.925 70.922 457.925C20.3901 374.592 5.31915 264.663 1.77305 229.202C0 221.223 0 216.79 0 216.79C0 206.152 2.65957 194.627 8.86525 185.762C14.1844 176.01 22.1631 168.031 31.9149 162.712C42.5532 157.393 53.1915 155.62 64.7163 155.62C75.3546 155.62 85.1064 159.166 94.8582 164.485C101.95 168.918 108.156 174.237 112.589 180.443C120.567 191.968 123.227 207.039 124.113 221.223C127.66 253.138 133.865 284.166 142.731 314.308Z" fill="url(#paint3_radial_11090_71458)"/>
<path d="M142.731 314.308C149.823 338.244 158.688 362.18 171.099 384.344C176.418 394.095 181.738 403.847 191.489 410.053L196.809 412.712C210.993 415.372 218.972 403.847 224.291 394.095C231.383 377.251 237.589 360.407 242.908 342.677C243.794 339.131 244.681 336.471 245.567 332.925C247.34 326.719 249.113 320.514 250 314.308L312.943 145.868C326.241 128.138 343.085 113.953 362.589 104.202C381.206 93.5634 402.482 88.2443 424.645 88.2443C455.674 88.2443 486.702 98.8826 511.525 118.386C553.192 149.414 577.128 211.471 577.128 211.471C580.674 219.45 582.447 228.315 582.447 237.18C582.447 245.159 580.674 253.138 578.014 261.117C574.468 268.209 570.035 275.301 564.716 281.507C559.397 286.826 552.305 292.145 544.326 294.805C537.234 297.464 528.369 299.237 520.39 299.237C511.525 299.237 502.66 297.464 494.681 293.032C486.702 289.485 479.61 283.28 473.404 277.074C473.404 277.074 473.404 276.188 472.518 276.188C468.972 270.868 465.426 264.663 462.766 258.457C459.22 250.478 455.674 243.386 451.241 236.294C448.582 232.748 446.809 229.202 444.149 225.656C442.376 222.11 439.716 219.45 436.17 216.79C429.965 212.358 422.872 210.585 416.667 214.131L415.78 215.017C408.688 219.45 404.255 229.202 400.709 237.18C390.957 258.457 385.638 279.734 379.433 302.783L376.773 316.081L350.177 401.188L313.83 481.861C300.532 498.705 283.688 512.89 264.184 521.755C244.681 531.507 223.404 535.939 202.128 536.826C112.589 538.599 70.922 457.925 70.922 457.925C20.3901 374.592 5.31915 264.663 1.77305 229.202C0 221.223 0 216.79 0 216.79C0 206.152 2.65957 194.627 8.86525 185.762C14.1844 176.01 22.1631 168.031 31.9149 162.712C42.5532 157.393 53.1915 155.62 64.7163 155.62C75.3546 155.62 85.1064 159.166 94.8582 164.485C101.95 168.918 108.156 174.237 112.589 180.443C120.567 191.968 123.227 207.039 124.113 221.223C127.66 253.138 133.865 284.166 142.731 314.308Z" fill="url(#paint4_radial_11090_71458)"/>
<path d="M142.731 314.308C149.823 338.244 158.688 362.18 171.099 384.344C176.418 394.095 181.738 403.847 191.489 410.053L196.809 412.712C210.993 415.372 218.972 403.847 224.291 394.095C231.383 377.251 237.589 360.407 242.908 342.677C243.794 339.131 244.681 336.471 245.567 332.925C247.34 326.719 249.113 320.514 250 314.308L312.943 145.868C326.241 128.138 343.085 113.953 362.589 104.202C381.206 93.5634 402.482 88.2443 424.645 88.2443C455.674 88.2443 486.702 98.8826 511.525 118.386C553.192 149.414 577.128 211.471 577.128 211.471C580.674 219.45 582.447 228.315 582.447 237.18C582.447 245.159 580.674 253.138 578.014 261.117C574.468 268.209 570.035 275.301 564.716 281.507C559.397 286.826 552.305 292.145 544.326 294.805C537.234 297.464 528.369 299.237 520.39 299.237C511.525 299.237 502.66 297.464 494.681 293.032C486.702 289.485 479.61 283.28 473.404 277.074C473.404 277.074 473.404 276.188 472.518 276.188C468.972 270.868 465.426 264.663 462.766 258.457C459.22 250.478 455.674 243.386 451.241 236.294C448.582 232.748 446.809 229.202 444.149 225.656C442.376 222.11 439.716 219.45 436.17 216.79C429.965 212.358 422.872 210.585 416.667 214.131L415.78 215.017C408.688 219.45 404.255 229.202 400.709 237.18C390.957 258.457 385.638 279.734 379.433 302.783L376.773 316.081L350.177 401.188L313.83 481.861C300.532 498.705 283.688 512.89 264.184 521.755C244.681 531.507 223.404 535.939 202.128 536.826C112.589 538.599 70.922 457.925 70.922 457.925C20.3901 374.592 5.31915 264.663 1.77305 229.202C0 221.223 0 216.79 0 216.79C0 206.152 2.65957 194.627 8.86525 185.762C14.1844 176.01 22.1631 168.031 31.9149 162.712C42.5532 157.393 53.1915 155.62 64.7163 155.62C75.3546 155.62 85.1064 159.166 94.8582 164.485C101.95 168.918 108.156 174.237 112.589 180.443C120.567 191.968 123.227 207.039 124.113 221.223C127.66 253.138 133.865 284.166 142.731 314.308Z" fill="url(#paint5_radial_11090_71458)"/>
<path d="M142.731 314.308C149.823 338.244 158.688 362.18 171.099 384.344C176.418 394.095 181.738 403.847 191.489 410.053L196.809 412.712C210.993 415.372 218.972 403.847 224.291 394.095C231.383 377.251 237.589 360.407 242.908 342.677C243.794 339.131 244.681 336.471 245.567 332.925C247.34 326.719 249.113 320.514 250 314.308L312.943 145.868C326.241 128.138 343.085 113.953 362.589 104.202C381.206 93.5634 402.482 88.2443 424.645 88.2443C455.674 88.2443 486.702 98.8826 511.525 118.386C553.192 149.414 577.128 211.471 577.128 211.471C580.674 219.45 582.447 228.315 582.447 237.18C582.447 245.159 580.674 253.138 578.014 261.117C574.468 268.209 570.035 275.301 564.716 281.507C559.397 286.826 552.305 292.145 544.326 294.805C537.234 297.464 528.369 299.237 520.39 299.237C511.525 299.237 502.66 297.464 494.681 293.032C486.702 289.485 479.61 283.28 473.404 277.074C473.404 277.074 473.404 276.188 472.518 276.188C468.972 270.868 465.426 264.663 462.766 258.457C459.22 250.478 455.674 243.386 451.241 236.294C448.582 232.748 446.809 229.202 444.149 225.656C442.376 222.11 439.716 219.45 436.17 216.79C429.965 212.358 422.872 210.585 416.667 214.131L415.78 215.017C408.688 219.45 404.255 229.202 400.709 237.18C390.957 258.457 385.638 279.734 379.433 302.783L376.773 316.081L350.177 401.188L313.83 481.861C300.532 498.705 283.688 512.89 264.184 521.755C244.681 531.507 223.404 535.939 202.128 536.826C112.589 538.599 70.922 457.925 70.922 457.925C20.3901 374.592 5.31915 264.663 1.77305 229.202C0 221.223 0 216.79 0 216.79C0 206.152 2.65957 194.627 8.86525 185.762C14.1844 176.01 22.1631 168.031 31.9149 162.712C42.5532 157.393 53.1915 155.62 64.7163 155.62C75.3546 155.62 85.1064 159.166 94.8582 164.485C101.95 168.918 108.156 174.237 112.589 180.443C120.567 191.968 123.227 207.039 124.113 221.223C127.66 253.138 133.865 284.166 142.731 314.308Z" fill="url(#paint6_radial_11090_71458)"/>
<path d="M142.731 314.308C149.823 338.244 158.688 362.18 171.099 384.344C176.418 394.095 181.738 403.847 191.489 410.053L196.809 412.712C210.993 415.372 218.972 403.847 224.291 394.095C231.383 377.251 237.589 360.407 242.908 342.677C243.794 339.131 244.681 336.471 245.567 332.925C247.34 326.719 249.113 320.514 250 314.308L312.943 145.868C326.241 128.138 343.085 113.953 362.589 104.202C381.206 93.5634 402.482 88.2443 424.645 88.2443C455.674 88.2443 486.702 98.8826 511.525 118.386C553.192 149.414 577.128 211.471 577.128 211.471C580.674 219.45 582.447 228.315 582.447 237.18C582.447 245.159 580.674 253.138 578.014 261.117C574.468 268.209 570.035 275.301 564.716 281.507C559.397 286.826 552.305 292.145 544.326 294.805C537.234 297.464 528.369 299.237 520.39 299.237C511.525 299.237 502.66 297.464 494.681 293.032C486.702 289.485 479.61 283.28 473.404 277.074C473.404 277.074 473.404 276.188 472.518 276.188C468.972 270.868 465.426 264.663 462.766 258.457C459.22 250.478 455.674 243.386 451.241 236.294C448.582 232.748 446.809 229.202 444.149 225.656C442.376 222.11 439.716 219.45 436.17 216.79C429.965 212.358 422.872 210.585 416.667 214.131L415.78 215.017C408.688 219.45 404.255 229.202 400.709 237.18C390.957 258.457 385.638 279.734 379.433 302.783L376.773 316.081L350.177 401.188L313.83 481.861C300.532 498.705 283.688 512.89 264.184 521.755C244.681 531.507 223.404 535.939 202.128 536.826C112.589 538.599 70.922 457.925 70.922 457.925C20.3901 374.592 5.31915 264.663 1.77305 229.202C0 221.223 0 216.79 0 216.79C0 206.152 2.65957 194.627 8.86525 185.762C14.1844 176.01 22.1631 168.031 31.9149 162.712C42.5532 157.393 53.1915 155.62 64.7163 155.62C75.3546 155.62 85.1064 159.166 94.8582 164.485C101.95 168.918 108.156 174.237 112.589 180.443C120.567 191.968 123.227 207.039 124.113 221.223C127.66 253.138 133.865 284.166 142.731 314.308Z" fill="url(#paint7_radial_11090_71458)"/>
<path d="M142.731 314.308C149.823 338.244 158.688 362.18 171.099 384.344C176.418 394.095 181.738 403.847 191.489 410.053L196.809 412.712C210.993 415.372 218.972 403.847 224.291 394.095C231.383 377.251 237.589 360.407 242.908 342.677C243.794 339.131 244.681 336.471 245.567 332.925C247.34 326.719 249.113 320.514 250 314.308L312.943 145.868C326.241 128.138 343.085 113.953 362.589 104.202C381.206 93.5634 402.482 88.2443 424.645 88.2443C455.674 88.2443 486.702 98.8826 511.525 118.386C553.192 149.414 577.128 211.471 577.128 211.471C580.674 219.45 582.447 228.315 582.447 237.18C582.447 245.159 580.674 253.138 578.014 261.117C574.468 268.209 570.035 275.301 564.716 281.507C559.397 286.826 552.305 292.145 544.326 294.805C537.234 297.464 528.369 299.237 520.39 299.237C511.525 299.237 502.66 297.464 494.681 293.032C486.702 289.485 479.61 283.28 473.404 277.074C473.404 277.074 473.404 276.188 472.518 276.188C468.972 270.868 465.426 264.663 462.766 258.457C459.22 250.478 455.674 243.386 451.241 236.294C448.582 232.748 446.809 229.202 444.149 225.656C442.376 222.11 439.716 219.45 436.17 216.79C429.965 212.358 422.872 210.585 416.667 214.131L415.78 215.017C408.688 219.45 404.255 229.202 400.709 237.18C390.957 258.457 385.638 279.734 379.433 302.783L376.773 316.081L350.177 401.188L313.83 481.861C300.532 498.705 283.688 512.89 264.184 521.755C244.681 531.507 223.404 535.939 202.128 536.826C112.589 538.599 70.922 457.925 70.922 457.925C20.3901 374.592 5.31915 264.663 1.77305 229.202C0 221.223 0 216.79 0 216.79C0 206.152 2.65957 194.627 8.86525 185.762C14.1844 176.01 22.1631 168.031 31.9149 162.712C42.5532 157.393 53.1915 155.62 64.7163 155.62C75.3546 155.62 85.1064 159.166 94.8582 164.485C101.95 168.918 108.156 174.237 112.589 180.443C120.567 191.968 123.227 207.039 124.113 221.223C127.66 253.138 133.865 284.166 142.731 314.308Z" fill="url(#paint8_radial_11090_71458)"/>
<path d="M142.731 314.308C149.823 338.244 158.688 362.18 171.099 384.344C176.418 394.095 181.738 403.847 191.489 410.053L196.809 412.712C210.993 415.372 218.972 403.847 224.291 394.095C231.383 377.251 237.589 360.407 242.908 342.677C243.794 339.131 244.681 336.471 245.567 332.925C247.34 326.719 249.113 320.514 250 314.308L312.943 145.868C326.241 128.138 343.085 113.953 362.589 104.202C381.206 93.5634 402.482 88.2443 424.645 88.2443C455.674 88.2443 486.702 98.8826 511.525 118.386C553.192 149.414 577.128 211.471 577.128 211.471C580.674 219.45 582.447 228.315 582.447 237.18C582.447 245.159 580.674 253.138 578.014 261.117C574.468 268.209 570.035 275.301 564.716 281.507C559.397 286.826 552.305 292.145 544.326 294.805C537.234 297.464 528.369 299.237 520.39 299.237C511.525 299.237 502.66 297.464 494.681 293.032C486.702 289.485 479.61 283.28 473.404 277.074C473.404 277.074 473.404 276.188 472.518 276.188C468.972 270.868 465.426 264.663 462.766 258.457C459.22 250.478 455.674 243.386 451.241 236.294C448.582 232.748 446.809 229.202 444.149 225.656C442.376 222.11 439.716 219.45 436.17 216.79C429.965 212.358 422.872 210.585 416.667 214.131L415.78 215.017C408.688 219.45 404.255 229.202 400.709 237.18C390.957 258.457 385.638 279.734 379.433 302.783L376.773 316.081L350.177 401.188L313.83 481.861C300.532 498.705 283.688 512.89 264.184 521.755C244.681 531.507 223.404 535.939 202.128 536.826C112.589 538.599 70.922 457.925 70.922 457.925C20.3901 374.592 5.31915 264.663 1.77305 229.202C0 221.223 0 216.79 0 216.79C0 206.152 2.65957 194.627 8.86525 185.762C14.1844 176.01 22.1631 168.031 31.9149 162.712C42.5532 157.393 53.1915 155.62 64.7163 155.62C75.3546 155.62 85.1064 159.166 94.8582 164.485C101.95 168.918 108.156 174.237 112.589 180.443C120.567 191.968 123.227 207.039 124.113 221.223C127.66 253.138 133.865 284.166 142.731 314.308Z" fill="url(#paint9_radial_11090_71458)"/>
<path d="M142.731 314.308C149.823 338.244 158.688 362.18 171.099 384.344C176.418 394.095 181.738 403.847 191.489 410.053L196.809 412.712C210.993 415.372 218.972 403.847 224.291 394.095C231.383 377.251 237.589 360.407 242.908 342.677C243.794 339.131 244.681 336.471 245.567 332.925C247.34 326.719 249.113 320.514 250 314.308L312.943 145.868C326.241 128.138 343.085 113.953 362.589 104.202C381.206 93.5634 402.482 88.2443 424.645 88.2443C455.674 88.2443 486.702 98.8826 511.525 118.386C553.192 149.414 577.128 211.471 577.128 211.471C580.674 219.45 582.447 228.315 582.447 237.18C582.447 245.159 580.674 253.138 578.014 261.117C574.468 268.209 570.035 275.301 564.716 281.507C559.397 286.826 552.305 292.145 544.326 294.805C537.234 297.464 528.369 299.237 520.39 299.237C511.525 299.237 502.66 297.464 494.681 293.032C486.702 289.485 479.61 283.28 473.404 277.074C473.404 277.074 473.404 276.188 472.518 276.188C468.972 270.868 465.426 264.663 462.766 258.457C459.22 250.478 455.674 243.386 451.241 236.294C448.582 232.748 446.809 229.202 444.149 225.656C442.376 222.11 439.716 219.45 436.17 216.79C429.965 212.358 422.872 210.585 416.667 214.131L415.78 215.017C408.688 219.45 404.255 229.202 400.709 237.18C390.957 258.457 385.638 279.734 379.433 302.783L376.773 316.081L350.177 401.188L313.83 481.861C300.532 498.705 283.688 512.89 264.184 521.755C244.681 531.507 223.404 535.939 202.128 536.826C112.589 538.599 70.922 457.925 70.922 457.925C20.3901 374.592 5.31915 264.663 1.77305 229.202C0 221.223 0 216.79 0 216.79C0 206.152 2.65957 194.627 8.86525 185.762C14.1844 176.01 22.1631 168.031 31.9149 162.712C42.5532 157.393 53.1915 155.62 64.7163 155.62C75.3546 155.62 85.1064 159.166 94.8582 164.485C101.95 168.918 108.156 174.237 112.589 180.443C120.567 191.968 123.227 207.039 124.113 221.223C127.66 253.138 133.865 284.166 142.731 314.308Z" fill="url(#paint10_radial_11090_71458)"/>
<path d="M142.731 314.308C149.823 338.244 158.688 362.18 171.099 384.344C176.418 394.095 181.738 403.847 191.489 410.053L196.809 412.712C210.993 415.372 218.972 403.847 224.291 394.095C231.383 377.251 237.589 360.407 242.908 342.677C243.794 339.131 244.681 336.471 245.567 332.925C247.34 326.719 249.113 320.514 250 314.308L312.943 145.868C326.241 128.138 343.085 113.953 362.589 104.202C381.206 93.5634 402.482 88.2443 424.645 88.2443C455.674 88.2443 486.702 98.8826 511.525 118.386C553.192 149.414 577.128 211.471 577.128 211.471C580.674 219.45 582.447 228.315 582.447 237.18C582.447 245.159 580.674 253.138 578.014 261.117C574.468 268.209 570.035 275.301 564.716 281.507C559.397 286.826 552.305 292.145 544.326 294.805C537.234 297.464 528.369 299.237 520.39 299.237C511.525 299.237 502.66 297.464 494.681 293.032C486.702 289.485 479.61 283.28 473.404 277.074C473.404 277.074 473.404 276.188 472.518 276.188C468.972 270.868 465.426 264.663 462.766 258.457C459.22 250.478 455.674 243.386 451.241 236.294C448.582 232.748 446.809 229.202 444.149 225.656C442.376 222.11 439.716 219.45 436.17 216.79C429.965 212.358 422.872 210.585 416.667 214.131L415.78 215.017C408.688 219.45 404.255 229.202 400.709 237.18C390.957 258.457 385.638 279.734 379.433 302.783L376.773 316.081L350.177 401.188L313.83 481.861C300.532 498.705 283.688 512.89 264.184 521.755C244.681 531.507 223.404 535.939 202.128 536.826C112.589 538.599 70.922 457.925 70.922 457.925C20.3901 374.592 5.31915 264.663 1.77305 229.202C0 221.223 0 216.79 0 216.79C0 206.152 2.65957 194.627 8.86525 185.762C14.1844 176.01 22.1631 168.031 31.9149 162.712C42.5532 157.393 53.1915 155.62 64.7163 155.62C75.3546 155.62 85.1064 159.166 94.8582 164.485C101.95 168.918 108.156 174.237 112.589 180.443C120.567 191.968 123.227 207.039 124.113 221.223C127.66 253.138 133.865 284.166 142.731 314.308Z" fill="url(#paint11_radial_11090_71458)"/>
<path d="M142.731 314.308C149.823 338.244 158.688 362.18 171.099 384.344C176.418 394.095 181.738 403.847 191.489 410.053L196.809 412.712C210.993 415.372 218.972 403.847 224.291 394.095C231.383 377.251 237.589 360.407 242.908 342.677C243.794 339.131 244.681 336.471 245.567 332.925C247.34 326.719 249.113 320.514 250 314.308L312.943 145.868C326.241 128.138 343.085 113.953 362.589 104.202C381.206 93.5634 402.482 88.2443 424.645 88.2443C455.674 88.2443 486.702 98.8826 511.525 118.386C553.192 149.414 577.128 211.471 577.128 211.471C580.674 219.45 582.447 228.315 582.447 237.18C582.447 245.159 580.674 253.138 578.014 261.117C574.468 268.209 570.035 275.301 564.716 281.507C559.397 286.826 552.305 292.145 544.326 294.805C537.234 297.464 528.369 299.237 520.39 299.237C511.525 299.237 502.66 297.464 494.681 293.032C486.702 289.485 479.61 283.28 473.404 277.074C473.404 277.074 473.404 276.188 472.518 276.188C468.972 270.868 465.426 264.663 462.766 258.457C459.22 250.478 455.674 243.386 451.241 236.294C448.582 232.748 446.809 229.202 444.149 225.656C442.376 222.11 439.716 219.45 436.17 216.79C429.965 212.358 422.872 210.585 416.667 214.131L415.78 215.017C408.688 219.45 404.255 229.202 400.709 237.18C390.957 258.457 385.638 279.734 379.433 302.783L376.773 316.081L350.177 401.188L313.83 481.861C300.532 498.705 283.688 512.89 264.184 521.755C244.681 531.507 223.404 535.939 202.128 536.826C112.589 538.599 70.922 457.925 70.922 457.925C20.3901 374.592 5.31915 264.663 1.77305 229.202C0 221.223 0 216.79 0 216.79C0 206.152 2.65957 194.627 8.86525 185.762C14.1844 176.01 22.1631 168.031 31.9149 162.712C42.5532 157.393 53.1915 155.62 64.7163 155.62C75.3546 155.62 85.1064 159.166 94.8582 164.485C101.95 168.918 108.156 174.237 112.589 180.443C120.567 191.968 123.227 207.039 124.113 221.223C127.66 253.138 133.865 284.166 142.731 314.308Z" fill="url(#paint12_radial_11090_71458)"/>
<path d="M142.731 314.308C149.823 338.244 158.688 362.18 171.099 384.344C176.418 394.095 181.738 403.847 191.489 410.053L196.809 412.712C210.993 415.372 218.972 403.847 224.291 394.095C231.383 377.251 237.589 360.407 242.908 342.677C243.794 339.131 244.681 336.471 245.567 332.925C247.34 326.719 249.113 320.514 250 314.308L312.943 145.868C326.241 128.138 343.085 113.953 362.589 104.202C381.206 93.5634 402.482 88.2443 424.645 88.2443C455.674 88.2443 486.702 98.8826 511.525 118.386C553.192 149.414 577.128 211.471 577.128 211.471C580.674 219.45 582.447 228.315 582.447 237.18C582.447 245.159 580.674 253.138 578.014 261.117C574.468 268.209 570.035 275.301 564.716 281.507C559.397 286.826 552.305 292.145 544.326 294.805C537.234 297.464 528.369 299.237 520.39 299.237C511.525 299.237 502.66 297.464 494.681 293.032C486.702 289.485 479.61 283.28 473.404 277.074C473.404 277.074 473.404 276.188 472.518 276.188C468.972 270.868 465.426 264.663 462.766 258.457C459.22 250.478 455.674 243.386 451.241 236.294C448.582 232.748 446.809 229.202 444.149 225.656C442.376 222.11 439.716 219.45 436.17 216.79C429.965 212.358 422.872 210.585 416.667 214.131L415.78 215.017C408.688 219.45 404.255 229.202 400.709 237.18C390.957 258.457 385.638 279.734 379.433 302.783L376.773 316.081L350.177 401.188L313.83 481.861C300.532 498.705 283.688 512.89 264.184 521.755C244.681 531.507 223.404 535.939 202.128 536.826C112.589 538.599 70.922 457.925 70.922 457.925C20.3901 374.592 5.31915 264.663 1.77305 229.202C0 221.223 0 216.79 0 216.79C0 206.152 2.65957 194.627 8.86525 185.762C14.1844 176.01 22.1631 168.031 31.9149 162.712C42.5532 157.393 53.1915 155.62 64.7163 155.62C75.3546 155.62 85.1064 159.166 94.8582 164.485C101.95 168.918 108.156 174.237 112.589 180.443C120.567 191.968 123.227 207.039 124.113 221.223C127.66 253.138 133.865 284.166 142.731 314.308Z" fill="url(#paint13_radial_11090_71458)"/>
<path d="M142.731 314.308C149.823 338.244 158.688 362.18 171.099 384.344C176.418 394.095 181.738 403.847 191.489 410.053L196.809 412.712C210.993 415.372 218.972 403.847 224.291 394.095C231.383 377.251 237.589 360.407 242.908 342.677C243.794 339.131 244.681 336.471 245.567 332.925C247.34 326.719 249.113 320.514 250 314.308L312.943 145.868C326.241 128.138 343.085 113.953 362.589 104.202C381.206 93.5634 402.482 88.2443 424.645 88.2443C455.674 88.2443 486.702 98.8826 511.525 118.386C553.192 149.414 577.128 211.471 577.128 211.471C580.674 219.45 582.447 228.315 582.447 237.18C582.447 245.159 580.674 253.138 578.014 261.117C574.468 268.209 570.035 275.301 564.716 281.507C559.397 286.826 552.305 292.145 544.326 294.805C537.234 297.464 528.369 299.237 520.39 299.237C511.525 299.237 502.66 297.464 494.681 293.032C486.702 289.485 479.61 283.28 473.404 277.074C473.404 277.074 473.404 276.188 472.518 276.188C468.972 270.868 465.426 264.663 462.766 258.457C459.22 250.478 455.674 243.386 451.241 236.294C448.582 232.748 446.809 229.202 444.149 225.656C442.376 222.11 439.716 219.45 436.17 216.79C429.965 212.358 422.872 210.585 416.667 214.131L415.78 215.017C408.688 219.45 404.255 229.202 400.709 237.18C390.957 258.457 385.638 279.734 379.433 302.783L376.773 316.081L350.177 401.188L313.83 481.861C300.532 498.705 283.688 512.89 264.184 521.755C244.681 531.507 223.404 535.939 202.128 536.826C112.589 538.599 70.922 457.925 70.922 457.925C20.3901 374.592 5.31915 264.663 1.77305 229.202C0 221.223 0 216.79 0 216.79C0 206.152 2.65957 194.627 8.86525 185.762C14.1844 176.01 22.1631 168.031 31.9149 162.712C42.5532 157.393 53.1915 155.62 64.7163 155.62C75.3546 155.62 85.1064 159.166 94.8582 164.485C101.95 168.918 108.156 174.237 112.589 180.443C120.567 191.968 123.227 207.039 124.113 221.223C127.66 253.138 133.865 284.166 142.731 314.308Z" fill="url(#paint14_radial_11090_71458)"/>
<path d="M142.731 314.308C149.823 338.244 158.688 362.18 171.099 384.344C176.418 394.095 181.738 403.847 191.489 410.053L196.809 412.712C210.993 415.372 218.972 403.847 224.291 394.095C231.383 377.251 237.589 360.407 242.908 342.677C243.794 339.131 244.681 336.471 245.567 332.925C247.34 326.719 249.113 320.514 250 314.308L312.943 145.868C326.241 128.138 343.085 113.953 362.589 104.202C381.206 93.5634 402.482 88.2443 424.645 88.2443C455.674 88.2443 486.702 98.8826 511.525 118.386C553.192 149.414 577.128 211.471 577.128 211.471C580.674 219.45 582.447 228.315 582.447 237.18C582.447 245.159 580.674 253.138 578.014 261.117C574.468 268.209 570.035 275.301 564.716 281.507C559.397 286.826 552.305 292.145 544.326 294.805C537.234 297.464 528.369 299.237 520.39 299.237C511.525 299.237 502.66 297.464 494.681 293.032C486.702 289.485 479.61 283.28 473.404 277.074C473.404 277.074 473.404 276.188 472.518 276.188C468.972 270.868 465.426 264.663 462.766 258.457C459.22 250.478 455.674 243.386 451.241 236.294C448.582 232.748 446.809 229.202 444.149 225.656C442.376 222.11 439.716 219.45 436.17 216.79C429.965 212.358 422.872 210.585 416.667 214.131L415.78 215.017C408.688 219.45 404.255 229.202 400.709 237.18C390.957 258.457 385.638 279.734 379.433 302.783L376.773 316.081L350.177 401.188L313.83 481.861C300.532 498.705 283.688 512.89 264.184 521.755C244.681 531.507 223.404 535.939 202.128 536.826C112.589 538.599 70.922 457.925 70.922 457.925C20.3901 374.592 5.31915 264.663 1.77305 229.202C0 221.223 0 216.79 0 216.79C0 206.152 2.65957 194.627 8.86525 185.762C14.1844 176.01 22.1631 168.031 31.9149 162.712C42.5532 157.393 53.1915 155.62 64.7163 155.62C75.3546 155.62 85.1064 159.166 94.8582 164.485C101.95 168.918 108.156 174.237 112.589 180.443C120.567 191.968 123.227 207.039 124.113 221.223C127.66 253.138 133.865 284.166 142.731 314.308Z" fill="url(#paint15_radial_11090_71458)"/>
<path d="M142.731 314.308C149.823 338.244 158.688 362.18 171.099 384.344C176.418 394.095 181.738 403.847 191.489 410.053L196.809 412.712C210.993 415.372 218.972 403.847 224.291 394.095C231.383 377.251 237.589 360.407 242.908 342.677C243.794 339.131 244.681 336.471 245.567 332.925C247.34 326.719 249.113 320.514 250 314.308L312.943 145.868C326.241 128.138 343.085 113.953 362.589 104.202C381.206 93.5634 402.482 88.2443 424.645 88.2443C455.674 88.2443 486.702 98.8826 511.525 118.386C553.192 149.414 577.128 211.471 577.128 211.471C580.674 219.45 582.447 228.315 582.447 237.18C582.447 245.159 580.674 253.138 578.014 261.117C574.468 268.209 570.035 275.301 564.716 281.507C559.397 286.826 552.305 292.145 544.326 294.805C537.234 297.464 528.369 299.237 520.39 299.237C511.525 299.237 502.66 297.464 494.681 293.032C486.702 289.485 479.61 283.28 473.404 277.074C473.404 277.074 473.404 276.188 472.518 276.188C468.972 270.868 465.426 264.663 462.766 258.457C459.22 250.478 455.674 243.386 451.241 236.294C448.582 232.748 446.809 229.202 444.149 225.656C442.376 222.11 439.716 219.45 436.17 216.79C429.965 212.358 422.872 210.585 416.667 214.131L415.78 215.017C408.688 219.45 404.255 229.202 400.709 237.18C390.957 258.457 385.638 279.734 379.433 302.783L376.773 316.081L350.177 401.188L313.83 481.861C300.532 498.705 283.688 512.89 264.184 521.755C244.681 531.507 223.404 535.939 202.128 536.826C112.589 538.599 70.922 457.925 70.922 457.925C20.3901 374.592 5.31915 264.663 1.77305 229.202C0 221.223 0 216.79 0 216.79C0 206.152 2.65957 194.627 8.86525 185.762C14.1844 176.01 22.1631 168.031 31.9149 162.712C42.5532 157.393 53.1915 155.62 64.7163 155.62C75.3546 155.62 85.1064 159.166 94.8582 164.485C101.95 168.918 108.156 174.237 112.589 180.443C120.567 191.968 123.227 207.039 124.113 221.223C127.66 253.138 133.865 284.166 142.731 314.308Z" fill="url(#paint16_linear_11090_71458)"/>
<path d="M142.731 314.308C149.823 338.244 158.688 362.18 171.099 384.344C176.418 394.095 181.738 403.847 191.489 410.053L196.809 412.712C210.993 415.372 218.972 403.847 224.291 394.095C231.383 377.251 237.589 360.407 242.908 342.677C243.794 339.131 244.681 336.471 245.567 332.925C247.34 326.719 249.113 320.514 250 314.308L312.943 145.868C326.241 128.138 343.085 113.953 362.589 104.202C381.206 93.5634 402.482 88.2443 424.645 88.2443C455.674 88.2443 486.702 98.8826 511.525 118.386C553.192 149.414 577.128 211.471 577.128 211.471C580.674 219.45 582.447 228.315 582.447 237.18C582.447 245.159 580.674 253.138 578.014 261.117C574.468 268.209 570.035 275.301 564.716 281.507C559.397 286.826 552.305 292.145 544.326 294.805C537.234 297.464 528.369 299.237 520.39 299.237C511.525 299.237 502.66 297.464 494.681 293.032C486.702 289.485 479.61 283.28 473.404 277.074C473.404 277.074 473.404 276.188 472.518 276.188C468.972 270.868 465.426 264.663 462.766 258.457C459.22 250.478 455.674 243.386 451.241 236.294C448.582 232.748 446.809 229.202 444.149 225.656C442.376 222.11 439.716 219.45 436.17 216.79C429.965 212.358 422.872 210.585 416.667 214.131L415.78 215.017C408.688 219.45 404.255 229.202 400.709 237.18C390.957 258.457 385.638 279.734 379.433 302.783L376.773 316.081L350.177 401.188L313.83 481.861C300.532 498.705 283.688 512.89 264.184 521.755C244.681 531.507 223.404 535.939 202.128 536.826C112.589 538.599 70.922 457.925 70.922 457.925C20.3901 374.592 5.31915 264.663 1.77305 229.202C0 221.223 0 216.79 0 216.79C0 206.152 2.65957 194.627 8.86525 185.762C14.1844 176.01 22.1631 168.031 31.9149 162.712C42.5532 157.393 53.1915 155.62 64.7163 155.62C75.3546 155.62 85.1064 159.166 94.8582 164.485C101.95 168.918 108.156 174.237 112.589 180.443C120.567 191.968 123.227 207.039 124.113 221.223C127.66 253.138 133.865 284.166 142.731 314.308Z" fill="url(#paint17_linear_11090_71458)"/>
<path d="M142.731 314.308C149.823 338.244 158.688 362.18 171.099 384.344C176.418 394.095 181.738 403.847 191.489 410.053L196.809 412.712C210.993 415.372 218.972 403.847 224.291 394.095C231.383 377.251 237.589 360.407 242.908 342.677C243.794 339.131 244.681 336.471 245.567 332.925C247.34 326.719 249.113 320.514 250 314.308L312.943 145.868C326.241 128.138 343.085 113.953 362.589 104.202C381.206 93.5634 402.482 88.2443 424.645 88.2443C455.674 88.2443 486.702 98.8826 511.525 118.386C553.192 149.414 577.128 211.471 577.128 211.471C580.674 219.45 582.447 228.315 582.447 237.18C582.447 245.159 580.674 253.138 578.014 261.117C574.468 268.209 570.035 275.301 564.716 281.507C559.397 286.826 552.305 292.145 544.326 294.805C537.234 297.464 528.369 299.237 520.39 299.237C511.525 299.237 502.66 297.464 494.681 293.032C486.702 289.485 479.61 283.28 473.404 277.074C473.404 277.074 473.404 276.188 472.518 276.188C468.972 270.868 465.426 264.663 462.766 258.457C459.22 250.478 455.674 243.386 451.241 236.294C448.582 232.748 446.809 229.202 444.149 225.656C442.376 222.11 439.716 219.45 436.17 216.79C429.965 212.358 422.872 210.585 416.667 214.131L415.78 215.017C408.688 219.45 404.255 229.202 400.709 237.18C390.957 258.457 385.638 279.734 379.433 302.783L376.773 316.081L350.177 401.188L313.83 481.861C300.532 498.705 283.688 512.89 264.184 521.755C244.681 531.507 223.404 535.939 202.128 536.826C112.589 538.599 70.922 457.925 70.922 457.925C20.3901 374.592 5.31915 264.663 1.77305 229.202C0 221.223 0 216.79 0 216.79C0 206.152 2.65957 194.627 8.86525 185.762C14.1844 176.01 22.1631 168.031 31.9149 162.712C42.5532 157.393 53.1915 155.62 64.7163 155.62C75.3546 155.62 85.1064 159.166 94.8582 164.485C101.95 168.918 108.156 174.237 112.589 180.443C120.567 191.968 123.227 207.039 124.113 221.223C127.66 253.138 133.865 284.166 142.731 314.308Z" fill="url(#paint18_linear_11090_71458)"/>
<path d="M142.731 314.308C149.823 338.244 158.688 362.18 171.099 384.344C176.418 394.095 181.738 403.847 191.489 410.053L196.809 412.712C210.993 415.372 218.972 403.847 224.291 394.095C231.383 377.251 237.589 360.407 242.908 342.677C243.794 339.131 244.681 336.471 245.567 332.925C247.34 326.719 249.113 320.514 250 314.308L312.943 145.868C326.241 128.138 343.085 113.953 362.589 104.202C381.206 93.5634 402.482 88.2443 424.645 88.2443C455.674 88.2443 486.702 98.8826 511.525 118.386C553.192 149.414 577.128 211.471 577.128 211.471C580.674 219.45 582.447 228.315 582.447 237.18C582.447 245.159 580.674 253.138 578.014 261.117C574.468 268.209 570.035 275.301 564.716 281.507C559.397 286.826 552.305 292.145 544.326 294.805C537.234 297.464 528.369 299.237 520.39 299.237C511.525 299.237 502.66 297.464 494.681 293.032C486.702 289.485 479.61 283.28 473.404 277.074C473.404 277.074 473.404 276.188 472.518 276.188C468.972 270.868 465.426 264.663 462.766 258.457C459.22 250.478 455.674 243.386 451.241 236.294C448.582 232.748 446.809 229.202 444.149 225.656C442.376 222.11 439.716 219.45 436.17 216.79C429.965 212.358 422.872 210.585 416.667 214.131L415.78 215.017C408.688 219.45 404.255 229.202 400.709 237.18C390.957 258.457 385.638 279.734 379.433 302.783L376.773 316.081L350.177 401.188L313.83 481.861C300.532 498.705 283.688 512.89 264.184 521.755C244.681 531.507 223.404 535.939 202.128 536.826C112.589 538.599 70.922 457.925 70.922 457.925C20.3901 374.592 5.31915 264.663 1.77305 229.202C0 221.223 0 216.79 0 216.79C0 206.152 2.65957 194.627 8.86525 185.762C14.1844 176.01 22.1631 168.031 31.9149 162.712C42.5532 157.393 53.1915 155.62 64.7163 155.62C75.3546 155.62 85.1064 159.166 94.8582 164.485C101.95 168.918 108.156 174.237 112.589 180.443C120.567 191.968 123.227 207.039 124.113 221.223C127.66 253.138 133.865 284.166 142.731 314.308Z" fill="url(#paint19_linear_11090_71458)"/>
<path d="M272.163 251.365L312.057 144.095C325.355 126.365 342.199 112.18 361.702 102.429C381.206 93.5634 402.482 88.2443 424.645 88.2443C455.674 88.2443 486.702 98.8826 511.525 118.386C553.191 149.414 577.128 211.471 577.128 211.471C580.674 219.45 582.447 228.315 582.447 237.18C582.447 245.159 580.674 253.138 578.014 261.117C574.468 268.209 570.035 275.301 564.716 281.507C559.397 286.826 552.305 292.145 544.326 294.805C537.234 297.464 528.369 299.237 520.39 299.237C511.525 299.237 502.66 297.464 494.681 293.032C486.702 289.485 479.61 283.28 473.404 277.074C473.404 277.074 473.404 276.188 472.518 276.188C468.972 270.868 465.426 264.663 462.766 258.457C459.22 250.478 455.674 243.386 451.241 236.294C448.582 232.748 446.808 229.202 444.149 225.656C442.376 222.11 439.716 219.45 436.17 216.79C429.965 212.358 422.872 210.585 416.667 214.131L415.78 215.017C408.688 219.45 404.255 229.202 400.709 237.18C390.957 258.457 385.638 279.734 379.433 302.783L376.773 316.081L350.177 401.188L272.163 251.365Z" fill="url(#paint20_linear_11090_71458)"/>
<path d="M562.944 155.62C557.625 155.62 552.305 156.507 547.873 157.393C559.398 174.237 569.149 191.968 577.128 210.585C580.674 218.563 582.447 227.429 582.447 236.294C582.447 244.273 580.674 252.251 578.015 260.23C574.469 267.322 570.036 274.415 564.717 280.62C559.398 286.826 552.305 291.258 544.327 293.918C537.235 296.578 528.369 298.351 520.391 298.351C509.752 298.351 498.227 295.691 489.362 289.485L483.157 313.422C471.632 352.429 463.653 366.613 463.653 366.613C459.22 377.251 453.901 387.003 447.696 396.755C443.263 402.961 437.944 409.166 430.852 411.826C428.192 412.712 425.532 412.712 422.873 412.712C420.213 412.712 417.554 411.826 414.894 410.053C410.461 406.507 406.029 401.188 403.369 395.868C399.823 389.663 397.164 383.457 394.504 377.251C389.185 363.954 380.32 331.152 380.32 331.152L371.454 296.578L362.589 262.003L356.383 238.954C340.426 179.556 317.376 150.301 317.376 150.301C299.646 124.592 273.937 105.975 244.681 95.3365C210.993 82.9251 175.532 90.0173 175.532 90.0173C119.681 100.656 90.426 138.776 78.0146 157.393C84.2203 159.166 89.5395 160.939 94.8586 164.485C101.951 168.918 108.156 174.237 112.589 180.443C120.568 191.968 123.227 207.039 124.114 221.223C127.66 252.251 133.866 282.393 141.844 312.535C160.461 249.592 183.511 220.336 183.511 220.336C186.171 216.79 188.83 214.131 192.376 212.358C194.149 211.471 195.922 210.585 198.582 210.585C202.128 210.585 206.561 211.471 209.22 213.244C210.107 213.244 210.107 214.131 210.993 214.131C213.653 216.79 216.313 219.45 218.972 222.996C223.405 231.861 227.837 239.84 231.383 249.592C238.476 269.095 244.681 293.918 244.681 293.918L262.412 364.84C275.71 413.599 286.348 436.649 286.348 436.649C313.83 499.592 355.497 517.322 355.497 517.322C375.887 527.961 398.937 534.166 421.986 535.053C444.149 535.939 466.313 531.507 485.816 521.755C507.093 511.117 526.596 495.159 541.667 476.542C551.419 465.017 566.49 436.649 566.49 436.649C583.334 403.847 595.745 369.273 604.61 333.812C610.816 311.649 615.249 289.485 618.795 266.436C620.568 254.911 622.341 244.273 623.227 232.748C625.001 222.11 625 211.471 622.341 200.833C621.454 199.06 621.454 197.287 620.568 195.514C615.249 182.216 605.497 171.578 593.086 164.485C584.22 158.28 573.582 155.62 562.944 155.62Z" fill="url(#paint21_linear_11090_71458)"/>
<path d="M562.944 155.62C557.625 155.62 552.305 156.507 547.873 157.393C559.398 174.237 569.149 191.968 577.128 210.585C580.674 218.563 582.447 227.429 582.447 236.294C582.447 244.273 580.674 252.251 578.015 260.23C574.469 267.322 570.036 274.415 564.717 280.62C559.398 286.826 552.305 291.258 544.327 293.918C537.235 296.578 528.369 298.351 520.391 298.351C509.752 298.351 498.227 295.691 489.362 289.485L483.157 313.422C471.632 352.429 463.653 366.613 463.653 366.613C459.22 377.251 453.901 387.003 447.696 396.755C443.263 402.961 437.944 409.166 430.852 411.826C428.192 412.712 425.532 412.712 422.873 412.712C420.213 412.712 417.554 411.826 414.894 410.053C410.461 406.507 406.029 401.188 403.369 395.868C399.823 389.663 397.164 383.457 394.504 377.251C389.185 363.954 380.32 331.152 380.32 331.152L371.454 296.578L362.589 262.003L356.383 238.954C340.426 179.556 317.376 150.301 317.376 150.301C299.646 124.592 273.937 105.975 244.681 95.3365C210.993 82.9251 175.532 90.0173 175.532 90.0173C119.681 100.656 90.426 138.776 78.0146 157.393C84.2203 159.166 89.5395 160.939 94.8586 164.485C101.951 168.918 108.156 174.237 112.589 180.443C120.568 191.968 123.227 207.039 124.114 221.223C127.66 252.251 133.866 282.393 141.844 312.535C160.461 249.592 183.511 220.336 183.511 220.336C186.171 216.79 188.83 214.131 192.376 212.358C194.149 211.471 195.922 210.585 198.582 210.585C202.128 210.585 206.561 211.471 209.22 213.244C210.107 213.244 210.107 214.131 210.993 214.131C213.653 216.79 216.313 219.45 218.972 222.996C223.405 231.861 227.837 239.84 231.383 249.592C238.476 269.095 244.681 293.918 244.681 293.918L262.412 364.84C275.71 413.599 286.348 436.649 286.348 436.649C313.83 499.592 355.497 517.322 355.497 517.322C375.887 527.961 398.937 534.166 421.986 535.053C444.149 535.939 466.313 531.507 485.816 521.755C507.093 511.117 526.596 495.159 541.667 476.542C551.419 465.017 566.49 436.649 566.49 436.649C583.334 403.847 595.745 369.273 604.61 333.812C610.816 311.649 615.249 289.485 618.795 266.436C620.568 254.911 622.341 244.273 623.227 232.748C625.001 222.11 625 211.471 622.341 200.833C621.454 199.06 621.454 197.287 620.568 195.514C615.249 182.216 605.497 171.578 593.086 164.485C584.22 158.28 573.582 155.62 562.944 155.62Z" fill="url(#paint22_radial_11090_71458)"/>
<path d="M562.944 155.62C557.625 155.62 552.305 156.507 547.873 157.393C559.398 174.237 569.149 191.968 577.128 210.585C580.674 218.563 582.447 227.429 582.447 236.294C582.447 244.273 580.674 252.251 578.015 260.23C574.469 267.322 570.036 274.415 564.717 280.62C559.398 286.826 552.305 291.258 544.327 293.918C537.235 296.578 528.369 298.351 520.391 298.351C509.752 298.351 498.227 295.691 489.362 289.485L483.157 313.422C471.632 352.429 463.653 366.613 463.653 366.613C459.22 377.251 453.901 387.003 447.696 396.755C443.263 402.961 437.944 409.166 430.852 411.826C428.192 412.712 425.532 412.712 422.873 412.712C420.213 412.712 417.554 411.826 414.894 410.053C410.461 406.507 406.029 401.188 403.369 395.868C399.823 389.663 397.164 383.457 394.504 377.251C389.185 363.954 380.32 331.152 380.32 331.152L371.454 296.578L362.589 262.003L356.383 238.954C340.426 179.556 317.376 150.301 317.376 150.301C299.646 124.592 273.937 105.975 244.681 95.3365C210.993 82.9251 175.532 90.0173 175.532 90.0173C119.681 100.656 90.426 138.776 78.0146 157.393C84.2203 159.166 89.5395 160.939 94.8586 164.485C101.951 168.918 108.156 174.237 112.589 180.443C120.568 191.968 123.227 207.039 124.114 221.223C127.66 252.251 133.866 282.393 141.844 312.535C160.461 249.592 183.511 220.336 183.511 220.336C186.171 216.79 188.83 214.131 192.376 212.358C194.149 211.471 195.922 210.585 198.582 210.585C202.128 210.585 206.561 211.471 209.22 213.244C210.107 213.244 210.107 214.131 210.993 214.131C213.653 216.79 216.313 219.45 218.972 222.996C223.405 231.861 227.837 239.84 231.383 249.592C238.476 269.095 244.681 293.918 244.681 293.918L262.412 364.84C275.71 413.599 286.348 436.649 286.348 436.649C313.83 499.592 355.497 517.322 355.497 517.322C375.887 527.961 398.937 534.166 421.986 535.053C444.149 535.939 466.313 531.507 485.816 521.755C507.093 511.117 526.596 495.159 541.667 476.542C551.419 465.017 566.49 436.649 566.49 436.649C583.334 403.847 595.745 369.273 604.61 333.812C610.816 311.649 615.249 289.485 618.795 266.436C620.568 254.911 622.341 244.273 623.227 232.748C625.001 222.11 625 211.471 622.341 200.833C621.454 199.06 621.454 197.287 620.568 195.514C615.249 182.216 605.497 171.578 593.086 164.485C584.22 158.28 573.582 155.62 562.944 155.62Z" fill="url(#paint23_radial_11090_71458)"/>
<path d="M562.944 155.62C557.625 155.62 552.305 156.507 547.873 157.393C559.398 174.237 569.149 191.968 577.128 210.585C580.674 218.563 582.447 227.429 582.447 236.294C582.447 244.273 580.674 252.251 578.015 260.23C574.469 267.322 570.036 274.415 564.717 280.62C559.398 286.826 552.305 291.258 544.327 293.918C537.235 296.578 528.369 298.351 520.391 298.351C509.752 298.351 498.227 295.691 489.362 289.485L483.157 313.422C471.632 352.429 463.653 366.613 463.653 366.613C459.22 377.251 453.901 387.003 447.696 396.755C443.263 402.961 437.944 409.166 430.852 411.826C428.192 412.712 425.532 412.712 422.873 412.712C420.213 412.712 417.554 411.826 414.894 410.053C410.461 406.507 406.029 401.188 403.369 395.868C399.823 389.663 397.164 383.457 394.504 377.251C389.185 363.954 380.32 331.152 380.32 331.152L371.454 296.578L362.589 262.003L356.383 238.954C340.426 179.556 317.376 150.301 317.376 150.301C299.646 124.592 273.937 105.975 244.681 95.3365C210.993 82.9251 175.532 90.0173 175.532 90.0173C119.681 100.656 90.426 138.776 78.0146 157.393C84.2203 159.166 89.5395 160.939 94.8586 164.485C101.951 168.918 108.156 174.237 112.589 180.443C120.568 191.968 123.227 207.039 124.114 221.223C127.66 252.251 133.866 282.393 141.844 312.535C160.461 249.592 183.511 220.336 183.511 220.336C186.171 216.79 188.83 214.131 192.376 212.358C194.149 211.471 195.922 210.585 198.582 210.585C202.128 210.585 206.561 211.471 209.22 213.244C210.107 213.244 210.107 214.131 210.993 214.131C213.653 216.79 216.313 219.45 218.972 222.996C223.405 231.861 227.837 239.84 231.383 249.592C238.476 269.095 244.681 293.918 244.681 293.918L262.412 364.84C275.71 413.599 286.348 436.649 286.348 436.649C313.83 499.592 355.497 517.322 355.497 517.322C375.887 527.961 398.937 534.166 421.986 535.053C444.149 535.939 466.313 531.507 485.816 521.755C507.093 511.117 526.596 495.159 541.667 476.542C551.419 465.017 566.49 436.649 566.49 436.649C583.334 403.847 595.745 369.273 604.61 333.812C610.816 311.649 615.249 289.485 618.795 266.436C620.568 254.911 622.341 244.273 623.227 232.748C625.001 222.11 625 211.471 622.341 200.833C621.454 199.06 621.454 197.287 620.568 195.514C615.249 182.216 605.497 171.578 593.086 164.485C584.22 158.28 573.582 155.62 562.944 155.62Z" fill="url(#paint24_radial_11090_71458)"/>
<path d="M562.944 155.62C557.625 155.62 552.305 156.507 547.873 157.393C559.398 174.237 569.149 191.968 577.128 210.585C580.674 218.563 582.447 227.429 582.447 236.294C582.447 244.273 580.674 252.251 578.015 260.23C574.469 267.322 570.036 274.415 564.717 280.62C559.398 286.826 552.305 291.258 544.327 293.918C537.235 296.578 528.369 298.351 520.391 298.351C509.752 298.351 498.227 295.691 489.362 289.485L483.157 313.422C471.632 352.429 463.653 366.613 463.653 366.613C459.22 377.251 453.901 387.003 447.696 396.755C443.263 402.961 437.944 409.166 430.852 411.826C428.192 412.712 425.532 412.712 422.873 412.712C420.213 412.712 417.554 411.826 414.894 410.053C410.461 406.507 406.029 401.188 403.369 395.868C399.823 389.663 397.164 383.457 394.504 377.251C389.185 363.954 380.32 331.152 380.32 331.152L371.454 296.578L362.589 262.003L356.383 238.954C340.426 179.556 317.376 150.301 317.376 150.301C299.646 124.592 273.937 105.975 244.681 95.3365C210.993 82.9251 175.532 90.0173 175.532 90.0173C119.681 100.656 90.426 138.776 78.0146 157.393C84.2203 159.166 89.5395 160.939 94.8586 164.485C101.951 168.918 108.156 174.237 112.589 180.443C120.568 191.968 123.227 207.039 124.114 221.223C127.66 252.251 133.866 282.393 141.844 312.535C160.461 249.592 183.511 220.336 183.511 220.336C186.171 216.79 188.83 214.131 192.376 212.358C194.149 211.471 195.922 210.585 198.582 210.585C202.128 210.585 206.561 211.471 209.22 213.244C210.107 213.244 210.107 214.131 210.993 214.131C213.653 216.79 216.313 219.45 218.972 222.996C223.405 231.861 227.837 239.84 231.383 249.592C238.476 269.095 244.681 293.918 244.681 293.918L262.412 364.84C275.71 413.599 286.348 436.649 286.348 436.649C313.83 499.592 355.497 517.322 355.497 517.322C375.887 527.961 398.937 534.166 421.986 535.053C444.149 535.939 466.313 531.507 485.816 521.755C507.093 511.117 526.596 495.159 541.667 476.542C551.419 465.017 566.49 436.649 566.49 436.649C583.334 403.847 595.745 369.273 604.61 333.812C610.816 311.649 615.249 289.485 618.795 266.436C620.568 254.911 622.341 244.273 623.227 232.748C625.001 222.11 625 211.471 622.341 200.833C621.454 199.06 621.454 197.287 620.568 195.514C615.249 182.216 605.497 171.578 593.086 164.485C584.22 158.28 573.582 155.62 562.944 155.62Z" fill="url(#paint25_radial_11090_71458)"/>
<path d="M562.944 155.62C557.625 155.62 552.305 156.507 547.873 157.393C559.398 174.237 569.149 191.968 577.128 210.585C580.674 218.563 582.447 227.429 582.447 236.294C582.447 244.273 580.674 252.251 578.015 260.23C574.469 267.322 570.036 274.415 564.717 280.62C559.398 286.826 552.305 291.258 544.327 293.918C537.235 296.578 528.369 298.351 520.391 298.351C509.752 298.351 498.227 295.691 489.362 289.485L483.157 313.422C471.632 352.429 463.653 366.613 463.653 366.613C459.22 377.251 453.901 387.003 447.696 396.755C443.263 402.961 437.944 409.166 430.852 411.826C428.192 412.712 425.532 412.712 422.873 412.712C420.213 412.712 417.554 411.826 414.894 410.053C410.461 406.507 406.029 401.188 403.369 395.868C399.823 389.663 397.164 383.457 394.504 377.251C389.185 363.954 380.32 331.152 380.32 331.152L371.454 296.578L362.589 262.003L356.383 238.954C340.426 179.556 317.376 150.301 317.376 150.301C299.646 124.592 273.937 105.975 244.681 95.3365C210.993 82.9251 175.532 90.0173 175.532 90.0173C119.681 100.656 90.426 138.776 78.0146 157.393C84.2203 159.166 89.5395 160.939 94.8586 164.485C101.951 168.918 108.156 174.237 112.589 180.443C120.568 191.968 123.227 207.039 124.114 221.223C127.66 252.251 133.866 282.393 141.844 312.535C160.461 249.592 183.511 220.336 183.511 220.336C186.171 216.79 188.83 214.131 192.376 212.358C194.149 211.471 195.922 210.585 198.582 210.585C202.128 210.585 206.561 211.471 209.22 213.244C210.107 213.244 210.107 214.131 210.993 214.131C213.653 216.79 216.313 219.45 218.972 222.996C223.405 231.861 227.837 239.84 231.383 249.592C238.476 269.095 244.681 293.918 244.681 293.918L262.412 364.84C275.71 413.599 286.348 436.649 286.348 436.649C313.83 499.592 355.497 517.322 355.497 517.322C375.887 527.961 398.937 534.166 421.986 535.053C444.149 535.939 466.313 531.507 485.816 521.755C507.093 511.117 526.596 495.159 541.667 476.542C551.419 465.017 566.49 436.649 566.49 436.649C583.334 403.847 595.745 369.273 604.61 333.812C610.816 311.649 615.249 289.485 618.795 266.436C620.568 254.911 622.341 244.273 623.227 232.748C625.001 222.11 625 211.471 622.341 200.833C621.454 199.06 621.454 197.287 620.568 195.514C615.249 182.216 605.497 171.578 593.086 164.485C584.22 158.28 573.582 155.62 562.944 155.62Z" fill="url(#paint26_radial_11090_71458)"/>
<path d="M562.944 155.62C557.625 155.62 552.305 156.507 547.873 157.393C559.398 174.237 569.149 191.968 577.128 210.585C580.674 218.563 582.447 227.429 582.447 236.294C582.447 244.273 580.674 252.251 578.015 260.23C574.469 267.322 570.036 274.415 564.717 280.62C559.398 286.826 552.305 291.258 544.327 293.918C537.235 296.578 528.369 298.351 520.391 298.351C509.752 298.351 498.227 295.691 489.362 289.485L483.157 313.422C471.632 352.429 463.653 366.613 463.653 366.613C459.22 377.251 453.901 387.003 447.696 396.755C443.263 402.961 437.944 409.166 430.852 411.826C428.192 412.712 425.532 412.712 422.873 412.712C420.213 412.712 417.554 411.826 414.894 410.053C410.461 406.507 406.029 401.188 403.369 395.868C399.823 389.663 397.164 383.457 394.504 377.251C389.185 363.954 380.32 331.152 380.32 331.152L371.454 296.578L362.589 262.003L356.383 238.954C340.426 179.556 317.376 150.301 317.376 150.301C299.646 124.592 273.937 105.975 244.681 95.3365C210.993 82.9251 175.532 90.0173 175.532 90.0173C119.681 100.656 90.426 138.776 78.0146 157.393C84.2203 159.166 89.5395 160.939 94.8586 164.485C101.951 168.918 108.156 174.237 112.589 180.443C120.568 191.968 123.227 207.039 124.114 221.223C127.66 252.251 133.866 282.393 141.844 312.535C160.461 249.592 183.511 220.336 183.511 220.336C186.171 216.79 188.83 214.131 192.376 212.358C194.149 211.471 195.922 210.585 198.582 210.585C202.128 210.585 206.561 211.471 209.22 213.244C210.107 213.244 210.107 214.131 210.993 214.131C213.653 216.79 216.313 219.45 218.972 222.996C223.405 231.861 227.837 239.84 231.383 249.592C238.476 269.095 244.681 293.918 244.681 293.918L262.412 364.84C275.71 413.599 286.348 436.649 286.348 436.649C313.83 499.592 355.497 517.322 355.497 517.322C375.887 527.961 398.937 534.166 421.986 535.053C444.149 535.939 466.313 531.507 485.816 521.755C507.093 511.117 526.596 495.159 541.667 476.542C551.419 465.017 566.49 436.649 566.49 436.649C583.334 403.847 595.745 369.273 604.61 333.812C610.816 311.649 615.249 289.485 618.795 266.436C620.568 254.911 622.341 244.273 623.227 232.748C625.001 222.11 625 211.471 622.341 200.833C621.454 199.06 621.454 197.287 620.568 195.514C615.249 182.216 605.497 171.578 593.086 164.485C584.22 158.28 573.582 155.62 562.944 155.62Z" fill="url(#paint27_radial_11090_71458)"/>
<path d="M562.944 155.62C557.625 155.62 552.305 156.507 547.873 157.393C559.398 174.237 569.149 191.968 577.128 210.585C580.674 218.563 582.447 227.429 582.447 236.294C582.447 244.273 580.674 252.251 578.015 260.23C574.469 267.322 570.036 274.415 564.717 280.62C559.398 286.826 552.305 291.258 544.327 293.918C537.235 296.578 528.369 298.351 520.391 298.351C509.752 298.351 498.227 295.691 489.362 289.485L483.157 313.422C471.632 352.429 463.653 366.613 463.653 366.613C459.22 377.251 453.901 387.003 447.696 396.755C443.263 402.961 437.944 409.166 430.852 411.826C428.192 412.712 425.532 412.712 422.873 412.712C420.213 412.712 417.554 411.826 414.894 410.053C410.461 406.507 406.029 401.188 403.369 395.868C399.823 389.663 397.164 383.457 394.504 377.251C389.185 363.954 380.32 331.152 380.32 331.152L371.454 296.578L362.589 262.003L356.383 238.954C340.426 179.556 317.376 150.301 317.376 150.301C299.646 124.592 273.937 105.975 244.681 95.3365C210.993 82.9251 175.532 90.0173 175.532 90.0173C119.681 100.656 90.426 138.776 78.0146 157.393C84.2203 159.166 89.5395 160.939 94.8586 164.485C101.951 168.918 108.156 174.237 112.589 180.443C120.568 191.968 123.227 207.039 124.114 221.223C127.66 252.251 133.866 282.393 141.844 312.535C160.461 249.592 183.511 220.336 183.511 220.336C186.171 216.79 188.83 214.131 192.376 212.358C194.149 211.471 195.922 210.585 198.582 210.585C202.128 210.585 206.561 211.471 209.22 213.244C210.107 213.244 210.107 214.131 210.993 214.131C213.653 216.79 216.313 219.45 218.972 222.996C223.405 231.861 227.837 239.84 231.383 249.592C238.476 269.095 244.681 293.918 244.681 293.918L262.412 364.84C275.71 413.599 286.348 436.649 286.348 436.649C313.83 499.592 355.497 517.322 355.497 517.322C375.887 527.961 398.937 534.166 421.986 535.053C444.149 535.939 466.313 531.507 485.816 521.755C507.093 511.117 526.596 495.159 541.667 476.542C551.419 465.017 566.49 436.649 566.49 436.649C583.334 403.847 595.745 369.273 604.61 333.812C610.816 311.649 615.249 289.485 618.795 266.436C620.568 254.911 622.341 244.273 623.227 232.748C625.001 222.11 625 211.471 622.341 200.833C621.454 199.06 621.454 197.287 620.568 195.514C615.249 182.216 605.497 171.578 593.086 164.485C584.22 158.28 573.582 155.62 562.944 155.62Z" fill="url(#paint28_radial_11090_71458)"/>
<path d="M562.944 155.62C557.625 155.62 552.305 156.507 547.873 157.393C559.398 174.237 569.149 191.968 577.128 210.585C580.674 218.563 582.447 227.429 582.447 236.294C582.447 244.273 580.674 252.251 578.015 260.23C574.469 267.322 570.036 274.415 564.717 280.62C559.398 286.826 552.305 291.258 544.327 293.918C537.235 296.578 528.369 298.351 520.391 298.351C509.752 298.351 498.227 295.691 489.362 289.485L483.157 313.422C471.632 352.429 463.653 366.613 463.653 366.613C459.22 377.251 453.901 387.003 447.696 396.755C443.263 402.961 437.944 409.166 430.852 411.826C428.192 412.712 425.532 412.712 422.873 412.712C420.213 412.712 417.554 411.826 414.894 410.053C410.461 406.507 406.029 401.188 403.369 395.868C399.823 389.663 397.164 383.457 394.504 377.251C389.185 363.954 380.32 331.152 380.32 331.152L371.454 296.578L362.589 262.003L356.383 238.954C340.426 179.556 317.376 150.301 317.376 150.301C299.646 124.592 273.937 105.975 244.681 95.3365C210.993 82.9251 175.532 90.0173 175.532 90.0173C119.681 100.656 90.426 138.776 78.0146 157.393C84.2203 159.166 89.5395 160.939 94.8586 164.485C101.951 168.918 108.156 174.237 112.589 180.443C120.568 191.968 123.227 207.039 124.114 221.223C127.66 252.251 133.866 282.393 141.844 312.535C160.461 249.592 183.511 220.336 183.511 220.336C186.171 216.79 188.83 214.131 192.376 212.358C194.149 211.471 195.922 210.585 198.582 210.585C202.128 210.585 206.561 211.471 209.22 213.244C210.107 213.244 210.107 214.131 210.993 214.131C213.653 216.79 216.313 219.45 218.972 222.996C223.405 231.861 227.837 239.84 231.383 249.592C238.476 269.095 244.681 293.918 244.681 293.918L262.412 364.84C275.71 413.599 286.348 436.649 286.348 436.649C313.83 499.592 355.497 517.322 355.497 517.322C375.887 527.961 398.937 534.166 421.986 535.053C444.149 535.939 466.313 531.507 485.816 521.755C507.093 511.117 526.596 495.159 541.667 476.542C551.419 465.017 566.49 436.649 566.49 436.649C583.334 403.847 595.745 369.273 604.61 333.812C610.816 311.649 615.249 289.485 618.795 266.436C620.568 254.911 622.341 244.273 623.227 232.748C625.001 222.11 625 211.471 622.341 200.833C621.454 199.06 621.454 197.287 620.568 195.514C615.249 182.216 605.497 171.578 593.086 164.485C584.22 158.28 573.582 155.62 562.944 155.62Z" fill="url(#paint29_radial_11090_71458)"/>
<path d="M562.944 155.62C557.625 155.62 552.305 156.507 547.873 157.393C559.398 174.237 569.149 191.968 577.128 210.585C580.674 218.563 582.447 227.429 582.447 236.294C582.447 244.273 580.674 252.251 578.015 260.23C574.469 267.322 570.036 274.415 564.717 280.62C559.398 286.826 552.305 291.258 544.327 293.918C537.235 296.578 528.369 298.351 520.391 298.351C509.752 298.351 498.227 295.691 489.362 289.485L483.157 313.422C471.632 352.429 463.653 366.613 463.653 366.613C459.22 377.251 453.901 387.003 447.696 396.755C443.263 402.961 437.944 409.166 430.852 411.826C428.192 412.712 425.532 412.712 422.873 412.712C420.213 412.712 417.554 411.826 414.894 410.053C410.461 406.507 406.029 401.188 403.369 395.868C399.823 389.663 397.164 383.457 394.504 377.251C389.185 363.954 380.32 331.152 380.32 331.152L371.454 296.578L362.589 262.003L356.383 238.954C340.426 179.556 317.376 150.301 317.376 150.301C299.646 124.592 273.937 105.975 244.681 95.3365C210.993 82.9251 175.532 90.0173 175.532 90.0173C119.681 100.656 90.426 138.776 78.0146 157.393C84.2203 159.166 89.5395 160.939 94.8586 164.485C101.951 168.918 108.156 174.237 112.589 180.443C120.568 191.968 123.227 207.039 124.114 221.223C127.66 252.251 133.866 282.393 141.844 312.535C160.461 249.592 183.511 220.336 183.511 220.336C186.171 216.79 188.83 214.131 192.376 212.358C194.149 211.471 195.922 210.585 198.582 210.585C202.128 210.585 206.561 211.471 209.22 213.244C210.107 213.244 210.107 214.131 210.993 214.131C213.653 216.79 216.313 219.45 218.972 222.996C223.405 231.861 227.837 239.84 231.383 249.592C238.476 269.095 244.681 293.918 244.681 293.918L262.412 364.84C275.71 413.599 286.348 436.649 286.348 436.649C313.83 499.592 355.497 517.322 355.497 517.322C375.887 527.961 398.937 534.166 421.986 535.053C444.149 535.939 466.313 531.507 485.816 521.755C507.093 511.117 526.596 495.159 541.667 476.542C551.419 465.017 566.49 436.649 566.49 436.649C583.334 403.847 595.745 369.273 604.61 333.812C610.816 311.649 615.249 289.485 618.795 266.436C620.568 254.911 622.341 244.273 623.227 232.748C625.001 222.11 625 211.471 622.341 200.833C621.454 199.06 621.454 197.287 620.568 195.514C615.249 182.216 605.497 171.578 593.086 164.485C584.22 158.28 573.582 155.62 562.944 155.62Z" fill="url(#paint30_radial_11090_71458)"/>
<path d="M562.944 155.62C557.625 155.62 552.305 156.507 547.873 157.393C559.398 174.237 569.149 191.968 577.128 210.585C580.674 218.563 582.447 227.429 582.447 236.294C582.447 244.273 580.674 252.251 578.015 260.23C574.469 267.322 570.036 274.415 564.717 280.62C559.398 286.826 552.305 291.258 544.327 293.918C537.235 296.578 528.369 298.351 520.391 298.351C509.752 298.351 498.227 295.691 489.362 289.485L483.157 313.422C471.632 352.429 463.653 366.613 463.653 366.613C459.22 377.251 453.901 387.003 447.696 396.755C443.263 402.961 437.944 409.166 430.852 411.826C428.192 412.712 425.532 412.712 422.873 412.712C420.213 412.712 417.554 411.826 414.894 410.053C410.461 406.507 406.029 401.188 403.369 395.868C399.823 389.663 397.164 383.457 394.504 377.251C389.185 363.954 380.32 331.152 380.32 331.152L371.454 296.578L362.589 262.003L356.383 238.954C340.426 179.556 317.376 150.301 317.376 150.301C299.646 124.592 273.937 105.975 244.681 95.3365C210.993 82.9251 175.532 90.0173 175.532 90.0173C119.681 100.656 90.426 138.776 78.0146 157.393C84.2203 159.166 89.5395 160.939 94.8586 164.485C101.951 168.918 108.156 174.237 112.589 180.443C120.568 191.968 123.227 207.039 124.114 221.223C127.66 252.251 133.866 282.393 141.844 312.535C160.461 249.592 183.511 220.336 183.511 220.336C186.171 216.79 188.83 214.131 192.376 212.358C194.149 211.471 195.922 210.585 198.582 210.585C202.128 210.585 206.561 211.471 209.22 213.244C210.107 213.244 210.107 214.131 210.993 214.131C213.653 216.79 216.313 219.45 218.972 222.996C223.405 231.861 227.837 239.84 231.383 249.592C238.476 269.095 244.681 293.918 244.681 293.918L262.412 364.84C275.71 413.599 286.348 436.649 286.348 436.649C313.83 499.592 355.497 517.322 355.497 517.322C375.887 527.961 398.937 534.166 421.986 535.053C444.149 535.939 466.313 531.507 485.816 521.755C507.093 511.117 526.596 495.159 541.667 476.542C551.419 465.017 566.49 436.649 566.49 436.649C583.334 403.847 595.745 369.273 604.61 333.812C610.816 311.649 615.249 289.485 618.795 266.436C620.568 254.911 622.341 244.273 623.227 232.748C625.001 222.11 625 211.471 622.341 200.833C621.454 199.06 621.454 197.287 620.568 195.514C615.249 182.216 605.497 171.578 593.086 164.485C584.22 158.28 573.582 155.62 562.944 155.62Z" fill="url(#paint31_radial_11090_71458)"/>
<path d="M562.944 155.62C557.625 155.62 552.305 156.507 547.873 157.393C559.398 174.237 569.149 191.968 577.128 210.585C580.674 218.563 582.447 227.429 582.447 236.294C582.447 244.273 580.674 252.251 578.015 260.23C574.469 267.322 570.036 274.415 564.717 280.62C559.398 286.826 552.305 291.258 544.327 293.918C537.235 296.578 528.369 298.351 520.391 298.351C509.752 298.351 498.227 295.691 489.362 289.485L483.157 313.422C471.632 352.429 463.653 366.613 463.653 366.613C459.22 377.251 453.901 387.003 447.696 396.755C443.263 402.961 437.944 409.166 430.852 411.826C428.192 412.712 425.532 412.712 422.873 412.712C420.213 412.712 417.554 411.826 414.894 410.053C410.461 406.507 406.029 401.188 403.369 395.868C399.823 389.663 397.164 383.457 394.504 377.251C389.185 363.954 380.32 331.152 380.32 331.152L371.454 296.578L362.589 262.003L356.383 238.954C340.426 179.556 317.376 150.301 317.376 150.301C299.646 124.592 273.937 105.975 244.681 95.3365C210.993 82.9251 175.532 90.0173 175.532 90.0173C119.681 100.656 90.426 138.776 78.0146 157.393C84.2203 159.166 89.5395 160.939 94.8586 164.485C101.951 168.918 108.156 174.237 112.589 180.443C120.568 191.968 123.227 207.039 124.114 221.223C127.66 252.251 133.866 282.393 141.844 312.535C160.461 249.592 183.511 220.336 183.511 220.336C186.171 216.79 188.83 214.131 192.376 212.358C194.149 211.471 195.922 210.585 198.582 210.585C202.128 210.585 206.561 211.471 209.22 213.244C210.107 213.244 210.107 214.131 210.993 214.131C213.653 216.79 216.313 219.45 218.972 222.996C223.405 231.861 227.837 239.84 231.383 249.592C238.476 269.095 244.681 293.918 244.681 293.918L262.412 364.84C275.71 413.599 286.348 436.649 286.348 436.649C313.83 499.592 355.497 517.322 355.497 517.322C375.887 527.961 398.937 534.166 421.986 535.053C444.149 535.939 466.313 531.507 485.816 521.755C507.093 511.117 526.596 495.159 541.667 476.542C551.419 465.017 566.49 436.649 566.49 436.649C583.334 403.847 595.745 369.273 604.61 333.812C610.816 311.649 615.249 289.485 618.795 266.436C620.568 254.911 622.341 244.273 623.227 232.748C625.001 222.11 625 211.471 622.341 200.833C621.454 199.06 621.454 197.287 620.568 195.514C615.249 182.216 605.497 171.578 593.086 164.485C584.22 158.28 573.582 155.62 562.944 155.62Z" fill="url(#paint32_radial_11090_71458)"/>
<path d="M562.944 155.62C557.625 155.62 552.305 156.507 547.873 157.393C559.398 174.237 569.149 191.968 577.128 210.585C580.674 218.563 582.447 227.429 582.447 236.294C582.447 244.273 580.674 252.251 578.015 260.23C574.469 267.322 570.036 274.415 564.717 280.62C559.398 286.826 552.305 291.258 544.327 293.918C537.235 296.578 528.369 298.351 520.391 298.351C509.752 298.351 498.227 295.691 489.362 289.485L483.157 313.422C471.632 352.429 463.653 366.613 463.653 366.613C459.22 377.251 453.901 387.003 447.696 396.755C443.263 402.961 437.944 409.166 430.852 411.826C428.192 412.712 425.532 412.712 422.873 412.712C420.213 412.712 417.554 411.826 414.894 410.053C410.461 406.507 406.029 401.188 403.369 395.868C399.823 389.663 397.164 383.457 394.504 377.251C389.185 363.954 380.32 331.152 380.32 331.152L371.454 296.578L362.589 262.003L356.383 238.954C340.426 179.556 317.376 150.301 317.376 150.301C299.646 124.592 273.937 105.975 244.681 95.3365C210.993 82.9251 175.532 90.0173 175.532 90.0173C119.681 100.656 90.426 138.776 78.0146 157.393C84.2203 159.166 89.5395 160.939 94.8586 164.485C101.951 168.918 108.156 174.237 112.589 180.443C120.568 191.968 123.227 207.039 124.114 221.223C127.66 252.251 133.866 282.393 141.844 312.535C160.461 249.592 183.511 220.336 183.511 220.336C186.171 216.79 188.83 214.131 192.376 212.358C194.149 211.471 195.922 210.585 198.582 210.585C202.128 210.585 206.561 211.471 209.22 213.244C210.107 213.244 210.107 214.131 210.993 214.131C213.653 216.79 216.313 219.45 218.972 222.996C223.405 231.861 227.837 239.84 231.383 249.592C238.476 269.095 244.681 293.918 244.681 293.918L262.412 364.84C275.71 413.599 286.348 436.649 286.348 436.649C313.83 499.592 355.497 517.322 355.497 517.322C375.887 527.961 398.937 534.166 421.986 535.053C444.149 535.939 466.313 531.507 485.816 521.755C507.093 511.117 526.596 495.159 541.667 476.542C551.419 465.017 566.49 436.649 566.49 436.649C583.334 403.847 595.745 369.273 604.61 333.812C610.816 311.649 615.249 289.485 618.795 266.436C620.568 254.911 622.341 244.273 623.227 232.748C625.001 222.11 625 211.471 622.341 200.833C621.454 199.06 621.454 197.287 620.568 195.514C615.249 182.216 605.497 171.578 593.086 164.485C584.22 158.28 573.582 155.62 562.944 155.62Z" fill="url(#paint33_radial_11090_71458)"/>
<path d="M562.944 155.62C557.625 155.62 552.305 156.507 547.873 157.393C559.398 174.237 569.149 191.968 577.128 210.585C580.674 218.563 582.447 227.429 582.447 236.294C582.447 244.273 580.674 252.251 578.015 260.23C574.469 267.322 570.036 274.415 564.717 280.62C559.398 286.826 552.305 291.258 544.327 293.918C537.235 296.578 528.369 298.351 520.391 298.351C509.752 298.351 498.227 295.691 489.362 289.485L483.157 313.422C471.632 352.429 463.653 366.613 463.653 366.613C459.22 377.251 453.901 387.003 447.696 396.755C443.263 402.961 437.944 409.166 430.852 411.826C428.192 412.712 425.532 412.712 422.873 412.712C420.213 412.712 417.554 411.826 414.894 410.053C410.461 406.507 406.029 401.188 403.369 395.868C399.823 389.663 397.164 383.457 394.504 377.251C389.185 363.954 380.32 331.152 380.32 331.152L371.454 296.578L362.589 262.003L356.383 238.954C340.426 179.556 317.376 150.301 317.376 150.301C299.646 124.592 273.937 105.975 244.681 95.3365C210.993 82.9251 175.532 90.0173 175.532 90.0173C119.681 100.656 90.426 138.776 78.0146 157.393C84.2203 159.166 89.5395 160.939 94.8586 164.485C101.951 168.918 108.156 174.237 112.589 180.443C120.568 191.968 123.227 207.039 124.114 221.223C127.66 252.251 133.866 282.393 141.844 312.535C160.461 249.592 183.511 220.336 183.511 220.336C186.171 216.79 188.83 214.131 192.376 212.358C194.149 211.471 195.922 210.585 198.582 210.585C202.128 210.585 206.561 211.471 209.22 213.244C210.107 213.244 210.107 214.131 210.993 214.131C213.653 216.79 216.313 219.45 218.972 222.996C223.405 231.861 227.837 239.84 231.383 249.592C238.476 269.095 244.681 293.918 244.681 293.918L262.412 364.84C275.71 413.599 286.348 436.649 286.348 436.649C313.83 499.592 355.497 517.322 355.497 517.322C375.887 527.961 398.937 534.166 421.986 535.053C444.149 535.939 466.313 531.507 485.816 521.755C507.093 511.117 526.596 495.159 541.667 476.542C551.419 465.017 566.49 436.649 566.49 436.649C583.334 403.847 595.745 369.273 604.61 333.812C610.816 311.649 615.249 289.485 618.795 266.436C620.568 254.911 622.341 244.273 623.227 232.748C625.001 222.11 625 211.471 622.341 200.833C621.454 199.06 621.454 197.287 620.568 195.514C615.249 182.216 605.497 171.578 593.086 164.485C584.22 158.28 573.582 155.62 562.944 155.62Z" fill="url(#paint34_linear_11090_71458)"/>
<defs>
<linearGradient id="paint0_linear_11090_71458" x1="28.1029" y1="390.301" x2="514.087" y2="193.856" gradientUnits="userSpaceOnUse">
<stop offset="0.13" stop-color="#1CBBF3"/>
<stop offset="0.34" stop-color="#1F99A5"/>
<stop offset="0.45" stop-color="#209CA6"/>
<stop offset="0.51" stop-color="#24A4AA"/>
<stop offset="0.57" stop-color="#2BB3B0"/>
<stop offset="0.6" stop-color="#30BDB4"/>
<stop offset="0.79" stop-color="#38BA90"/>
<stop offset="1" stop-color="#60F05A"/>
</linearGradient>
<radialGradient id="paint1_radial_11090_71458" cx="0" cy="0" r="1" gradientUnits="userSpaceOnUse" gradientTransform="translate(351.904 274.589) rotate(74.3201) scale(232.277 176.53)">
<stop stop-color="#227B60"/>
<stop offset="0.14" stop-color="#227B60" stop-opacity="0.81"/>
<stop offset="0.58" stop-color="#227B60" stop-opacity="0.23"/>
<stop offset="0.78" stop-color="#227B60" stop-opacity="0"/>
</radialGradient>
<radialGradient id="paint2_radial_11090_71458" cx="0" cy="0" r="1" gradientUnits="userSpaceOnUse" gradientTransform="translate(386.637 257.941) rotate(91.1458) scale(157.069 119.355)">
<stop stop-color="#227B60"/>
<stop offset="0.25" stop-color="#227B60" stop-opacity="0.7"/>
<stop offset="0.71" stop-color="#227B60" stop-opacity="0.2"/>
<stop offset="0.92" stop-color="#227B60" stop-opacity="0"/>
</radialGradient>
<radialGradient id="paint3_radial_11090_71458" cx="0" cy="0" r="1" gradientUnits="userSpaceOnUse" gradientTransform="translate(379.218 264.437) rotate(88.6) scale(146.415 103.954)">
<stop stop-color="#227B60"/>
<stop offset="0.07" stop-color="#227B60" stop-opacity="0.9"/>
<stop offset="0.34" stop-color="#227B60" stop-opacity="0.51"/>
<stop offset="0.59" stop-color="#227B60" stop-opacity="0.23"/>
<stop offset="0.79" stop-color="#227B60" stop-opacity="0.06"/>
<stop offset="0.92" stop-color="#227B60" stop-opacity="0"/>
</radialGradient>
<radialGradient id="paint4_radial_11090_71458" cx="0" cy="0" r="1" gradientUnits="userSpaceOnUse" gradientTransform="translate(381.72 257.966) rotate(88.6) scale(118.22 83.9364)">
<stop stop-color="#227B60"/>
<stop offset="0.36" stop-color="#227B60" stop-opacity="0.63"/>
<stop offset="0.92" stop-color="#227B60" stop-opacity="0"/>
</radialGradient>
<radialGradient id="paint5_radial_11090_71458" cx="0" cy="0" r="1" gradientUnits="userSpaceOnUse" gradientTransform="translate(386.82 264.476) rotate(88.5997) scale(94.287 60.3443)">
<stop stop-color="#20735A"/>
<stop offset="0.15" stop-color="#20745A" stop-opacity="0.93"/>
<stop offset="0.38" stop-color="#21755C" stop-opacity="0.74"/>
<stop offset="0.67" stop-color="#21785D" stop-opacity="0.43"/>
<stop offset="1" stop-color="#227B60" stop-opacity="0"/>
</radialGradient>
<radialGradient id="paint6_radial_11090_71458" cx="0" cy="0" r="1" gradientUnits="userSpaceOnUse" gradientTransform="translate(399.415 279.781) rotate(23.7999) scale(151.725 113.794)">
<stop stop-color="#227A61"/>
<stop offset="0.36" stop-color="#227A61" stop-opacity="0.56"/>
<stop offset="0.72" stop-color="#227A61" stop-opacity="0.16"/>
<stop offset="0.9" stop-color="#227A61" stop-opacity="0"/>
</radialGradient>
<radialGradient id="paint7_radial_11090_71458" cx="0" cy="0" r="1" gradientUnits="userSpaceOnUse" gradientTransform="translate(347.114 33.1984) rotate(35.2724) scale(202.344 185.015)">
<stop stop-color="#3CD9C3"/>
<stop offset="0.07" stop-color="#3BD7C1" stop-opacity="0.9"/>
<stop offset="0.41" stop-color="#38CEB9" stop-opacity="0.42"/>
<stop offset="0.65" stop-color="#36C8B4" stop-opacity="0.12"/>
<stop offset="0.76" stop-color="#35C6B2" stop-opacity="0"/>
</radialGradient>
<radialGradient id="paint8_radial_11090_71458" cx="0" cy="0" r="1" gradientUnits="userSpaceOnUse" gradientTransform="translate(-331822 -450808) rotate(35.2724) scale(35948.4 25226.8)">
<stop stop-color="#3CD9C3"/>
<stop offset="0.07" stop-color="#3BD7C1" stop-opacity="0.9"/>
<stop offset="0.41" stop-color="#38CEB9" stop-opacity="0.42"/>
<stop offset="0.65" stop-color="#36C8B4" stop-opacity="0.12"/>
<stop offset="0.76" stop-color="#35C6B2" stop-opacity="0"/>
</radialGradient>
<radialGradient id="paint9_radial_11090_71458" cx="0" cy="0" r="1" gradientUnits="userSpaceOnUse" gradientTransform="translate(428.405 318.331) rotate(100.972) scale(178.459 220.527)">
<stop stop-color="#237F66" stop-opacity="0.8"/>
<stop offset="0.06" stop-color="#2C8C70" stop-opacity="0.65"/>
<stop offset="0.21" stop-color="#3DA785" stop-opacity="0.37"/>
<stop offset="0.35" stop-color="#4ABA93" stop-opacity="0.17"/>
<stop offset="0.47" stop-color="#51C59C" stop-opacity="0.04"/>
<stop offset="0.56" stop-color="#54C99F" stop-opacity="0"/>
</radialGradient>
<radialGradient id="paint10_radial_11090_71458" cx="0" cy="0" r="1" gradientUnits="userSpaceOnUse" gradientTransform="translate(329.412 327.182) rotate(-50.82) scale(233.194 251.85)">
<stop stop-color="#167C8A"/>
<stop offset="0.04" stop-color="#167C8A" stop-opacity="0.93"/>
<stop offset="0.33" stop-color="#177F8D" stop-opacity="0.43"/>
<stop offset="0.54" stop-color="#17818F" stop-opacity="0.12"/>
<stop offset="0.65" stop-color="#178290" stop-opacity="0"/>
</radialGradient>
<radialGradient id="paint11_radial_11090_71458" cx="0" cy="0" r="1" gradientUnits="userSpaceOnUse" gradientTransform="translate(315.151 350.365) rotate(-31.6599) scale(227.49 179.718)">
<stop offset="0.05" stop-color="#177D87"/>
<stop offset="0.11" stop-color="#177E89" stop-opacity="0.8"/>
<stop offset="0.21" stop-color="#177F8B" stop-opacity="0.52"/>
<stop offset="0.32" stop-color="#17818D" stop-opacity="0.29"/>
<stop offset="0.42" stop-color="#17818F" stop-opacity="0.13"/>
<stop offset="0.51" stop-color="#178290" stop-opacity="0.03"/>
<stop offset="0.6" stop-color="#178290" stop-opacity="0"/>
</radialGradient>
<radialGradient id="paint12_radial_11090_71458" cx="0" cy="0" r="1" gradientUnits="userSpaceOnUse" gradientTransform="translate(267.906 347.486) rotate(-130.539) scale(135.538 106.724)">
<stop offset="0.26" stop-color="#177F8A"/>
<stop offset="0.27" stop-color="#177F8A" stop-opacity="0.98"/>
<stop offset="0.38" stop-color="#17808C" stop-opacity="0.68"/>
<stop offset="0.5" stop-color="#17818D" stop-opacity="0.43"/>
<stop offset="0.62" stop-color="#17818F" stop-opacity="0.24"/>
<stop offset="0.74" stop-color="#17828F" stop-opacity="0.11"/>
<stop offset="0.86" stop-color="#178290" stop-opacity="0.03"/>
<stop offset="1" stop-color="#178290" stop-opacity="0"/>
</radialGradient>
<radialGradient id="paint13_radial_11090_71458" cx="0" cy="0" r="1" gradientUnits="userSpaceOnUse" gradientTransform="translate(234.685 387.429) rotate(-173.11) scale(127.137 127.137)">
<stop stop-color="#13656E"/>
<stop offset="0.11" stop-color="#13646E" stop-opacity="0.73"/>
<stop offset="0.27" stop-color="#12646E" stop-opacity="0.41"/>
<stop offset="0.42" stop-color="#12636E" stop-opacity="0.18"/>
<stop offset="0.55" stop-color="#12636E" stop-opacity="0.05"/>
<stop offset="0.66" stop-color="#12636E" stop-opacity="0"/>
</radialGradient>
<radialGradient id="paint14_radial_11090_71458" cx="0" cy="0" r="1" gradientUnits="userSpaceOnUse" gradientTransform="translate(231.449 406.897) rotate(-119.32) scale(88.9112 74.6854)">
<stop offset="0.13" stop-color="#146A73"/>
<stop offset="0.24" stop-color="#156F79" stop-opacity="0.79"/>
<stop offset="0.45" stop-color="#167783" stop-opacity="0.45"/>
<stop offset="0.65" stop-color="#167D8A" stop-opacity="0.2"/>
<stop offset="0.82" stop-color="#17818E" stop-opacity="0.05"/>
<stop offset="0.95" stop-color="#178290" stop-opacity="0"/>
</radialGradient>
<radialGradient id="paint15_radial_11090_71458" cx="0" cy="0" r="1" gradientUnits="userSpaceOnUse" gradientTransform="translate(211.599 366.447) rotate(-55.9924) scale(83.6386 66.2602)">
<stop stop-color="#198E9C"/>
<stop offset="0.1" stop-color="#198E9C" stop-opacity="0.87"/>
<stop offset="0.41" stop-color="#198E9C" stop-opacity="0.5"/>
<stop offset="0.67" stop-color="#198E9C" stop-opacity="0.23"/>
<stop offset="0.88" stop-color="#198E9C" stop-opacity="0.06"/>
<stop offset="1" stop-color="#198E9C" stop-opacity="0"/>
</radialGradient>
<linearGradient id="paint16_linear_11090_71458" x1="59.3617" y1="78.0936" x2="273.803" y2="276.542" gradientUnits="userSpaceOnUse">
<stop offset="0.13" stop-color="#2BF9FF"/>
<stop offset="0.27" stop-color="#29F9FF" stop-opacity="0.64"/>
<stop offset="0.4" stop-color="#27FAFF" stop-opacity="0.3"/>
<stop offset="0.49" stop-color="#26FAFF" stop-opacity="0.08"/>
<stop offset="0.54" stop-color="#26FAFF" stop-opacity="0"/>
</linearGradient>
<linearGradient id="paint17_linear_11090_71458" x1="-62.039" y1="401.906" x2="188.431" y2="330.895" gradientUnits="userSpaceOnUse">
<stop stop-color="#26FAFF"/>
<stop offset="0.06" stop-color="#26FAFF" stop-opacity="0.88"/>
<stop offset="0.24" stop-color="#26FAFF" stop-opacity="0.51"/>
<stop offset="0.39" stop-color="#26FAFF" stop-opacity="0.23"/>
<stop offset="0.5" stop-color="#26FAFF" stop-opacity="0.06"/>
<stop offset="0.55" stop-color="#26FAFF" stop-opacity="0"/>
</linearGradient>
<linearGradient id="paint18_linear_11090_71458" x1="4.31737" y1="393.2" x2="286.596" y2="292.588" gradientUnits="userSpaceOnUse">
<stop stop-color="#21DEFF"/>
<stop offset="0.04" stop-color="#21DEFF" stop-opacity="0.88"/>
<stop offset="0.17" stop-color="#21DEFF" stop-opacity="0.51"/>
<stop offset="0.27" stop-color="#21DEFF" stop-opacity="0.23"/>
<stop offset="0.34" stop-color="#21DEFF" stop-opacity="0.06"/>
<stop offset="0.38" stop-color="#21DEFF" stop-opacity="0"/>
</linearGradient>
<linearGradient id="paint19_linear_11090_71458" x1="272.544" y1="247.588" x2="430.434" y2="505.106" gradientUnits="userSpaceOnUse">
<stop offset="0.62" stop-color="#21DEFF" stop-opacity="0"/>
<stop offset="0.66" stop-color="#21DEFF" stop-opacity="0.06"/>
<stop offset="0.73" stop-color="#21DEFF" stop-opacity="0.23"/>
<stop offset="0.83" stop-color="#21DEFF" stop-opacity="0.51"/>
<stop offset="0.96" stop-color="#21DEFF" stop-opacity="0.88"/>
<stop offset="1" stop-color="#21DEFF"/>
</linearGradient>
<linearGradient id="paint20_linear_11090_71458" x1="448.262" y1="343.803" x2="423.44" y2="222.659" gradientUnits="userSpaceOnUse">
<stop stop-color="#44B044"/>
<stop offset="0.11" stop-color="#44B044" stop-opacity="0.8"/>
<stop offset="0.27" stop-color="#44B044" stop-opacity="0.52"/>
<stop offset="0.43" stop-color="#44B044" stop-opacity="0.29"/>
<stop offset="0.58" stop-color="#44B044" stop-opacity="0.13"/>
<stop offset="0.7" stop-color="#44B044" stop-opacity="0.03"/>
<stop offset="0.8" stop-color="#44B044" stop-opacity="0"/>
</linearGradient>
<linearGradient id="paint21_linear_11090_71458" x1="101.844" y1="218.094" x2="624.522" y2="391.126" gradientUnits="userSpaceOnUse">
<stop stop-color="#3066FB"/>
<stop offset="0.38" stop-color="#2F64F7"/>
<stop offset="0.74" stop-color="#2857D9"/>
<stop offset="1" stop-color="#3C7EFF"/>
</linearGradient>
<radialGradient id="paint22_radial_11090_71458" cx="0" cy="0" r="1" gradientUnits="userSpaceOnUse" gradientTransform="translate(471.052 297.379) rotate(98.6901) scale(279.518 184.482)">
<stop stop-color="#1A3D9C"/>
<stop offset="0.4" stop-color="#1A3D9C" stop-opacity="0.42"/>
<stop offset="0.7" stop-color="#1A3D9C" stop-opacity="0"/>
</radialGradient>
<radialGradient id="paint23_radial_11090_71458" cx="0" cy="0" r="1" gradientUnits="userSpaceOnUse" gradientTransform="translate(170104 -438854) rotate(98.69) scale(34386.4 18540.9)">
<stop stop-color="#1A3D9C"/>
<stop offset="0.4" stop-color="#1A3D9C" stop-opacity="0.42"/>
<stop offset="0.7" stop-color="#1A3D9C" stop-opacity="0"/>
</radialGradient>
<radialGradient id="paint24_radial_11090_71458" cx="0" cy="0" r="1" gradientUnits="userSpaceOnUse" gradientTransform="translate(149355 -445671) rotate(98.6156) scale(40952.4 16918.4)">
<stop stop-color="#1A3D9C"/>
<stop offset="0.4" stop-color="#1A3D9C" stop-opacity="0.42"/>
<stop offset="0.7" stop-color="#1A3D9C" stop-opacity="0"/>
</radialGradient>
<radialGradient id="paint25_radial_11090_71458" cx="0" cy="0" r="1" gradientUnits="userSpaceOnUse" gradientTransform="translate(436.011 286.689) rotate(83.0887) scale(244.321 170.473)">
<stop stop-color="#1A3D9C"/>
<stop offset="0.16" stop-color="#1A3D9C" stop-opacity="0.69"/>
<stop offset="0.33" stop-color="#1A3D9C" stop-opacity="0.4"/>
<stop offset="0.49" stop-color="#1A3D9C" stop-opacity="0.18"/>
<stop offset="0.61" stop-color="#1A3D9C" stop-opacity="0.05"/>
<stop offset="0.7" stop-color="#1A3D9C" stop-opacity="0"/>
</radialGradient>
<radialGradient id="paint26_radial_11090_71458" cx="0" cy="0" r="1" gradientUnits="userSpaceOnUse" gradientTransform="translate(480.169 323.972) rotate(74.6399) scale(234.801 159.665)">
<stop stop-color="#18388F"/>
<stop offset="0.37" stop-color="#193B96" stop-opacity="0.45"/>
<stop offset="0.7" stop-color="#1A3D9C" stop-opacity="0"/>
</radialGradient>
<radialGradient id="paint27_radial_11090_71458" cx="0" cy="0" r="1" gradientUnits="userSpaceOnUse" gradientTransform="translate(456.697 386.795) rotate(74.6401) scale(109.172 103.713)">
<stop stop-color="#18388F"/>
<stop offset="0.09" stop-color="#183992" stop-opacity="0.78"/>
<stop offset="0.22" stop-color="#193B96" stop-opacity="0.5"/>
<stop offset="0.35" stop-color="#193C98" stop-opacity="0.28"/>
<stop offset="0.47" stop-color="#1A3C9A" stop-opacity="0.13"/>
<stop offset="0.59" stop-color="#1A3D9C" stop-opacity="0.03"/>
<stop offset="0.7" stop-color="#1A3D9C" stop-opacity="0"/>
</radialGradient>
<radialGradient id="paint28_radial_11090_71458" cx="0" cy="0" r="1" gradientUnits="userSpaceOnUse" gradientTransform="translate(459.313 405.421) rotate(74.6401) scale(109.172 103.713)">
<stop stop-color="#1A3D9C" stop-opacity="0.8"/>
<stop offset="0.01" stop-color="#1A3D9C" stop-opacity="0.78"/>
<stop offset="0.24" stop-color="#1A3D9C" stop-opacity="0.45"/>
<stop offset="0.44" stop-color="#1A3D9C" stop-opacity="0.2"/>
<stop offset="0.6" stop-color="#1A3D9C" stop-opacity="0.05"/>
<stop offset="0.7" stop-color="#1A3D9C" stop-opacity="0"/>
</radialGradient>
<radialGradient id="paint29_radial_11090_71458" cx="0" cy="0" r="1" gradientUnits="userSpaceOnUse" gradientTransform="translate(188.908 338.618) rotate(67.0272) scale(260.537 172.892)">
<stop stop-color="#1A3D9C"/>
<stop offset="0.4" stop-color="#1A3D9C" stop-opacity="0.56"/>
<stop offset="0.48" stop-color="#1A3D9C" stop-opacity="0.43"/>
<stop offset="0.69" stop-color="#1A3D9C" stop-opacity="0.12"/>
<stop offset="0.79" stop-color="#1A3D9C" stop-opacity="0"/>
</radialGradient>
<radialGradient id="paint30_radial_11090_71458" cx="0" cy="0" r="1" gradientUnits="userSpaceOnUse" gradientTransform="translate(172.35 279.578) rotate(76.1027) scale(193.249 127.581)">
<stop stop-color="#1A3D9C"/>
<stop offset="0.06" stop-color="#1A3D9C" stop-opacity="0.88"/>
<stop offset="0.21" stop-color="#1A3D9C" stop-opacity="0.61"/>
<stop offset="0.36" stop-color="#1A3D9C" stop-opacity="0.39"/>
<stop offset="0.51" stop-color="#1A3D9C" stop-opacity="0.22"/>
<stop offset="0.67" stop-color="#1A3D9C" stop-opacity="0.1"/>
<stop offset="0.83" stop-color="#1A3D9C" stop-opacity="0.02"/>
<stop offset="1" stop-color="#1A3D9C" stop-opacity="0"/>
</radialGradient>
<radialGradient id="paint31_radial_11090_71458" cx="0" cy="0" r="1" gradientUnits="userSpaceOnUse" gradientTransform="translate(172.35 279.578) rotate(76.1027) scale(193.249 127.581)">
<stop stop-color="#1B3E9E"/>
<stop offset="0.06" stop-color="#1B3E9E" stop-opacity="0.87"/>
<stop offset="0.21" stop-color="#1B3E9D" stop-opacity="0.61"/>
<stop offset="0.36" stop-color="#1A3D9D" stop-opacity="0.39"/>
<stop offset="0.52" stop-color="#1A3D9C" stop-opacity="0.22"/>
<stop offset="0.67" stop-color="#1A3D9C" stop-opacity="0.1"/>
<stop offset="0.83" stop-color="#1A3D9C" stop-opacity="0.02"/>
<stop offset="1" stop-color="#1A3D9C" stop-opacity="0"/>
</radialGradient>
<radialGradient id="paint32_radial_11090_71458" cx="0" cy="0" r="1" gradientUnits="userSpaceOnUse" gradientTransform="translate(179.815 260.641) rotate(76.1029) scale(147.844 97.6054)">
<stop stop-color="#183991"/>
<stop offset="0.03" stop-color="#183992" stop-opacity="0.95"/>
<stop offset="0.18" stop-color="#193A95" stop-opacity="0.66"/>
<stop offset="0.34" stop-color="#193B97" stop-opacity="0.42"/>
<stop offset="0.5" stop-color="#1A3C99" stop-opacity="0.24"/>
<stop offset="0.66" stop-color="#1A3D9B" stop-opacity="0.1"/>
<stop offset="0.82" stop-color="#1A3D9C" stop-opacity="0.03"/>
<stop offset="1" stop-color="#1A3D9C" stop-opacity="0"/>
</radialGradient>
<radialGradient id="paint33_radial_11090_71458" cx="0" cy="0" r="1" gradientUnits="userSpaceOnUse" gradientTransform="translate(205.961 275.64) rotate(87.1375) scale(116.826 102.841)">
<stop offset="0.04" stop-color="#2453D6" stop-opacity="0.6"/>
<stop offset="0.2" stop-color="#2453D6" stop-opacity="0.49"/>
<stop offset="0.52" stop-color="#2453D6" stop-opacity="0.2"/>
<stop offset="0.73" stop-color="#2453D6" stop-opacity="0"/>
</radialGradient>
<linearGradient id="paint34_linear_11090_71458" x1="441.304" y1="4.76912" x2="309.282" y2="331.108" gradientUnits="userSpaceOnUse">
<stop stop-color="#3774FF"/>
<stop offset="0.05" stop-color="#3774FF" stop-opacity="0.91"/>
<stop offset="0.16" stop-color="#3774FF" stop-opacity="0.66"/>
<stop offset="0.32" stop-color="#3774FF" stop-opacity="0.28"/>
<stop offset="0.43" stop-color="#3774FF" stop-opacity="0"/>
</linearGradient>
</defs>
</svg>
