<svg width="503" height="122" viewBox="0 0 503 122" fill="none" xmlns="http://www.w3.org/2000/svg">
<path fill-rule="evenodd" clip-rule="evenodd" d="M101.12 67.1685C97.8616 67.1685 94.562 66.3052 91.5712 64.4926C86.2992 61.2975 82.0603 54.2467 80.0255 48.7567C76.9064 40.34 75.9814 30.7803 73.6157 22.5247C86.6658 24.2767 100.28 26.5295 108.781 32.8953C113.364 36.3281 117.501 41.5811 119.517 47.0397C119.528 47.1716 119.537 47.3017 119.546 47.4294C119.806 51.1028 118.972 54.889 116.918 58.2771C113.448 64.0031 107.359 67.1685 101.12 67.1685M104.067 18.7765C100.842 15.4839 97.4262 12.5972 94.1414 10.3473C97.7036 12.7736 101.05 15.6628 104.067 18.7765M91.7145 8.78797C91.6242 8.73391 91.5345 8.68044 91.4448 8.62756C81.6498 2.85884 70.9013 0.102207 60.299 0.102207C56.7142 0.102207 53.1478 0.417081 49.6379 1.03732C47.7831 1.36467 45.9016 1.78649 44.1222 2.27068C43.9131 2.27781 43.7016 2.28553 43.4895 2.29504C48.8905 0.779483 54.4976 2.17878e-05 60.1422 2.17878e-05C70.7279 2.17878e-05 81.4508 2.73883 91.2315 8.49983C91.3925 8.59489 91.5541 8.69113 91.7145 8.78797" fill="white"/>
<path fill-rule="evenodd" clip-rule="evenodd" d="M119.724 47.6226C119.658 47.4283 119.589 47.2334 119.517 47.0397C119.372 45.2408 119.065 43.0824 118.43 41.4588C116.489 34.7454 111.198 26.1345 104.067 18.7766C112.188 27.0655 119.109 37.9209 119.724 47.6226M73.6158 22.5247C59.4798 20.6266 46.0061 19.3154 40.4055 13.9994C38.1319 11.8404 37.5842 8.31859 39.2762 5.52868C39.9576 4.40464 40.8874 3.58419 41.9769 3.02811C42.5051 2.75898 43.0849 2.55936 43.66 2.39836C43.8133 2.35559 43.9672 2.31281 44.1222 2.27063C44.7906 2.24865 45.4417 2.23796 46.0798 2.23796C64.3508 2.23796 70.353 11.1412 73.6158 22.5247M94.1415 10.3475C93.343 9.80335 92.5338 9.28292 91.7146 8.78803C92.5124 9.26569 93.3228 9.78671 94.1415 10.3475" fill="#5E6D82"/>
<path fill-rule="evenodd" clip-rule="evenodd" d="M119.517 47.04C117.501 41.5814 113.364 36.3284 108.781 32.8957C100.28 26.5299 86.6659 24.277 73.6159 22.525C70.3531 11.1415 64.3509 2.23825 46.0799 2.23825C45.4418 2.23825 44.7907 2.24894 44.1223 2.27092C45.9016 1.78673 47.7832 1.36492 49.638 1.03757C53.1479 0.417326 56.7143 0.10245 60.2991 0.10245C70.9014 0.10245 81.6499 2.85908 91.4449 8.62781C91.5346 8.68068 91.6243 8.73415 91.7146 8.78821C92.5339 9.2831 93.343 9.80353 94.1415 10.3477C97.4263 12.5976 100.842 15.4843 104.067 18.7768C111.198 26.1348 116.489 34.7457 118.43 41.459C119.065 43.0827 119.372 45.2411 119.517 47.04" fill="white"/>
<path fill-rule="evenodd" clip-rule="evenodd" d="M54.8791 121.867C52.5188 121.711 50.3438 121.394 48.4325 120.922C46.5813 120.641 44.3879 119.724 42.703 118.903C39.3921 117.291 36.5303 114.676 34.6226 111.203C29.716 102.27 32.9799 91.0512 41.9135 86.1445C45.4484 84.203 50.1929 83.4687 54.667 83.4687C57.031 83.4687 59.3188 83.6736 61.3144 84.0135C70.242 85.5338 79.0626 89.5713 87.462 91.634C79.4518 102.012 70.7315 112.592 61.0156 116.751C57.1468 118.406 52.5467 119.362 48.104 119.362C46.2854 119.362 44.4942 119.202 42.7892 118.865C46.2765 120.594 50.4311 121.54 54.8791 121.867M71.414 120.679C74.4659 120.076 77.4525 119.29 80.2697 118.365C77.3544 119.336 74.3715 120.105 71.414 120.679" fill="white"/>
<path fill-rule="evenodd" clip-rule="evenodd" d="M58.6015 122C57.3432 122 56.0998 121.957 54.8789 121.867C56.013 121.942 57.1906 121.98 58.4019 121.98C62.4632 121.98 66.9101 121.555 71.4139 120.679C67.1709 121.518 62.8054 122 58.6015 122M80.2696 118.365C83.8645 117.169 87.3567 115.667 90.5749 113.846C105.722 105.276 115.828 91.2325 119.819 75.6029C112.897 88.8692 105.022 92.8853 96.5522 92.8853C93.5894 92.8853 90.5541 92.3934 87.4618 91.6341C96.2201 80.2886 104.131 69.186 111.567 66.9843C112.2 66.7971 112.847 66.7062 113.489 66.7062C115.896 66.7062 118.228 67.9836 119.468 70.2417C120.101 71.3931 120.347 72.6092 120.282 73.8307C120.252 74.4224 120.135 75.0248 119.987 75.6029C119.495 77.5296 118.877 79.5359 118.177 81.4613C113.358 94.7169 103.939 106.38 90.7003 113.871C87.7375 115.547 84.1663 117.087 80.2696 118.365" fill="#5E6D82"/>
<path fill-rule="evenodd" clip-rule="evenodd" d="M58.4021 121.979C57.1907 121.979 56.0132 121.941 54.879 121.866C50.431 121.539 46.2764 120.593 42.7891 118.864C44.4941 119.201 46.2853 119.361 48.1039 119.361C52.5466 119.361 57.1467 118.405 61.0155 116.75C70.7314 112.591 79.4517 102.011 87.4619 91.6333C90.5542 92.3926 93.5895 92.8845 96.5523 92.8845C105.022 92.8845 112.897 88.8684 119.819 75.6021C115.829 91.2317 105.722 105.275 90.575 113.846C87.3568 115.667 83.8646 117.168 80.2697 118.364C77.4525 119.289 74.466 120.075 71.4141 120.678C66.9102 121.554 62.4633 121.979 58.4021 121.979" fill="white"/>
<path fill-rule="evenodd" clip-rule="evenodd" d="M23.3154 107.334C23.2524 107.334 23.1888 107.333 23.1252 107.332C21.8123 107.295 20.6383 106.893 19.6159 106.221C19.121 105.896 18.6606 105.491 18.2364 105.071C18.1223 104.958 18.0088 104.845 17.8948 104.73C18.0083 104.844 18.1223 104.958 18.2364 105.071V105.071V105.071C7.46057 87.8927 12.2294 77.7841 20.8498 68.9433C26.211 82.2173 31.7831 94.6364 29.9277 102.159C29.1916 105.143 26.4956 107.334 23.3154 107.334M14.0422 100.485C11.0099 96.819 8.39881 92.7934 6.27905 88.4844C8.39999 92.7922 11.0117 96.8167 14.0422 100.485M0.00463867 60.6503C0.00523277 60.5885 0.00642098 60.525 0.00701508 60.4632C0.0105797 60.2451 0.0153325 60.0259 0.0218676 59.8049C0.0153325 60.0402 0.00998558 60.2766 0.00642098 60.5119C0.00582687 60.5588 0.00523277 60.604 0.00463867 60.6503M5.92964 35.1276C7.81472 30.8204 10.1187 26.7573 12.7951 23.3412C10.3302 26.5131 7.95196 30.5708 5.92964 35.1276M15.1816 20.5786C15.1852 20.575 15.1894 20.5708 15.1923 20.5673C15.1923 20.5673 15.1917 20.5679 15.1917 20.5685C15.1888 20.5714 15.1846 20.575 15.1816 20.5786M19.3182 16.9897C19.5113 16.8543 19.7068 16.7218 19.9028 16.5929C19.9017 16.594 19.9011 16.5946 19.8999 16.5958C19.8761 16.6119 19.8523 16.6273 19.8286 16.6434C19.6616 16.7545 19.4911 16.8703 19.3182 16.9897" fill="#5E6D82"/>
<path fill-rule="evenodd" clip-rule="evenodd" d="M17.8949 104.73C16.5457 103.376 15.2607 101.96 14.0422 100.485C14.06 100.506 14.0778 100.528 14.0951 100.549C15.2975 101.999 16.5944 103.424 17.8949 104.73M6.27915 88.4848C2.14955 80.0973 -0.119326 70.6356 0.00484131 60.6505C-0.112197 70.6314 2.15192 80.0955 6.27915 88.4848M20.8502 68.9436C15.9352 56.7752 11.1978 43.8886 12.5191 33.3908C13.2599 27.508 15.9328 21.0757 19.9002 16.5961C22.8161 14.6718 26.3058 13.5543 30.0415 13.5543C30.2126 13.5543 30.3843 13.5567 30.556 13.5615C40.7443 13.8395 48.7765 22.3245 48.4979 32.5127C48.3298 38.6747 44.3 45.8479 40.5351 50.3322C34.7456 57.2297 26.8607 62.7786 20.8502 68.9436M0.0219742 59.8052C0.264368 51.3648 2.62295 42.5792 5.92972 35.128C2.31521 43.389 0.240604 52.5536 0.0219742 59.8052M12.7953 23.3415C13.5855 22.3249 14.3827 21.4011 15.1818 20.5789C14.3566 21.4409 13.5611 22.3642 12.7953 23.3415M15.1925 20.5677C16.2446 19.2678 17.8718 17.9887 19.3185 16.99C17.8718 18.0036 16.4959 19.2078 15.1925 20.5677" fill="white"/>
<path fill-rule="evenodd" clip-rule="evenodd" d="M18.2366 105.071C18.1225 104.958 18.0085 104.844 17.895 104.73C16.5945 103.424 15.2976 101.999 14.0951 100.549C14.0779 100.528 14.0601 100.506 14.0422 100.485C11.0117 96.817 8.40006 92.7925 6.27912 88.4847C2.15189 80.0954 -0.112228 70.6313 0.00481046 60.6504C0.00540457 60.6041 0.00599867 60.5589 0.00659277 60.512C0.0101574 60.2767 0.0155043 60.0403 0.0220394 59.805C0.240669 52.5534 2.31527 43.3888 5.92979 35.1278C7.95211 30.5711 10.3303 26.5133 12.7952 23.3414C13.561 22.3641 14.3565 21.4409 15.1817 20.5789C15.1847 20.5753 15.1889 20.5717 15.1918 20.5688C15.1918 20.5682 15.1924 20.5676 15.1924 20.5676C16.4959 19.2077 17.8718 18.0034 19.3185 16.9899C19.4913 16.8705 19.6618 16.7546 19.8288 16.6435C19.8526 16.6275 19.8763 16.6121 19.9001 16.596C15.9327 21.0755 13.2598 27.5079 12.519 33.3907C11.1977 43.8884 15.9351 56.7751 20.8501 68.9435C12.2296 77.7843 7.46078 87.8929 18.2366 105.071" fill="white"/>
<path d="M179.752 88.74C172.944 88.74 167.665 86.9887 163.916 83.486C160.216 79.9833 158.243 75.05 157.996 68.686C157.947 67.354 157.922 65.1833 157.922 62.174C157.922 59.1153 157.947 56.8953 157.996 55.514C158.243 49.1993 160.241 44.2907 163.99 40.788C167.789 37.236 173.043 35.46 179.752 35.46C184.143 35.46 187.966 36.2247 191.222 37.754C194.478 39.234 196.994 41.2813 198.77 43.896C200.546 46.4613 201.483 49.372 201.582 52.628V52.776C201.582 53.1707 201.409 53.516 201.064 53.812C200.768 54.0587 200.423 54.182 200.028 54.182H192.998C192.406 54.182 191.962 54.0587 191.666 53.812C191.37 53.5653 191.123 53.0967 190.926 52.406C190.137 49.298 188.829 47.1273 187.004 45.894C185.179 44.6113 182.737 43.97 179.678 43.97C172.574 43.97 168.874 47.9413 168.578 55.884C168.529 57.216 168.504 59.2633 168.504 62.026C168.504 64.7887 168.529 66.8853 168.578 68.316C168.874 76.2587 172.574 80.23 179.678 80.23C182.737 80.23 185.179 79.5887 187.004 78.306C188.879 77.0233 190.186 74.8527 190.926 71.794C191.074 71.1033 191.296 70.6347 191.592 70.388C191.937 70.1413 192.406 70.018 192.998 70.018H200.028C200.472 70.018 200.842 70.166 201.138 70.462C201.483 70.758 201.631 71.128 201.582 71.572C201.483 74.828 200.546 77.7633 198.77 80.378C196.994 82.9433 194.478 84.9907 191.222 86.52C187.966 88 184.143 88.74 179.752 88.74ZM228.71 88.74C222.938 88.74 218.473 87.26 215.316 84.3C212.159 81.2907 210.457 77.196 210.21 72.016L210.136 68.76L210.21 65.504C210.457 60.3733 212.183 56.3033 215.39 53.294C218.597 50.2847 223.037 48.78 228.71 48.78C234.383 48.78 238.823 50.2847 242.03 53.294C245.237 56.3033 246.963 60.3733 247.21 65.504C247.259 66.096 247.284 67.1813 247.284 68.76C247.284 70.3387 247.259 71.424 247.21 72.016C246.963 77.196 245.261 81.2907 242.104 84.3C238.947 87.26 234.482 88.74 228.71 88.74ZM228.71 81.414C231.325 81.414 233.347 80.6 234.778 78.972C236.209 77.2947 236.998 74.8527 237.146 71.646C237.195 71.1527 237.22 70.1907 237.22 68.76C237.22 67.3293 237.195 66.3673 237.146 65.874C236.998 62.6673 236.209 60.25 234.778 58.622C233.347 56.9447 231.325 56.106 228.71 56.106C226.095 56.106 224.073 56.9447 222.642 58.622C221.211 60.25 220.422 62.6673 220.274 65.874L220.2 68.76L220.274 71.646C220.422 74.8527 221.211 77.2947 222.642 78.972C224.073 80.6 226.095 81.414 228.71 81.414ZM259.479 88C258.986 88 258.566 87.8273 258.221 87.482C257.876 87.1367 257.703 86.7173 257.703 86.224V51.296C257.703 50.8027 257.876 50.3833 258.221 50.038C258.566 49.6927 258.986 49.52 259.479 49.52H265.251C265.744 49.52 266.164 49.6927 266.509 50.038C266.854 50.3833 267.027 50.8027 267.027 51.296V53.812C269.592 50.4573 273.169 48.78 277.757 48.78C283.233 48.78 287.056 50.9753 289.227 55.366C290.411 53.3927 292.088 51.814 294.259 50.63C296.43 49.3967 298.773 48.78 301.289 48.78C305.334 48.78 308.64 50.1613 311.205 52.924C313.77 55.6867 315.053 59.7073 315.053 64.986V86.224C315.053 86.7173 314.88 87.1367 314.535 87.482C314.239 87.8273 313.82 88 313.277 88H307.209C306.716 88 306.296 87.8273 305.951 87.482C305.606 87.1367 305.433 86.7173 305.433 86.224V65.578C305.433 62.47 304.767 60.2253 303.435 58.844C302.152 57.4133 300.426 56.698 298.255 56.698C296.331 56.698 294.678 57.4133 293.297 58.844C291.965 60.2747 291.299 62.5193 291.299 65.578V86.224C291.299 86.7173 291.126 87.1367 290.781 87.482C290.436 87.8273 290.016 88 289.523 88H283.455C282.962 88 282.542 87.8273 282.197 87.482C281.852 87.1367 281.679 86.7173 281.679 86.224V65.578C281.679 62.47 280.988 60.2253 279.607 58.844C278.275 57.4133 276.573 56.698 274.501 56.698C272.528 56.698 270.85 57.4133 269.469 58.844C268.137 60.2747 267.471 62.5193 267.471 65.578V86.224C267.471 86.7173 267.298 87.1367 266.953 87.482C266.608 87.8273 266.188 88 265.695 88H259.479ZM328.546 102.06C328.053 102.06 327.634 101.887 327.288 101.542C326.943 101.246 326.77 100.827 326.77 100.284V51.296C326.77 50.7533 326.943 50.334 327.288 50.038C327.634 49.6927 328.053 49.52 328.546 49.52H334.392C334.935 49.52 335.354 49.6927 335.65 50.038C335.996 50.334 336.168 50.7533 336.168 51.296V54.256C338.931 50.6053 342.878 48.78 348.008 48.78C352.991 48.78 356.814 50.3587 359.478 53.516C362.142 56.624 363.573 60.842 363.77 66.17C363.82 66.762 363.844 67.6253 363.844 68.76C363.844 69.944 363.82 70.832 363.77 71.424C363.573 76.604 362.142 80.7973 359.478 84.004C356.814 87.1613 352.991 88.74 348.008 88.74C343.026 88.74 339.227 86.9887 336.612 83.486V100.284C336.612 100.827 336.44 101.246 336.094 101.542C335.798 101.887 335.379 102.06 334.836 102.06H328.546ZM345.27 80.822C350.598 80.822 353.435 77.5413 353.78 70.98C353.83 70.4867 353.854 69.7467 353.854 68.76C353.854 67.7733 353.83 67.0333 353.78 66.54C353.435 59.9787 350.598 56.698 345.27 56.698C342.409 56.698 340.288 57.6107 338.906 59.436C337.525 61.2613 336.76 63.506 336.612 66.17L336.538 68.982L336.612 71.868C336.711 74.3347 337.476 76.456 338.906 78.232C340.386 79.9587 342.508 80.822 345.27 80.822ZM385.545 88.74C383.029 88.74 380.711 88.2467 378.589 87.26C376.517 86.224 374.865 84.8427 373.631 83.116C372.447 81.3893 371.855 79.49 371.855 77.418C371.855 74.0633 373.212 71.35 375.925 69.278C378.639 67.206 382.363 65.8 387.099 65.06L397.237 63.58V62.026C397.237 59.8553 396.695 58.2273 395.609 57.142C394.524 56.0567 392.773 55.514 390.355 55.514C388.727 55.514 387.395 55.8347 386.359 56.476C385.373 57.068 384.583 57.66 383.991 58.252C383.399 58.8933 383.005 59.3127 382.807 59.51C382.61 60.102 382.24 60.398 381.697 60.398H375.999C375.555 60.398 375.161 60.25 374.815 59.954C374.519 59.658 374.371 59.2633 374.371 58.77C374.421 57.5367 375.013 56.1307 376.147 54.552C377.331 52.9733 379.132 51.6167 381.549 50.482C383.967 49.3473 386.927 48.78 390.429 48.78C396.251 48.78 400.493 50.0873 403.157 52.702C405.821 55.3167 407.153 58.7453 407.153 62.988V86.224C407.153 86.7173 406.981 87.1367 406.635 87.482C406.339 87.8273 405.92 88 405.377 88H399.383C398.89 88 398.471 87.8273 398.125 87.482C397.78 87.1367 397.607 86.7173 397.607 86.224V83.338C396.522 84.9167 394.968 86.224 392.945 87.26C390.972 88.2467 388.505 88.74 385.545 88.74ZM388.061 81.71C390.775 81.71 392.995 80.822 394.721 79.046C396.448 77.27 397.311 74.68 397.311 71.276V69.722L389.911 70.906C387.05 71.35 384.879 72.0653 383.399 73.052C381.969 74.0387 381.253 75.2473 381.253 76.678C381.253 78.2567 381.919 79.49 383.251 80.378C384.583 81.266 386.187 81.71 388.061 81.71ZM420.643 88C420.149 88 419.73 87.8273 419.385 87.482C419.039 87.1367 418.867 86.7173 418.867 86.224V51.296C418.867 50.8027 419.039 50.3833 419.385 50.038C419.73 49.6927 420.149 49.52 420.643 49.52H426.711C427.204 49.52 427.623 49.6927 427.969 50.038C428.314 50.3833 428.487 50.8027 428.487 51.296V54.33C431.397 50.63 435.517 48.78 440.845 48.78C445.383 48.78 448.985 50.2847 451.649 53.294C454.313 56.254 455.645 60.2993 455.645 65.43V86.224C455.645 86.7173 455.472 87.1367 455.127 87.482C454.831 87.8273 454.411 88 453.869 88H447.357C446.863 88 446.444 87.8273 446.099 87.482C445.753 87.1367 445.581 86.7173 445.581 86.224V65.874C445.581 62.9633 444.865 60.7187 443.435 59.14C442.053 57.512 440.031 56.698 437.367 56.698C434.752 56.698 432.68 57.512 431.151 59.14C429.671 60.768 428.931 63.0127 428.931 65.874V86.224C428.931 86.7173 428.758 87.1367 428.413 87.482C428.117 87.8273 427.697 88 427.155 88H420.643ZM472.992 102.06C472.597 102.06 472.252 101.912 471.956 101.616C471.66 101.32 471.512 100.975 471.512 100.58C471.512 100.136 471.611 99.7413 471.808 99.396L477.58 85.706L463.372 52.184C463.175 51.74 463.076 51.3947 463.076 51.148C463.125 50.704 463.298 50.334 463.594 50.038C463.89 49.6927 464.26 49.52 464.704 49.52H470.698C471.635 49.52 472.301 49.9887 472.696 50.926L482.538 75.124L492.676 50.926C493.071 49.9887 493.737 49.52 494.674 49.52H500.594C500.989 49.52 501.334 49.668 501.63 49.964C501.975 50.26 502.148 50.6053 502.148 51C502.148 51.3453 502.049 51.74 501.852 52.184L480.91 100.654C480.466 101.591 479.775 102.06 478.838 102.06H472.992Z" fill="white"/>
</svg>
