<svg width="121" height="122" viewBox="0 0 121 122" fill="none" xmlns="http://www.w3.org/2000/svg">
<path fill-rule="evenodd" clip-rule="evenodd" d="M101.12 67.1685C97.8616 67.1685 94.562 66.3052 91.5712 64.4926C86.2992 61.2975 82.0603 54.2467 80.0255 48.7567C76.9064 40.34 75.9814 30.7803 73.6157 22.5247C86.6658 24.2767 100.28 26.5295 108.781 32.8953C113.364 36.3281 117.501 41.5811 119.517 47.0397C119.528 47.1716 119.537 47.3017 119.546 47.4294C119.806 51.1028 118.972 54.889 116.918 58.2771C113.448 64.0031 107.359 67.1685 101.12 67.1685M104.067 18.7765C100.842 15.4839 97.4262 12.5972 94.1414 10.3473C97.7036 12.7736 101.05 15.6628 104.067 18.7765M91.7145 8.78797C91.6242 8.73391 91.5345 8.68044 91.4448 8.62756C81.6498 2.85884 70.9013 0.102207 60.299 0.102207C56.7142 0.102207 53.1478 0.417081 49.6379 1.03732C47.7831 1.36467 45.9016 1.78649 44.1222 2.27068C43.9131 2.27781 43.7016 2.28553 43.4895 2.29504C48.8905 0.779483 54.4976 2.17878e-05 60.1422 2.17878e-05C70.7279 2.17878e-05 81.4508 2.73883 91.2315 8.49983C91.3925 8.59489 91.5541 8.69113 91.7145 8.78797" fill="black"/>
<path fill-rule="evenodd" clip-rule="evenodd" d="M119.724 47.6226C119.658 47.4283 119.589 47.2334 119.517 47.0397C119.372 45.2408 119.065 43.0824 118.43 41.4588C116.489 34.7454 111.198 26.1345 104.067 18.7766C112.188 27.0655 119.109 37.9209 119.724 47.6226M73.6158 22.5247C59.4798 20.6266 46.0061 19.3154 40.4055 13.9994C38.1319 11.8404 37.5842 8.31859 39.2762 5.52868C39.9576 4.40464 40.8874 3.58419 41.9769 3.02811C42.5051 2.75898 43.0849 2.55936 43.66 2.39836C43.8133 2.35559 43.9672 2.31281 44.1222 2.27063C44.7906 2.24865 45.4417 2.23796 46.0798 2.23796C64.3508 2.23796 70.353 11.1412 73.6158 22.5247M94.1415 10.3475C93.343 9.80335 92.5338 9.28292 91.7146 8.78803C92.5124 9.26569 93.3228 9.78671 94.1415 10.3475" fill="#A1927D"/>
<path fill-rule="evenodd" clip-rule="evenodd" d="M119.517 47.04C117.501 41.5814 113.364 36.3284 108.781 32.8957C100.28 26.5299 86.6659 24.277 73.6159 22.525C70.3531 11.1415 64.3509 2.23825 46.0799 2.23825C45.4418 2.23825 44.7907 2.24894 44.1223 2.27092C45.9016 1.78673 47.7832 1.36492 49.638 1.03757C53.1479 0.417326 56.7143 0.10245 60.2991 0.10245C70.9014 0.10245 81.6499 2.85908 91.4449 8.62781C91.5346 8.68068 91.6243 8.73415 91.7146 8.78821C92.5339 9.2831 93.343 9.80353 94.1415 10.3477C97.4263 12.5976 100.842 15.4843 104.067 18.7768C111.198 26.1348 116.489 34.7457 118.43 41.459C119.065 43.0827 119.372 45.2411 119.517 47.04" fill="black"/>
<path fill-rule="evenodd" clip-rule="evenodd" d="M54.8791 121.867C52.5188 121.711 50.3438 121.394 48.4325 120.922C46.5813 120.641 44.3879 119.724 42.703 118.903C39.3921 117.291 36.5303 114.676 34.6226 111.203C29.716 102.27 32.9799 91.0512 41.9135 86.1445C45.4484 84.203 50.1929 83.4687 54.667 83.4687C57.031 83.4687 59.3188 83.6736 61.3144 84.0135C70.242 85.5338 79.0626 89.5713 87.462 91.634C79.4518 102.012 70.7315 112.592 61.0156 116.751C57.1468 118.406 52.5467 119.362 48.104 119.362C46.2854 119.362 44.4942 119.202 42.7892 118.865C46.2765 120.594 50.4311 121.54 54.8791 121.867M71.414 120.679C74.4659 120.076 77.4525 119.29 80.2697 118.365C77.3544 119.336 74.3715 120.105 71.414 120.679" fill="black"/>
<path fill-rule="evenodd" clip-rule="evenodd" d="M58.6015 122C57.3432 122 56.0998 121.957 54.8789 121.867C56.013 121.942 57.1906 121.98 58.4019 121.98C62.4632 121.98 66.9101 121.555 71.4139 120.679C67.1709 121.518 62.8054 122 58.6015 122M80.2696 118.365C83.8645 117.169 87.3567 115.667 90.5749 113.846C105.722 105.276 115.828 91.2325 119.819 75.6029C112.897 88.8692 105.022 92.8853 96.5522 92.8853C93.5894 92.8853 90.5541 92.3934 87.4618 91.6341C96.2201 80.2886 104.131 69.186 111.567 66.9843C112.2 66.7971 112.847 66.7062 113.489 66.7062C115.896 66.7062 118.228 67.9836 119.468 70.2417C120.101 71.3931 120.347 72.6092 120.282 73.8307C120.252 74.4224 120.135 75.0248 119.987 75.6029C119.495 77.5296 118.877 79.5359 118.177 81.4613C113.358 94.7169 103.939 106.38 90.7003 113.871C87.7375 115.547 84.1663 117.087 80.2696 118.365" fill="#A1927D"/>
<path fill-rule="evenodd" clip-rule="evenodd" d="M58.4021 121.979C57.1907 121.979 56.0132 121.941 54.879 121.866C50.431 121.539 46.2764 120.593 42.7891 118.864C44.4941 119.201 46.2853 119.361 48.1039 119.361C52.5466 119.361 57.1467 118.405 61.0155 116.75C70.7314 112.591 79.4517 102.011 87.4619 91.6333C90.5542 92.3926 93.5895 92.8845 96.5523 92.8845C105.022 92.8845 112.897 88.8684 119.819 75.6021C115.829 91.2317 105.722 105.275 90.575 113.846C87.3568 115.667 83.8646 117.168 80.2697 118.364C77.4525 119.289 74.466 120.075 71.4141 120.678C66.9102 121.554 62.4633 121.979 58.4021 121.979" fill="black"/>
<path fill-rule="evenodd" clip-rule="evenodd" d="M23.3154 107.334C23.2524 107.334 23.1888 107.333 23.1252 107.332C21.8123 107.295 20.6383 106.893 19.6159 106.221C19.121 105.896 18.6606 105.491 18.2364 105.071C18.1223 104.958 18.0088 104.845 17.8948 104.73C18.0083 104.844 18.1223 104.958 18.2364 105.071V105.071V105.071C7.46057 87.8927 12.2294 77.7841 20.8498 68.9433C26.211 82.2173 31.7831 94.6364 29.9277 102.159C29.1916 105.143 26.4956 107.334 23.3154 107.334M14.0422 100.485C11.0099 96.819 8.39881 92.7934 6.27905 88.4844C8.39999 92.7922 11.0117 96.8167 14.0422 100.485M0.00463867 60.6503C0.00523277 60.5885 0.00642098 60.525 0.00701508 60.4632C0.0105797 60.2451 0.0153325 60.0259 0.0218676 59.8049C0.0153325 60.0402 0.00998558 60.2766 0.00642098 60.5119C0.00582687 60.5588 0.00523277 60.604 0.00463867 60.6503M5.92964 35.1276C7.81472 30.8204 10.1187 26.7573 12.7951 23.3412C10.3302 26.5131 7.95196 30.5708 5.92964 35.1276M15.1816 20.5786C15.1852 20.575 15.1894 20.5708 15.1923 20.5673C15.1923 20.5673 15.1917 20.5679 15.1917 20.5685C15.1888 20.5714 15.1846 20.575 15.1816 20.5786M19.3182 16.9897C19.5113 16.8543 19.7068 16.7218 19.9028 16.5929C19.9017 16.594 19.9011 16.5946 19.8999 16.5958C19.8761 16.6119 19.8523 16.6273 19.8286 16.6434C19.6616 16.7545 19.4911 16.8703 19.3182 16.9897" fill="#A1927D"/>
<path fill-rule="evenodd" clip-rule="evenodd" d="M17.8949 104.73C16.5457 103.376 15.2607 101.96 14.0422 100.485C14.06 100.506 14.0778 100.528 14.0951 100.549C15.2975 101.999 16.5944 103.424 17.8949 104.73M6.27915 88.4848C2.14955 80.0973 -0.119326 70.6356 0.00484131 60.6505C-0.112197 70.6314 2.15192 80.0955 6.27915 88.4848M20.8502 68.9436C15.9352 56.7752 11.1978 43.8886 12.5191 33.3908C13.2599 27.508 15.9328 21.0757 19.9002 16.5961C22.8161 14.6718 26.3058 13.5543 30.0415 13.5543C30.2126 13.5543 30.3843 13.5567 30.556 13.5615C40.7443 13.8395 48.7765 22.3245 48.4979 32.5127C48.3298 38.6747 44.3 45.8479 40.5351 50.3322C34.7456 57.2297 26.8607 62.7786 20.8502 68.9436M0.0219742 59.8052C0.264368 51.3648 2.62295 42.5792 5.92972 35.128C2.31521 43.389 0.240604 52.5536 0.0219742 59.8052M12.7953 23.3415C13.5855 22.3249 14.3827 21.4011 15.1818 20.5789C14.3566 21.4409 13.5611 22.3642 12.7953 23.3415M15.1925 20.5677C16.2446 19.2678 17.8718 17.9887 19.3185 16.99C17.8718 18.0036 16.4959 19.2078 15.1925 20.5677" fill="black"/>
<path fill-rule="evenodd" clip-rule="evenodd" d="M18.2366 105.071C18.1225 104.958 18.0085 104.844 17.895 104.73C16.5945 103.424 15.2976 101.999 14.0951 100.549C14.0779 100.528 14.0601 100.506 14.0422 100.485C11.0117 96.817 8.40006 92.7925 6.27912 88.4847C2.15189 80.0954 -0.112228 70.6313 0.00481046 60.6504C0.00540457 60.6041 0.00599867 60.5589 0.00659277 60.512C0.0101574 60.2767 0.0155043 60.0403 0.0220394 59.805C0.240669 52.5534 2.31527 43.3888 5.92979 35.1278C7.95211 30.5711 10.3303 26.5133 12.7952 23.3414C13.561 22.3641 14.3565 21.4409 15.1817 20.5789C15.1847 20.5753 15.1889 20.5717 15.1918 20.5688C15.1918 20.5682 15.1924 20.5676 15.1924 20.5676C16.4959 19.2077 17.8718 18.0034 19.3185 16.9899C19.4913 16.8705 19.6618 16.7546 19.8288 16.6435C19.8526 16.6275 19.8763 16.6121 19.9001 16.596C15.9327 21.0755 13.2598 27.5079 12.519 33.3907C11.1977 43.8884 15.9351 56.7751 20.8501 68.9435C12.2296 77.7843 7.46078 87.8929 18.2366 105.071" fill="black"/>
</svg>
