<svg width="384" height="512" viewBox="0 0 384 512" fill="none" xmlns="http://www.w3.org/2000/svg">
<path d="M224 136V0H24C10 0 0 11 0 24V488C0 502 10 512 24 512H360C373 512 384 502 384 488V160H248C234 160 224 150 224 136ZM128 280C128 285 124 288 120 288H112C103 288 96 296 96 304V336C96 345 103 352 112 352H120C124 352 128 356 128 360V376C128 381 124 384 120 384H112C85 384 64 363 64 336V304C64 278 85 256 112 256H120C124 256 128 260 128 264V280ZM172 384H160C155 384 152 381 152 376V360C152 356 155 352 160 352H172C178 352 182 349 182 346C182 345 181 343 180 342L158 323C150 316 145 306 145 295C145 274 164 257 187 257H200C204 257 208 260 208 265V281C208 285 204 289 200 289H187C181 289 177 292 177 295C177 296 178 298 179 299L201 318C209 325 214 335 214 346C214 367 195 384 172 384ZM256 264V285C256 306 261 325 272 342C282 325 288 306 288 285V264C288 260 291 256 296 256H312C316 256 320 260 320 264V285C320 321 307 354 283 379C280 383 276 384 272 384C267 384 263 383 260 379C236 354 224 321 224 285V264C224 260 227 256 232 256H248C252 256 256 260 256 264ZM377 105L279 7C274 3 268 0 262 0H256V128H384V122C384 116 381 110 377 105Z" fill="#FFB946"/>
</svg>
