<svg width="106" height="72" viewBox="0 0 106 72" fill="none" xmlns="http://www.w3.org/2000/svg">
<path d="M43.342 0C43.4948 0.0302027 33.9847 0.195317 34.6211 9.62948C30.0498 8.8068 22.8477 9.88546 17.736 13.9228C12.549 18.0197 3.79558 19.3502 0 21.3641C0 21.3641 2.07137 24.1861 4.01802 24.9472C4.52365 25.1449 5.05737 25.2572 5.60481 25.3055L7.29394 27.4489L7.47948 25.3695L8.63119 26.8219L8.79115 24.992C8.85352 24.977 8.9142 24.9693 8.97669 24.9536L9.96845 26.1949L10.1028 24.6337C12.8245 23.7879 15.5937 22.443 17.8447 22.1256C21.8732 21.5574 24.5449 22.7121 23.5327 29.6371C15.8043 25.9772 10.0614 26.8174 5.08655 28.9205C5.08655 28.9205 3.80566 31.115 5.92473 32.0429C14.767 28.7914 14.8113 33.7116 21.4405 34.0456C21.4961 34.003 21.5522 33.9608 21.6068 33.9176C26.598 29.9755 33.2498 28.748 38.108 29.2725C38.2229 24.9746 40.5117 22.4208 42.8236 21.1788C44.7284 20.1738 46.3186 19.6652 48.0446 19.7903C48.4283 19.8628 48.6473 20.3591 48.87 20.6989C48.87 20.6989 48.8154 20.8004 48.7996 20.8332L48.87 20.8397C48.7724 23.0929 48.2061 25.2849 48.1662 27.1994C48.1575 27.6182 48.1702 28.017 48.211 28.4023C51.0165 25.4425 54.0065 22.8411 56.9512 21.0955C53.0811 16.9602 48.8723 13.4934 45.1079 12.0931C41.0485 8.7985 43.1602 4.19643 43.342 0.000397657L43.342 0ZM62.1914 8.43301C62.3732 12.6293 64.485 17.2311 60.4255 20.5257C56.6264 21.9389 52.3725 25.457 48.4736 29.6433C48.7633 30.4909 49.2921 31.2739 50.2011 32.03C55.2725 34.0065 60.7046 39.125 65.282 44.6923C69.0022 41.8288 74.0898 40.3541 80.4459 42.2544C90.9284 43.8873 89.3785 36.716 99.6023 40.4757C101.721 39.5478 100.447 37.3533 100.447 37.3533C95.4718 35.2503 89.7291 34.41 82.0006 38.0699C80.9885 31.1449 83.6602 29.9966 87.6887 30.5646C89.9397 30.882 92.7086 32.2205 95.4306 33.0664L95.5649 34.6276L96.5567 33.3864C96.6192 33.4021 96.6799 33.4098 96.7422 33.4247L96.9022 35.2546L98.0539 33.8087L98.2394 35.8881L99.9286 33.7447C100.476 33.6963 101.01 33.5776 101.515 33.38C103.462 32.6189 105.533 29.7968 105.533 29.7968C101.738 27.7831 92.9781 26.4589 87.7911 22.362C82.6794 18.3247 75.4836 17.2397 70.9125 18.0624C71.5488 8.62842 62.0387 8.46321 62.1916 8.43296L62.1914 8.43301ZM29.5479 12.8734L29.7462 13.7883C29.7462 13.7883 27.7635 14.6468 26.3295 15.068C26.4867 15.2984 26.577 15.574 26.5726 15.8742C26.5612 16.6486 25.9267 17.2676 25.1522 17.2562C24.3777 17.2448 23.7588 16.6102 23.7702 15.8358C23.7723 15.7033 23.798 15.5729 23.8342 15.4519C22.621 15.5369 21.4412 15.5479 21.4412 15.5479L21.2429 14.6329C21.2429 14.6329 24.1261 14.6009 25.5168 14.3066C26.9076 14.0123 29.5477 12.8734 29.5477 12.8734L29.5479 12.8734ZM47.8533 20.7945C48.0062 20.8247 38.4898 20.9898 39.1259 30.424C34.5546 29.6013 27.359 30.6863 22.2474 34.7235C17.0603 38.8204 8.30061 40.1447 4.50504 42.1583C4.50504 42.1583 6.57641 44.9803 8.52306 45.7415C9.02869 45.9391 9.5624 46.0578 10.1098 46.1062L11.799 48.2496L11.9909 46.1701L13.1426 47.6161L13.3026 45.7862C13.3649 45.7713 13.4256 45.7636 13.4881 45.7478L14.4735 46.9891L14.6078 45.4279C17.3296 44.5821 20.0988 43.2436 22.3498 42.9261C26.3783 42.3579 29.05 43.5126 28.0378 50.4377C20.3093 46.7777 14.5664 47.6117 9.59158 49.7146C9.59158 49.7146 8.31709 51.9091 10.4362 52.8371C20.6599 49.0773 19.1102 56.2487 29.5925 54.6158C44.9954 50.0105 52.9658 65.2319 52.0121 72L74.2908 63.5158C76.0409 59.5885 60.8348 37.0617 49.6121 32.8873C45.5527 29.5927 47.6708 24.9906 47.8526 20.7946L47.8533 20.7945ZM75.9874 21.3063C75.9874 21.3063 78.6275 22.4516 80.0182 22.7459C81.409 23.0403 84.2859 23.0723 84.2859 23.0723L84.094 23.9808C84.094 23.9808 82.9142 23.9699 81.701 23.8848C81.7372 24.0058 81.7566 24.1362 81.7586 24.2687C81.77 25.0432 81.151 25.6777 80.3766 25.6891C79.6021 25.7006 78.974 25.0816 78.9626 24.3071C78.9581 24.0069 79.0485 23.7314 79.2057 23.5009C77.7717 23.0797 75.7889 22.2212 75.7889 22.2212L75.9873 21.3063L75.9874 21.3063ZM34.0527 33.6678L34.251 34.5827C34.251 34.5827 32.2747 35.4412 30.8408 35.8624C30.998 36.0929 31.0883 36.3684 31.0839 36.6686C31.0725 37.443 30.438 38.062 29.6635 38.0506C28.889 38.0392 28.2701 37.4047 28.2815 36.6302C28.2836 36.4977 28.303 36.3673 28.3391 36.2463C27.1259 36.3314 25.9524 36.3423 25.9524 36.3423L25.7541 35.4337C25.7541 35.4337 28.6373 35.4017 30.028 35.1074C31.4188 34.8131 34.0526 33.6678 34.0526 33.6678L34.0527 33.6678Z" fill="#324054"/>
</svg>
