<svg width="448" height="512" viewBox="0 0 448 512" fill="none" xmlns="http://www.w3.org/2000/svg">
<path d="M436 160C442 160 448 155 448 148V108C448 102 442 96 436 96H416V48C416 22 394 0 368 0H48C21 0 0 22 0 48V464C0 491 21 512 48 512H368C394 512 416 491 416 464V416H436C442 416 448 411 448 404V364C448 358 442 352 436 352H416V288H436C442 288 448 283 448 276V236C448 230 442 224 436 224H416V160H436ZM208 128C243 128 272 157 272 192C272 228 243 256 208 256C172 256 144 228 144 192C144 157 172 128 208 128ZM320 365C320 376 310 384 297 384H118C106 384 96 376 96 365V346C96 314 126 288 163 288H168C180 294 193 296 208 296C222 296 235 294 247 288H252C289 288 320 314 320 346V365Z" fill="#2ED47A"/>
</svg>
