<svg width="640" height="512" viewBox="0 0 640 512" fill="none" xmlns="http://www.w3.org/2000/svg">
<path d="M248.89 245.64H222.54C223.23 240.48 225.86 231.52 236.18 231.52C242.93 231.52 248.15 235.34 248.89 245.64V245.64ZM385.55 231.76C385.08 231.76 371.44 229.99 371.44 251.76C371.44 273.53 385.07 271.76 385.55 271.76C398.55 271.76 399.66 258.22 399.66 251.76C399.66 230 386 231.76 385.55 231.76ZM142.33 255.52C141.234 256.379 140.362 257.491 139.79 258.761C139.217 260.03 138.96 261.42 139.04 262.81C139.04 267.59 141.12 268.86 142.33 269.86C147.03 273.56 157.4 271.98 163.26 270.81V253.87C157.94 252.8 146.53 251.91 142.33 255.52V255.52ZM640 232C640 319.58 560 386.39 474.64 368.43C456.27 401.43 403.91 439.18 342.44 410.06C301.28 506.11 164.55 502.24 128.63 404.89C8.91008 428.78 -50.1899 266.52 53.3601 205.61C18.6101 126.18 76.0001 32 167.67 32C186.734 32.0118 205.539 36.4105 222.63 44.8554C239.721 53.3003 254.639 65.565 266.23 80.7C286.93 59.3 315.63 45.89 347.38 45.89C389.72 45.89 426.38 69.41 446.18 104.46C539 63.78 640 132.69 640 232ZM120.45 263.8C120.45 252.04 108.76 248.63 102.58 246.63C97.3101 244.52 89.1701 243.12 89.1701 237.69C89.1701 228.23 106.17 231.03 114.34 235.57C114.34 235.57 115.51 236.28 115.98 235.1C116.22 234.4 118.34 228.52 118.57 227.81C118.66 227.53 118.637 227.226 118.506 226.963C118.375 226.7 118.147 226.498 117.87 226.4C105.54 218.77 77.1701 217.89 77.1701 239.1C77.1701 251.56 88.6601 254.54 95.0501 256.27C99.7701 257.85 108.22 259.27 108.22 264.97C108.22 268.97 104.69 272.03 99.0501 272.03C92.1976 272.018 85.5325 269.791 80.0501 265.68C79.5801 265.45 78.6301 264.97 78.4001 266.39L76.0001 273.86C75.5301 274.8 76.2301 275.04 76.2301 275.27C77.9801 276.67 86.5301 281.86 99.0501 281.86C112.22 281.86 120.45 274.8 120.45 263.75V263.8ZM152.45 221.22C142.32 221.22 133.79 224.39 131.05 226.4C130.941 226.476 130.847 226.573 130.776 226.685C130.704 226.798 130.656 226.923 130.633 227.054C130.611 227.186 130.615 227.32 130.645 227.45C130.676 227.58 130.732 227.702 130.81 227.81L133.4 234.87C133.47 235.115 133.632 235.324 133.851 235.454C134.07 235.584 134.331 235.626 134.58 235.57C135.23 235.57 141.38 231.57 151.51 231.57C155.51 231.57 158.57 232.28 160.69 233.93C164.29 236.73 163.75 242.22 163.75 244.51C158.96 244.21 144.64 241.07 134.34 248.27C131.992 249.88 130.088 252.057 128.805 254.599C127.522 257.14 126.901 259.965 127 262.81C127 268.71 128.51 273.21 133.59 277.16C145.83 285.32 169.87 279.16 171.69 278.57C173.27 278.25 175.22 277.91 175.22 276.69V242.81C175.26 238.2 175.54 221.17 152.44 221.17L152.45 221.22ZM199 200.24C199.01 200.082 198.987 199.924 198.931 199.777C198.876 199.629 198.789 199.494 198.677 199.383C198.566 199.271 198.431 199.184 198.284 199.129C198.136 199.073 197.978 199.05 197.82 199.06H188C187.843 199.051 187.686 199.076 187.54 199.132C187.393 199.188 187.26 199.275 187.15 199.387C187.039 199.498 186.953 199.632 186.898 199.779C186.843 199.926 186.82 200.083 186.83 200.24V279.24C186.82 279.397 186.843 279.554 186.898 279.701C186.953 279.848 187.039 279.982 187.15 280.093C187.26 280.205 187.393 280.292 187.54 280.348C187.686 280.404 187.843 280.429 188 280.42H197.88C198.038 280.43 198.196 280.407 198.344 280.351C198.491 280.296 198.626 280.209 198.737 280.097C198.849 279.986 198.936 279.851 198.991 279.703C199.047 279.556 199.07 279.398 199.06 279.24L199 200.24ZM254.75 229.17C252.65 226.86 247.96 221.64 237.1 221.64C233.59 221.64 222.94 221.87 216.4 230.58C210.05 238.21 209.82 248.69 209.82 251.99C209.82 255.11 209.97 266.25 216.88 273.16C219.52 276.07 225.94 281.39 239.69 281.39C250.51 281.39 256.16 279.04 258.27 277.63C258.74 277.39 258.98 276.92 258.51 275.75L256.16 268.92C256.039 268.661 255.834 268.45 255.578 268.323C255.322 268.195 255.03 268.159 254.75 268.22C252.16 269.16 248.4 271.04 239.46 271.04C222.04 271.04 222.61 256.3 222.52 254.34H259.69C259.962 254.334 260.223 254.239 260.435 254.069C260.647 253.899 260.796 253.664 260.86 253.4C260.57 253.4 262.93 238.7 254.77 229.17H254.75ZM291.44 281.86C304.61 281.86 312.85 274.8 312.85 263.75C312.85 251.99 301.15 248.58 294.97 246.58C290.83 244.92 281.56 243.2 281.56 237.64C281.56 233.88 284.85 231.29 290.03 231.29C295.847 231.407 301.559 232.854 306.73 235.52C306.73 235.52 307.91 236.23 308.38 235.05C308.61 234.35 310.73 228.47 310.96 227.76C311.05 227.48 311.027 227.176 310.896 226.913C310.765 226.65 310.537 226.448 310.26 226.35C302.35 221.45 293.52 221.41 290.03 221.41C278.03 221.41 269.57 228.7 269.57 239.05C269.57 251.51 281.05 254.49 287.44 256.22C293.55 258.22 300.61 259.48 300.61 264.92C300.61 268.92 297.09 271.98 291.44 271.98C284.588 271.966 277.924 269.738 272.44 265.63C272.298 265.508 272.125 265.429 271.94 265.4C271.755 265.372 271.566 265.396 271.394 265.47C271.222 265.544 271.074 265.665 270.967 265.819C270.861 265.972 270.799 266.153 270.79 266.34L268.44 273.86C267.97 274.8 268.67 275.04 268.67 275.27C270.39 276.67 279 281.86 291.46 281.86H291.44ZM357.09 224C357.09 223.29 356.85 222.82 355.91 222.82H344.15C344.15 222.68 345.09 213.88 348.62 210.35C352.78 206.2 360.38 208.71 360.62 208.71C361.79 209.18 362.03 208.71 362.26 208.24L365.09 200.47C365.79 199.53 365.09 199.3 364.85 199.06C359.76 197.06 347.5 196.19 340.39 203.3C334.91 208.78 333.39 217.22 332.39 222.82H323.92C323.617 222.845 323.332 222.978 323.118 223.194C322.903 223.411 322.773 223.696 322.75 224L321.33 231.76C321.33 232.46 321.57 232.93 322.51 232.93H330.74C322.23 280.83 321.99 283.14 320.39 288.45C319.31 292.07 317.1 295.35 314.51 296.21C314.42 296.21 310.63 297.89 304.87 295.97C304.87 295.97 303.93 295.5 303.46 296.68C303.22 297.39 300.87 303.5 300.63 304.21C300.39 304.92 300.63 305.62 301.1 305.62C306.21 307.62 314.1 307.39 318.98 305.62C325.26 303.34 328.7 297.73 330.51 292.68C333.26 284.97 333.32 282.89 342.27 232.94H354.5C354.805 232.915 355.09 232.783 355.307 232.566C355.523 232.35 355.655 232.065 355.68 231.76L357.09 224ZM410.48 240C409.92 238.32 405.38 221.89 385.31 221.89C370.06 221.89 362.31 231.89 360.15 240C359.15 243 356.97 254 360.15 263.52C360.24 263.82 364.56 281.64 385.31 281.64C400.26 281.64 408.21 272.03 410.48 263.52C413.69 253.91 411.49 243 410.48 240V240ZM455.88 223.3C450.88 221.65 439.26 221.4 433.77 228.71V224.24C433.779 224.083 433.754 223.926 433.698 223.78C433.642 223.633 433.555 223.5 433.443 223.389C433.332 223.279 433.198 223.193 433.051 223.138C432.904 223.083 432.747 223.06 432.59 223.07H423.19C423.033 223.06 422.876 223.083 422.729 223.138C422.582 223.193 422.448 223.279 422.337 223.389C422.225 223.5 422.138 223.633 422.082 223.78C422.026 223.926 422.001 224.083 422.01 224.24V279.52C422.001 279.677 422.026 279.835 422.082 279.982C422.138 280.129 422.225 280.262 422.336 280.374C422.448 280.485 422.581 280.572 422.728 280.628C422.876 280.684 423.033 280.709 423.19 280.7H432.83C432.987 280.709 433.145 280.684 433.292 280.628C433.439 280.572 433.572 280.485 433.684 280.374C433.795 280.262 433.882 280.129 433.938 279.982C433.994 279.835 434.019 279.677 434.01 279.52V251.75C434.01 248.84 434.06 240.38 438.47 236.7C443.37 231.8 450.47 233.34 451.88 233.64C452.18 233.635 452.473 233.543 452.723 233.377C452.973 233.21 453.17 232.975 453.29 232.7C454.464 230.095 455.485 227.424 456.35 224.7C456.449 224.447 456.456 224.167 456.371 223.91C456.285 223.652 456.111 223.433 455.88 223.29V223.3ZM502.69 277.4L500.57 270.11C500.1 268.93 499.16 269.4 499.16 269.4C494.93 271.22 489.01 271.29 487.87 271.29C483.23 271.29 470.7 270.16 470.7 251.53C470.7 245.3 472.55 231.77 487.17 231.77C491.075 231.67 494.97 232.228 498.69 233.42C498.69 233.42 499.63 233.89 499.87 232.71C500.81 230.12 501.51 228.24 502.46 225.18C502.69 224.24 501.99 224.01 501.75 224.01C490.16 220.14 479.41 221.48 473.99 224.01C472.4 224.75 457.76 230.5 457.76 251.53C457.76 254.43 457.18 281.64 486.7 281.64C492.001 281.63 497.257 280.671 502.22 278.81C502.435 278.651 502.596 278.429 502.68 278.174C502.764 277.92 502.768 277.646 502.69 277.39V277.4ZM556.56 237.88C555.76 234.88 551.19 221.65 534.21 221.65C518.21 221.65 510.69 231.76 508.57 240.24C507.416 244.051 506.86 248.018 506.92 252C506.92 277.87 525.76 281.4 536.8 281.4C547.62 281.4 553.26 279.05 555.38 277.64C555.85 277.4 556.09 276.93 555.62 275.76L553.26 268.93C553.139 268.671 552.934 268.46 552.678 268.333C552.422 268.205 552.13 268.169 551.85 268.23C549.26 269.17 545.5 271.05 536.56 271.05C519.14 271.05 519.71 256.31 519.63 254.35H556.79C557.062 254.343 557.325 254.248 557.538 254.078C557.751 253.908 557.903 253.674 557.97 253.41C557.73 253.4 558.91 246.34 556.56 237.87V237.88ZM533.27 231.53C522.94 231.53 520.27 240.53 519.63 245.65H546C545.12 233.73 538.38 231.52 533.27 231.52V231.53Z" fill="#47A0DB"/>
</svg>
