<svg width="603" height="527" viewBox="0 0 603 527" fill="none" xmlns="http://www.w3.org/2000/svg">
<path fill-rule="evenodd" clip-rule="evenodd" d="M56.5312 0H546.469C577.09 0 603 25.8795 603 56.4643V470.536C603 502.297 577.09 527 546.469 527H56.5312C24.7324 527 0 502.297 0 470.536V56.4643C0 25.8795 24.7324 0 56.5312 0ZM162.864 149.857C165.337 147.381 168.798 147.381 171.271 149.857L278.331 259.79C280.309 262.266 280.309 265.734 278.331 268.21L171.271 378.143C168.798 380.619 165.337 380.619 162.864 378.143L145.484 362.316C143.505 359.84 143.505 355.877 145.484 353.896L234.992 263.752L145.484 174.104C143.505 172.123 143.505 168.16 145.484 165.684L162.864 149.857ZM460 344.193V368.755C460 372.222 457.033 374.698 454.066 374.698H291.862C288.401 374.698 285.928 372.222 285.928 368.755V344.193C285.928 341.222 288.401 338.25 291.862 338.25H454.066C457.033 338.25 460 341.222 460 344.193Z" fill="#00B2B2"/>
</svg>
