<svg width="96" height="672" viewBox="0 0 96 672" fill="none" xmlns="http://www.w3.org/2000/svg">
<g clip-path="url(#clip0)">
<rect x="12" y="213" width="72" height="50" rx="2" fill="#020202"/>
<path fill-rule="evenodd" clip-rule="evenodd" d="M6 263H90V265.5C89.4478 266.333 87.7912 268 81.165 268H50.7273H45.2727H14.835C8.20875 268 6.55219 266.333 6 265.5V263Z" fill="#878787"/>
<rect x="14" y="217" width="68" height="42" fill="#F3F3F4"/>
<rect x="47" y="214" width="1" height="1" fill="white"/>
<path d="M44.6365 238.001C44.6365 239.855 46.1453 241.364 48 241.364C49.8546 241.364 51.3634 239.855 51.3634 238.001C51.3634 236.146 49.8546 234.637 48 234.637C46.1453 234.637 44.6365 236.146 44.6365 238.001Z" fill="black"/>
<path d="M55.7449 233.561C55.7711 233.515 55.7706 233.458 55.7435 233.413C54.9601 232.093 53.8451 230.988 52.5193 230.216C51.1527 229.421 49.5899 229.001 48 229.001C45.2483 229.001 42.6839 230.236 40.9643 232.389C40.9264 232.436 40.9214 232.502 40.9518 232.554L43.4854 236.943C43.5119 236.989 43.5609 237.016 43.6131 237.016C43.6197 237.016 43.6264 237.016 43.6331 237.015C43.6925 237.007 43.741 236.964 43.756 236.906C44.2556 234.97 46.0008 233.618 48 233.618C48.124 233.618 48.2521 233.624 48.3809 233.635C48.3851 233.635 48.3893 233.635 48.3935 233.635H55.6166C55.6697 233.635 55.7187 233.607 55.7449 233.561Z" fill="black"/>
<path d="M49.3299 242.275C49.2933 242.228 49.2318 242.207 49.1738 242.223C48.7927 242.329 48.3978 242.383 48 242.383C46.3097 242.383 44.7519 241.392 44.0311 239.858C44.0293 239.854 44.0274 239.85 44.0253 239.846L40.4111 233.587C40.3848 233.541 40.3361 233.513 40.2834 233.513C40.2831 233.513 40.2828 233.513 40.2826 233.513C40.2296 233.513 40.1808 233.542 40.1548 233.588C39.3994 234.929 39 236.454 39 238.001C39 240.17 39.7826 242.265 41.2035 243.9C42.6103 245.52 44.5471 246.585 46.6573 246.901C46.6646 246.902 46.6719 246.902 46.6792 246.902C46.7313 246.902 46.7802 246.875 46.8069 246.829L49.3411 242.439C49.3711 242.387 49.3666 242.322 49.3299 242.275Z" fill="black"/>
<path d="M56.2431 234.62H51.1692C51.1092 234.62 51.0552 234.656 51.0326 234.712C51.01 234.767 51.0231 234.831 51.0659 234.873C51.9149 235.705 52.3824 236.816 52.3824 238.001C52.3824 238.898 52.1118 239.761 51.5997 240.497C51.5973 240.5 51.5951 240.504 51.5931 240.507L47.9726 246.778C47.9461 246.824 47.9463 246.881 47.9731 246.926C47.9995 246.972 48.0481 246.999 48.1004 246.999C48.1009 246.999 48.1015 246.999 48.1021 246.999C50.4846 246.973 52.7203 246.025 54.3973 244.331C56.0756 242.635 57 240.387 57 238.001C57 236.867 56.7915 235.761 56.3804 234.714C56.3582 234.657 56.3037 234.62 56.2431 234.62Z" fill="black"/>
<rect x="18" y="262" width="6" height="1" fill="#979797"/>
<rect x="71" y="262" width="6" height="1" fill="#979797"/>
<rect x="30" y="299" width="36" height="74.25" rx="3.46875" fill="black"/>
<rect x="33.375" y="302.375" width="29.25" height="67.5" rx="1.15625" fill="#F3F3F4"/>
<rect x="39" y="300.125" width="16.875" height="4.5" rx="1.15625" fill="black"/>
<g clip-path="url(#clip1)">
<path d="M56.6227 341.578C56.2996 342.322 55.917 343.006 55.4738 343.635C54.8697 344.492 54.3751 345.086 53.9938 345.415C53.4029 345.956 52.7698 346.233 52.0918 346.249C51.605 346.249 51.018 346.111 50.3348 345.832C49.6492 345.553 49.0192 345.415 48.4432 345.415C47.8391 345.415 47.1911 345.553 46.4981 345.832C45.804 346.111 45.2449 346.257 44.8174 346.271C44.1672 346.299 43.5191 346.014 42.8723 345.415C42.4594 345.057 41.943 344.442 41.3243 343.572C40.6606 342.642 40.1149 341.564 39.6874 340.335C39.2295 339.007 39 337.722 39 336.477C39 335.052 39.3095 333.822 39.9293 332.792C40.4164 331.964 41.0645 331.311 41.8756 330.832C42.6867 330.353 43.5631 330.108 44.5068 330.093C45.0233 330.093 45.7005 330.252 46.542 330.564C47.3812 330.878 47.9201 331.037 48.1563 331.037C48.3329 331.037 48.9315 330.851 49.9463 330.48C50.9059 330.137 51.7158 329.994 52.3793 330.05C54.1772 330.195 55.5279 330.9 56.4262 332.171C54.8183 333.141 54.0229 334.5 54.0387 336.242C54.0532 337.6 54.5479 338.729 55.52 339.626C55.9606 340.042 56.4526 340.364 57 340.592C56.8813 340.935 56.756 341.263 56.6227 341.578V341.578ZM52.4993 325.426C52.4993 326.49 52.1089 327.483 51.3306 328.403C50.3915 329.496 49.2555 330.127 48.0236 330.028C48.0079 329.9 47.9988 329.766 47.9988 329.625C47.9988 328.603 48.4454 327.51 49.2386 326.617C49.6346 326.164 50.1382 325.788 50.7489 325.488C51.3583 325.192 51.9348 325.029 52.4769 325.001C52.4927 325.143 52.4993 325.285 52.4993 325.426V325.426Z" fill="black"/>
</g>
<g clip-path="url(#clip2)">
<rect x="30" y="107" width="36" height="74.25" rx="3.375" fill="black"/>
<rect x="33.375" y="113.75" width="29.25" height="64.125" rx="1.125" fill="#F3F3F4"/>
<path d="M47.5592 145.93C50.9188 145.93 53.6423 143.416 53.6423 140.315C53.6423 137.214 50.9188 134.7 47.5592 134.7C44.1996 134.7 41.4761 137.214 41.4761 140.315C41.4761 143.416 44.1996 145.93 47.5592 145.93Z" fill="black" stroke="#F3F3F4" stroke-width="0.715906"/>
<rect x="41.4761" y="138.911" width="12.1662" height="12.1662" rx="1.09375" fill="black" stroke="#F3F3F4" stroke-width="0.715906"/>
<rect width="0.869016" height="5.74887" rx="0.323152" transform="matrix(-0.87462 0.48481 0.48481 0.87462 43.9534 133)" fill="black" stroke="#F3F3F4" stroke-width="0.357953"/>
<rect width="3.20867" height="8.8907" rx="1.19318" transform="matrix(-1 0 0 1 57.1183 140.315)" fill="black" stroke="#F3F3F4" stroke-width="0.357953"/>
<rect width="3.20867" height="8.8907" rx="1.19318" transform="matrix(-1 0 0 1 51.4363 146.799)" fill="black" stroke="#F3F3F4" stroke-width="0.357953"/>
<rect x="51.1648" y="133" width="0.869016" height="5.74887" rx="0.323152" transform="rotate(29 51.1648 133)" fill="black" stroke="#F3F3F4" stroke-width="0.357953"/>
<rect x="38" y="140.315" width="3.20867" height="8.8907" rx="1.19318" fill="black" stroke="#F3F3F4" stroke-width="0.357953"/>
<rect x="43.682" y="146.799" width="3.20867" height="8.8907" rx="1.19318" fill="black" stroke="#F3F3F4" stroke-width="0.357953"/>
<path d="M47.5592 145.93C50.9188 145.93 53.6423 143.416 53.6423 140.315C53.6423 137.214 50.9188 134.7 47.5592 134.7C44.1996 134.7 41.4761 137.214 41.4761 140.315C41.4761 143.416 44.1996 145.93 47.5592 145.93Z" fill="black"/>
<rect x="41.4761" y="138.911" width="12.1662" height="12.1662" rx="1.09375" fill="black"/>
<path d="M41.2086 140.549H53.9096Z" fill="black"/>
<path d="M41.2086 140.549H53.9096" stroke="#F3F3F4" stroke-width="0.357953"/>
<path d="M44.7515 137.842C44.8992 137.842 45.0189 137.722 45.0189 137.574C45.0189 137.427 44.8992 137.307 44.7515 137.307C44.6038 137.307 44.4841 137.427 44.4841 137.574C44.4841 137.722 44.6038 137.842 44.7515 137.842Z" fill="black" stroke="#F3F3F4" stroke-width="0.357953"/>
<path d="M50.3668 137.842C50.5144 137.842 50.6341 137.722 50.6341 137.574C50.6341 137.427 50.5144 137.307 50.3668 137.307C50.2191 137.307 50.0994 137.427 50.0994 137.574C50.0994 137.722 50.2191 137.842 50.3668 137.842Z" fill="black" stroke="#F3F3F4" stroke-width="0.357953"/>
<rect x="45.75" y="109.25" width="5.625" height="1.125" fill="#C4C4C4"/>
<rect x="43.5" y="109.25" width="1.125" height="1.125" fill="#C4C4C4"/>
</g>
<rect x="12" y="405" width="72" height="50" rx="2" fill="#020202"/>
<path fill-rule="evenodd" clip-rule="evenodd" d="M6 455H90V457.5C89.4478 458.333 87.7912 460 81.165 460H50.7273H45.2727H14.835C8.20875 460 6.55219 458.333 6 457.5V455Z" fill="#878787"/>
<rect x="14" y="409" width="68" height="42" fill="#F3F3F4"/>
<rect x="47" y="407" width="1" height="1" fill="white"/>
<g clip-path="url(#clip3)">
<path d="M56.6228 435.578C56.2996 436.322 55.9171 437.006 55.4738 437.635C54.8697 438.492 54.3751 439.086 53.9938 439.415C53.4029 439.956 52.7698 440.233 52.0918 440.249C51.605 440.249 51.018 440.111 50.3348 439.832C49.6492 439.553 49.0192 439.415 48.4432 439.415C47.8391 439.415 47.1912 439.553 46.4981 439.832C45.804 440.111 45.2449 440.257 44.8174 440.271C44.1672 440.299 43.5191 440.014 42.8723 439.415C42.4594 439.057 41.943 438.442 41.3243 437.572C40.6606 436.642 40.1149 435.564 39.6874 434.335C39.2295 433.007 39 431.722 39 430.477C39 429.052 39.3095 427.822 39.9293 426.792C40.4164 425.964 41.0645 425.311 41.8756 424.832C42.6867 424.353 43.5631 424.108 44.5068 424.093C45.0233 424.093 45.7005 424.252 46.542 424.564C47.3812 424.878 47.9201 425.037 48.1563 425.037C48.3329 425.037 48.9315 424.851 49.9463 424.48C50.9059 424.137 51.7158 423.994 52.3793 424.05C54.1772 424.195 55.5279 424.9 56.4262 426.171C54.8183 427.141 54.0229 428.5 54.0387 430.242C54.0532 431.6 54.5479 432.729 55.52 433.626C55.9606 434.042 56.4526 434.364 57 434.592C56.8813 434.935 56.756 435.263 56.6228 435.578V435.578ZM52.4993 419.426C52.4993 420.49 52.1089 421.483 51.3307 422.403C50.3915 423.496 49.2555 424.127 48.0236 424.028C48.0079 423.9 47.9988 423.766 47.9988 423.625C47.9988 422.603 48.4455 421.51 49.2386 420.617C49.6346 420.164 50.1382 419.788 50.7489 419.488C51.3584 419.192 51.9348 419.029 52.4769 419.001C52.4928 419.143 52.4993 419.285 52.4993 419.426V419.426Z" fill="black"/>
</g>
<rect x="45" y="455" width="6" height="1" fill="#A8A8A8"/>
<rect x="11" y="504" width="72" height="44" fill="black"/>
<rect x="6" y="549" width="82" height="3" fill="black"/>
<rect x="16" y="509" width="62" height="34" fill="#F3F3F4"/>
<g clip-path="url(#clip4)">
<path d="M54.0084 532.668C53.5271 532.278 53.7144 531.416 53.2147 530.99C53.6986 528.046 52.3424 525.451 50.7254 523.787C49.3683 522.392 49.8057 521.034 49.8057 519.859C49.8057 517.981 49.0349 516 46.6995 516C44.2031 516 43.5189 518.082 43.4944 519.271C43.4349 522.125 44.071 522.867 42.4006 524.944C40.4354 527.388 40.1457 529.826 40.5894 531.119C40.382 531.361 40.102 531.628 39.5788 531.85C38.1333 532.48 39.1929 533.534 38.793 534.282C38.6792 534.495 38.625 534.717 38.625 534.93C38.625 535.586 39.1465 536.154 40.0941 536.069C41.3725 535.955 42.552 536.861 43.315 536.861C43.9887 536.861 44.5417 536.478 44.799 535.95C46.0039 535.653 47.4914 535.691 48.6954 536.002C48.9115 536.606 49.4977 537 50.1496 537C51.5767 537 51.8515 535.382 53.4886 534.834C54.0784 534.637 54.375 534.065 54.375 533.532C54.375 533.191 54.2534 532.866 54.0084 532.668ZM46.0048 523.511C45.7256 523.511 45.4946 523.285 45.1298 523.014C44.6678 522.671 44.1979 522.473 44.2031 522.113C44.2031 521.865 44.5348 521.789 44.9635 521.517C45.4238 521.225 45.6031 520.93 46.0564 520.93C46.5201 520.93 46.6601 521.164 47.2901 521.436C47.9096 521.705 48.341 521.81 48.341 522.113C48.341 522.423 47.6926 522.646 47.3278 522.872C46.7914 523.203 46.5158 523.511 46.0048 523.511V523.511ZM47.4616 518.948C48.2334 519.071 48.32 520.427 47.9507 521.095L47.6401 520.968C47.8011 520.493 47.7985 519.711 47.2595 519.661C46.9174 519.63 46.6969 520.081 46.6496 520.468C46.5157 520.412 46.3696 520.372 46.192 520.357C46.2462 519.549 46.7677 518.837 47.4616 518.948V518.948ZM44.484 519.238C45.0755 519.091 45.4246 519.778 45.4273 520.493L45.156 520.659C45.1192 520.359 44.9854 519.875 44.6494 519.978C44.2898 520.09 44.3484 520.925 44.5488 521.097L44.281 521.246C43.9135 520.627 43.9144 519.379 44.484 519.238V519.238ZM42.6334 536.075C40.9157 535.294 40.3321 535.471 40.004 535.471C39.3241 535.471 39.1019 534.965 39.3574 534.485C39.5744 534.078 39.507 533.652 39.4536 533.31C39.3714 532.786 39.3565 532.615 39.8719 532.39C40.585 532.087 40.9018 531.698 41.138 531.406C41.8013 530.586 42.4706 531.876 43.0193 533.025C43.3754 533.77 44.0763 534.147 44.2924 534.972C44.491 535.734 43.6711 536.548 42.6334 536.075V536.075ZM48.747 534.435C47.536 535.024 45.9934 535.295 44.8393 534.697C44.6686 534.204 44.3956 533.886 44.1016 533.566C44.5732 533.441 44.9232 532.853 44.5041 532.263C44.057 531.632 43.1435 531.192 42.2204 530.478C41.3568 529.81 41.0837 528.164 42.2597 526.325C41.6866 527.954 42.0217 529.456 42.3096 529.885C42.3691 529.021 42.4374 527.577 43.6186 525.847C44.2145 524.974 44.2233 523.821 44.2364 523.1L44.7789 523.471C45.1779 523.766 45.5121 524.09 45.9916 524.09C46.7004 524.09 47.0924 523.682 47.6384 523.344C47.8519 523.213 48.1747 523.08 48.446 522.895C48.901 525.062 50.7857 527.667 50.8916 529.151C51.33 528.248 50.7674 526.076 50.7674 526.076C51.5041 527.201 51.5627 528.138 51.5951 529.288C52.1105 529.499 52.6635 530.048 52.7142 530.772L52.4999 530.747C52.3896 529.943 50.2188 528.762 50.0236 530.276C48.9824 530.434 49.3612 532.083 49.1512 533.153C49.055 533.642 48.8765 534.029 48.747 534.435V534.435ZM52.9872 534.399C52.1254 534.732 51.5435 535.438 51.1436 535.876C50.3736 536.722 49.3551 536.317 49.2466 535.526C49.132 534.68 49.5616 534.219 49.7471 533.273C49.916 532.41 49.727 531.081 50.1243 530.939C50.3824 532.473 51.932 531.828 52.2855 531.41C52.8604 531.41 52.9085 531.604 53.0371 532.142C53.1176 532.479 53.2287 532.762 53.5429 533.096C53.9086 533.487 53.7966 534.087 52.9872 534.399ZM45.9872 523.019C45.4176 523.019 44.9915 522.64 44.645 522.346C44.4674 522.197 44.6888 521.92 44.8664 522.071C45.205 522.358 45.5462 522.661 45.9872 522.661C46.5184 522.661 46.9865 522.207 47.6209 521.957C47.837 521.872 47.9604 522.206 47.746 522.291C47.13 522.534 46.6356 523.019 45.9872 523.019V523.019Z" fill="black"/>
</g>
<rect x="30" y="594" width="35" height="61" rx="1" fill="black"/>
<rect x="32" y="600" width="31" height="50" rx="1" fill="#F3F3F4"/>
<path d="M38 618.491V624.598H45.3929V617.446L38 618.491ZM38 631.509V625.482H45.3929V632.554L38 631.509ZM46.1964 632.634V625.482H56V634L46.1964 632.634ZM46.1964 617.366L56 616V624.598H46.1964V617.366Z" fill="black"/>
<rect x="46" y="596" width="2" height="2" rx="1" fill="#C4C4C4"/>
<rect x="45" y="652" width="5" height="1" fill="#C4C4C4"/>
<rect x="31" y="18" width="35" height="61" rx="1" fill="black"/>
<rect x="33" y="24" width="31" height="50" rx="1" fill="#F3F3F4"/>
<rect x="47" y="20" width="2" height="2" rx="1" fill="#C4C4C4"/>
<rect x="46" y="76" width="5" height="1" fill="#C4C4C4"/>
</g>
<defs>
<clipPath id="clip0">
<rect width="96" height="672" fill="white"/>
</clipPath>
<clipPath id="clip1">
<rect x="39" y="325" width="18" height="21.2727" fill="white"/>
</clipPath>
<clipPath id="clip2">
<rect y="96" width="96" height="96" fill="white"/>
</clipPath>
<clipPath id="clip3">
<rect x="39" y="419" width="18" height="21.2727" fill="white"/>
</clipPath>
<clipPath id="clip4">
<rect x="36" y="516" width="21" height="21" fill="white"/>
</clipPath>
</defs>
</svg>
