<svg width="157" height="157" viewBox="0 0 157 157" fill="none" xmlns="http://www.w3.org/2000/svg">
<g clip-path="url(#clip0_7474_158760)">
<path d="M154.497 121.24L94.4878 17.3008C91.151 11.5212 85.1743 8.07031 78.4999 8.07031C71.8259 8.07031 65.8489 11.5212 62.512 17.3008L2.50287 121.24C-0.834291 127.02 -0.834291 133.921 2.50287 139.701C5.84004 145.481 11.8165 148.932 18.4908 148.932H138.509C145.183 148.932 151.16 145.481 154.497 139.701C157.834 133.921 157.834 127.02 154.497 121.24ZM148.531 137.102C146.857 140.003 141.858 141.734 138.509 141.734H18.4908C15.1417 141.734 10.1427 140.003 8.46846 137.102C6.79421 134.202 6.79421 126.74 8.46846 123.839L68.4782 19.9001C70.1525 16.9999 75.1514 15.2686 78.5002 15.2686C81.8487 15.2686 86.848 16.9999 88.5222 19.9001L148.532 123.839C150.206 126.74 150.206 134.202 148.531 137.102Z" fill="#F7685B"/>
<path d="M82.1003 53.9727H74.9023V99.9632H82.1003V53.9727Z" fill="#F7685B"/>
<path d="M78.4972 109.16C75.6685 109.16 73.3672 111.461 73.3672 114.29C73.3672 117.119 75.6685 119.42 78.4972 119.42C81.3257 119.42 83.6272 117.119 83.6272 114.29C83.6272 111.461 81.3259 109.16 78.4972 109.16Z" fill="#F7685B"/>
</g>
<defs>
<clipPath id="clip0_7474_158760">
<rect width="157" height="157" fill="white"/>
</clipPath>
</defs>
</svg>
