<svg width="512" height="512" viewBox="0 0 512 512" fill="none" xmlns="http://www.w3.org/2000/svg">
<path d="M262.105 118.154C284.526 118.154 312.632 102.53 329.368 81.6987C344.526 62.8201 355.579 36.4552 355.579 10.0903C355.579 6.50984 355.263 2.92943 354.632 0C329.684 0.976478 299.684 17.2511 281.684 39.0591C267.474 55.6592 254.526 81.6987 254.526 108.389C254.526 112.295 255.158 116.201 255.474 117.503C257.053 117.828 259.579 118.154 262.105 118.154ZM183.158 512C213.789 512 227.368 490.843 265.579 490.843C304.421 490.843 312.947 511.349 347.053 511.349C380.526 511.349 402.947 479.451 424.105 448.203C447.789 412.399 457.579 377.246 458.211 375.619C456 374.968 391.895 347.952 391.895 272.112C391.895 206.362 442.421 176.743 445.263 174.464C411.789 124.989 360.947 123.687 347.053 123.687C309.474 123.687 278.842 147.123 259.579 147.123C238.737 147.123 211.263 124.989 178.737 124.989C116.842 124.989 54 177.719 54 277.32C54 339.163 77.3684 404.587 106.105 446.901C130.737 482.706 152.211 512 183.158 512Z" fill="#232F3E"/>
</svg>