<svg width="121" height="125" viewBox="0 0 121 125" fill="none" xmlns="http://www.w3.org/2000/svg">
<g clip-path="url(#clip0)">
<path d="M107.415 49.9121L116.943 59.6527C118.136 60.8496 118.792 62.4407 118.792 64.1328C118.792 65.825 118.136 67.4161 116.943 68.613C115.753 69.8099 114.169 70.4688 112.483 70.4688C110.798 70.4688 109.214 69.8099 108.021 68.6114L105.888 69.4436V107.767C105.888 111.843 102.586 115.16 98.5265 115.16C94.467 115.16 91.1652 111.843 91.1652 107.767C91.1652 107.186 90.6961 106.716 90.1183 106.716C89.541 106.716 89.0718 107.186 89.0718 107.767C89.0718 111.843 85.7701 115.16 81.7105 115.16C77.651 115.16 74.3493 111.843 74.3493 107.767C74.3493 107.186 73.8801 106.716 73.3023 106.716C72.725 106.716 72.2553 107.186 72.2553 107.767C72.2553 111.843 68.9541 115.16 64.8946 115.16C60.835 115.16 57.5327 111.843 57.5327 107.767C57.5327 107.186 57.0636 106.716 56.4863 106.716C55.9085 106.716 55.4393 107.186 55.4393 107.767C55.4393 111.843 52.1376 115.16 48.078 115.16C44.0185 115.16 40.7168 111.843 40.7168 107.767C40.7168 107.186 40.2476 106.716 39.6698 106.716C39.0925 106.716 38.6233 107.186 38.6233 107.767C38.6233 111.843 35.3216 115.16 31.2621 115.16C27.2025 115.16 23.9008 111.843 23.9008 107.767V66.4436L21.7653 68.613C19.306 71.0828 15.3035 71.0833 12.8437 68.613C10.3844 66.1427 10.3844 62.1235 12.85 59.6463L22.3724 49.9121C22.5641 49.7153 22.6727 49.4511 22.6727 49.1756V44.4013C22.6727 21.0213 41.613 2 64.8946 2C88.175 2 107.115 21.0213 107.115 44.4013V49.1756C107.115 49.4511 107.223 49.7153 107.415 49.9121Z" fill="#B4DFF4"/>
<path fill-rule="evenodd" clip-rule="evenodd" d="M48.1916 115.262C44.1368 115.262 40.8378 111.953 40.8303 107.883L39.8861 106.844C40.0059 106.85 40.1428 106.888 40.2855 106.945C40.6104 107.123 40.8314 107.47 40.8314 107.868C40.8314 111.944 44.1331 115.261 48.1927 115.261C48.8424 115.261 49.4724 115.176 50.0725 115.017C49.4718 115.177 48.8418 115.262 48.1916 115.262ZM39.8861 106.844C39.884 106.844 39.8813 106.844 39.8787 106.844C39.8835 106.844 39.8861 106.844 39.8861 106.844ZM39.8787 106.844C39.8787 106.844 39.8787 106.844 39.8781 106.844C39.8787 106.844 39.8787 106.844 39.8787 106.844ZM39.8781 106.844C39.8781 106.844 39.8781 106.844 39.8776 106.844C39.8781 106.844 39.8781 106.844 39.8781 106.844ZM39.8776 106.844H39.8771H39.8776ZM39.8771 106.844C39.8765 106.844 39.8765 106.844 39.876 106.844C39.8765 106.844 39.8765 106.844 39.8771 106.844ZM39.876 106.844C39.876 106.844 39.8755 106.844 39.8749 106.844C39.8755 106.844 39.876 106.844 39.876 106.844ZM39.8749 106.844C39.8749 106.844 39.8744 106.844 39.8739 106.844C39.8744 106.844 39.8749 106.844 39.8749 106.844ZM39.8739 106.844C39.8701 106.844 39.8659 106.843 39.8622 106.843C39.8669 106.843 39.8707 106.844 39.8739 106.844ZM39.8622 106.843C39.8616 106.843 39.8611 106.843 39.8611 106.843C39.8611 106.843 39.8616 106.843 39.8622 106.843ZM39.8611 106.843C39.8563 106.843 39.8515 106.843 39.8467 106.843C39.852 106.843 39.8568 106.843 39.8611 106.843ZM39.8467 106.843C39.844 106.842 39.8414 106.842 39.8382 106.842C39.8414 106.842 39.844 106.842 39.8467 106.843ZM39.8382 106.842C39.8371 106.842 39.8361 106.842 39.8345 106.842C39.8361 106.842 39.8371 106.842 39.8382 106.842ZM39.8345 106.842C39.8345 106.842 39.8345 106.842 39.8339 106.842C39.8345 106.842 39.8345 106.842 39.8345 106.842ZM39.8339 106.842C39.8329 106.842 39.8318 106.842 39.8302 106.842C39.8318 106.842 39.8329 106.842 39.8339 106.842ZM39.8302 106.842C39.8297 106.842 39.8291 106.842 39.8281 106.842C39.8291 106.842 39.8297 106.842 39.8302 106.842ZM39.8281 106.842H39.8275H39.8281ZM39.8275 106.842C39.8254 106.842 39.8233 106.842 39.8212 106.841C39.8233 106.842 39.8254 106.842 39.8275 106.842ZM39.8212 106.841C39.8185 106.841 39.8158 106.841 39.8132 106.841C39.8158 106.841 39.8185 106.841 39.8212 106.841ZM39.8132 106.841C39.8126 106.841 39.8126 106.841 39.8126 106.841C39.8126 106.841 39.8126 106.841 39.8132 106.841ZM39.8126 106.841C39.8089 106.841 39.8057 106.841 39.8025 106.841C39.8057 106.841 39.8094 106.841 39.8126 106.841ZM39.8025 106.841C39.8014 106.841 39.8009 106.841 39.7998 106.841C39.8009 106.841 39.8014 106.841 39.8025 106.841ZM39.7998 106.841C39.7993 106.841 39.7988 106.841 39.7988 106.84C39.7988 106.841 39.7993 106.841 39.7998 106.841ZM39.7988 106.84C39.7983 106.84 39.7982 106.84 39.7977 106.84C39.7982 106.84 39.7983 106.84 39.7988 106.84ZM39.7977 106.84C39.7972 106.84 39.7967 106.84 39.7961 106.84C39.7967 106.84 39.7972 106.84 39.7977 106.84ZM39.7961 106.84C39.7945 106.84 39.7929 106.84 39.7913 106.84C39.7929 106.84 39.7945 106.84 39.7961 106.84ZM39.7913 106.84C39.7908 106.84 39.7908 106.84 39.7903 106.84C39.7908 106.84 39.7908 106.84 39.7913 106.84ZM39.7903 106.84C39.7897 106.84 39.7887 106.84 39.7881 106.84C39.7887 106.84 39.7897 106.84 39.7903 106.84ZM39.7881 106.84C39.7865 106.84 39.7855 106.84 39.7839 106.84C39.7855 106.84 39.7865 106.84 39.7881 106.84ZM39.7839 106.84C39.7807 106.84 39.7775 106.84 39.7738 106.839C39.7775 106.84 39.7807 106.84 39.7839 106.84ZM39.7738 106.839C39.7732 106.839 39.7722 106.839 39.7716 106.839C39.7727 106.839 39.7732 106.839 39.7738 106.839ZM39.7716 106.839C39.769 106.839 39.7658 106.839 39.7631 106.839C39.7658 106.839 39.769 106.839 39.7716 106.839ZM39.7631 106.839C39.7626 106.838 39.762 106.838 39.7615 106.838C39.762 106.838 39.7626 106.838 39.7631 106.839ZM39.7615 106.838C39.7317 106.837 39.7019 106.836 39.6768 106.835C39.6981 106.836 39.7258 106.837 39.7615 106.838ZM39.6768 106.835C39.6763 106.835 39.6758 106.835 39.6752 106.835C39.6758 106.835 39.6763 106.835 39.6768 106.835ZM39.6752 106.835C39.6656 106.834 39.6571 106.834 39.6491 106.834C39.6566 106.834 39.6651 106.834 39.6752 106.835ZM39.6491 106.834C39.6491 106.834 39.6491 106.834 39.6486 106.834C39.6491 106.834 39.6491 106.834 39.6491 106.834ZM39.6486 106.834C39.6454 106.834 39.6422 106.833 39.639 106.833C39.6422 106.833 39.6454 106.834 39.6486 106.834ZM39.639 106.833C39.639 106.833 39.639 106.833 39.6385 106.833C39.639 106.833 39.639 106.833 39.639 106.833ZM39.6385 106.833H39.638H39.6385ZM39.638 106.833C39.6374 106.833 39.6369 106.833 39.6369 106.833C39.6369 106.833 39.6374 106.833 39.638 106.833ZM39.6369 106.833C39.6358 106.833 39.6353 106.833 39.6348 106.833C39.6353 106.833 39.6358 106.833 39.6369 106.833ZM39.6348 106.833C39.6337 106.833 39.6326 106.833 39.6321 106.833C39.6332 106.833 39.6337 106.833 39.6348 106.833ZM39.6321 106.833L39.6316 106.833L39.6321 106.833ZM39.6316 106.833C39.631 106.833 39.6305 106.833 39.6305 106.833C39.6305 106.833 39.631 106.833 39.6316 106.833ZM39.6305 106.833C39.6262 106.833 39.623 106.833 39.6209 106.833C39.623 106.833 39.6262 106.833 39.6305 106.833ZM39.6209 106.833C39.6204 106.833 39.6204 106.833 39.6204 106.833C39.6204 106.833 39.6204 106.833 39.6209 106.833ZM39.6204 106.833C39.6183 106.832 39.6172 106.832 39.6172 106.832C39.6172 106.832 39.6183 106.832 39.6204 106.833Z" fill="#DDF2F9"/>
<path fill-rule="evenodd" clip-rule="evenodd" d="M48.1923 115.261C44.1327 115.261 40.831 111.945 40.831 107.868C40.831 107.47 40.61 107.123 40.2852 106.945C40.2868 106.946 40.2889 106.947 40.2905 106.947C41.0254 107.246 41.4919 107.961 41.6213 108.746C42.189 112.187 45.6468 114.092 49.357 114.092C51.0899 114.092 52.6822 113.483 53.9411 112.473C52.9687 113.696 51.6198 114.605 50.0722 115.017C49.472 115.176 48.842 115.261 48.1923 115.261Z" fill="#C0E6F3"/>
<path fill-rule="evenodd" clip-rule="evenodd" d="M65.01 115.262C63.5838 115.262 62.2514 114.853 61.1224 114.145C62.2509 114.852 63.5828 115.261 65.0084 115.261C66.0175 115.261 66.9803 115.056 67.8569 114.685C66.9808 115.056 66.0191 115.262 65.01 115.262ZM57.6465 107.881L56.7045 106.844C56.8211 106.849 56.9537 106.886 57.0916 106.94C57.4218 107.117 57.6465 107.466 57.6465 107.868C57.6465 107.872 57.6465 107.877 57.6465 107.881ZM56.7045 106.844C56.7023 106.844 56.6997 106.844 56.697 106.844C56.7018 106.844 56.7045 106.844 56.7045 106.844ZM56.697 106.844C56.697 106.844 56.697 106.844 56.6965 106.844C56.697 106.844 56.697 106.844 56.697 106.844ZM56.6965 106.844C56.6965 106.844 56.6965 106.844 56.696 106.844C56.6965 106.844 56.6965 106.844 56.6965 106.844ZM56.696 106.844H56.6954H56.696ZM56.6954 106.844C56.6949 106.844 56.6949 106.844 56.6949 106.844C56.6949 106.844 56.6949 106.844 56.6954 106.844ZM56.6949 106.844C56.6944 106.844 56.6944 106.844 56.6944 106.844C56.6944 106.844 56.6944 106.844 56.6949 106.844ZM56.6944 106.844C56.6944 106.844 56.6938 106.844 56.6933 106.844C56.6938 106.844 56.6944 106.844 56.6944 106.844ZM56.6933 106.844C56.6933 106.844 56.6928 106.844 56.6922 106.844C56.6928 106.844 56.6933 106.844 56.6933 106.844ZM56.6922 106.844C56.6885 106.844 56.6842 106.843 56.6805 106.843C56.6853 106.843 56.689 106.844 56.6922 106.844ZM56.6805 106.843C56.68 106.843 56.6794 106.843 56.6794 106.843C56.6794 106.843 56.68 106.843 56.6805 106.843ZM56.6794 106.843C56.6747 106.843 56.6699 106.843 56.6651 106.843C56.6704 106.843 56.6752 106.843 56.6794 106.843ZM56.6651 106.843C56.6624 106.842 56.6597 106.842 56.6566 106.842C56.6597 106.842 56.6624 106.842 56.6651 106.843ZM56.6566 106.842C56.6555 106.842 56.6544 106.842 56.6534 106.842C56.6544 106.842 56.6555 106.842 56.6566 106.842ZM56.6534 106.842C56.6528 106.842 56.6528 106.842 56.6523 106.842C56.6528 106.842 56.6528 106.842 56.6534 106.842ZM56.6523 106.842C56.6512 106.842 56.6502 106.842 56.6486 106.842C56.6502 106.842 56.6512 106.842 56.6523 106.842ZM56.6486 106.842C56.648 106.842 56.6475 106.842 56.6464 106.842C56.6475 106.842 56.648 106.842 56.6486 106.842ZM56.6464 106.842H56.6459H56.6464ZM56.6459 106.842C56.6438 106.842 56.6416 106.842 56.6395 106.841C56.6416 106.842 56.6438 106.842 56.6459 106.842ZM56.6395 106.841C56.6368 106.841 56.6342 106.841 56.6315 106.841C56.6342 106.841 56.6368 106.841 56.6395 106.841ZM56.6315 106.841C56.631 106.841 56.631 106.841 56.631 106.841C56.631 106.841 56.631 106.841 56.6315 106.841ZM56.631 106.841C56.6273 106.841 56.6241 106.841 56.6209 106.841C56.6241 106.841 56.6278 106.841 56.631 106.841ZM56.6209 106.841C56.6198 106.841 56.6193 106.841 56.6182 106.841C56.6193 106.841 56.6198 106.841 56.6209 106.841ZM56.6182 106.841C56.6177 106.841 56.6177 106.841 56.6171 106.84C56.6177 106.841 56.6177 106.841 56.6182 106.841ZM56.6171 106.84C56.6166 106.84 56.6166 106.84 56.6161 106.84C56.6166 106.84 56.6166 106.84 56.6171 106.84ZM56.6161 106.84C56.6155 106.84 56.615 106.84 56.6145 106.84C56.615 106.84 56.6155 106.84 56.6161 106.84ZM56.6145 106.84C56.6129 106.84 56.6113 106.84 56.6097 106.84C56.6113 106.84 56.6129 106.84 56.6145 106.84ZM56.6097 106.84C56.6092 106.84 56.6092 106.84 56.6086 106.84C56.6092 106.84 56.6092 106.84 56.6097 106.84ZM56.6086 106.84C56.6081 106.84 56.607 106.84 56.6065 106.84C56.607 106.84 56.6081 106.84 56.6086 106.84ZM56.6065 106.84C56.6049 106.84 56.6038 106.84 56.6022 106.84C56.6038 106.84 56.6049 106.84 56.6065 106.84ZM56.6022 106.84C56.599 106.84 56.5958 106.84 56.5921 106.839C56.5958 106.84 56.599 106.84 56.6022 106.84ZM56.5921 106.839C56.5916 106.839 56.591 106.839 56.59 106.839C56.591 106.839 56.5916 106.839 56.5921 106.839ZM56.59 106.839C56.5873 106.839 56.5841 106.839 56.5815 106.839C56.5841 106.839 56.5873 106.839 56.59 106.839ZM56.5815 106.839C56.5809 106.838 56.5804 106.838 56.5799 106.838C56.5804 106.838 56.5809 106.838 56.5815 106.839ZM56.5799 106.838C56.55 106.837 56.5202 106.836 56.4952 106.835C56.5165 106.836 56.5442 106.837 56.5799 106.838ZM56.4952 106.835C56.4947 106.835 56.4941 106.835 56.4936 106.835C56.4941 106.835 56.4947 106.835 56.4952 106.835ZM56.4936 106.835C56.484 106.834 56.4755 106.834 56.4675 106.834C56.475 106.834 56.4835 106.834 56.4936 106.835ZM56.4675 106.834C56.4675 106.834 56.4675 106.834 56.467 106.834C56.4675 106.834 56.4675 106.834 56.4675 106.834ZM56.467 106.834C56.4638 106.834 56.4606 106.833 56.4579 106.833C56.4606 106.833 56.4638 106.834 56.467 106.834ZM56.4579 106.833C56.4574 106.833 56.4574 106.833 56.4568 106.833C56.4574 106.833 56.4574 106.833 56.4579 106.833ZM56.4568 106.833H56.4563H56.4568ZM56.4563 106.833C56.4558 106.833 56.4553 106.833 56.4553 106.833C56.4553 106.833 56.4558 106.833 56.4563 106.833ZM56.4553 106.833C56.4542 106.833 56.4537 106.833 56.4531 106.833C56.4537 106.833 56.4542 106.833 56.4553 106.833ZM56.4531 106.833C56.4521 106.833 56.4515 106.833 56.4505 106.833C56.4515 106.833 56.4521 106.833 56.4531 106.833ZM56.4505 106.833L56.4499 106.833L56.4505 106.833ZM56.4499 106.833C56.4494 106.833 56.4489 106.833 56.4489 106.833C56.4489 106.833 56.4494 106.833 56.4499 106.833ZM56.4489 106.833C56.4446 106.833 56.4414 106.833 56.4393 106.833C56.4414 106.833 56.4446 106.833 56.4489 106.833ZM56.4393 106.833C56.4387 106.833 56.4387 106.833 56.4387 106.833C56.4387 106.833 56.4387 106.833 56.4393 106.833ZM56.4387 106.833C56.4366 106.832 56.4355 106.832 56.4355 106.832C56.4355 106.832 56.4366 106.832 56.4387 106.833Z" fill="#DDF2F9"/>
<path fill-rule="evenodd" clip-rule="evenodd" d="M65.0085 115.26C63.5829 115.26 62.251 114.852 61.1226 114.145C59.042 112.84 57.6536 110.521 57.6488 107.882L57.6467 107.88C57.6467 107.876 57.6467 107.872 57.6467 107.867C57.6467 107.465 57.422 107.116 57.0918 106.939C57.0977 106.942 57.1035 106.944 57.1094 106.946C57.8443 107.245 58.3108 107.96 58.4402 108.745C59.0079 112.185 62.4651 114.09 66.1758 114.09C67.9093 114.09 69.501 113.482 70.76 112.472C69.9958 113.433 68.9999 114.2 67.8571 114.684C66.9805 115.055 66.0177 115.26 65.0085 115.26Z" fill="#C0E6F3"/>
<path fill-rule="evenodd" clip-rule="evenodd" d="M81.8172 115.263C77.7624 115.263 74.4634 111.954 74.4559 107.884L73.5117 106.846C73.6331 106.851 73.7721 106.89 73.9164 106.948C73.9218 106.951 73.9266 106.953 73.9319 106.955C74.2488 107.136 74.4628 107.477 74.4628 107.869C74.4628 111.946 77.7646 115.262 81.8241 115.262C82.1447 115.262 82.4605 115.241 82.7704 115.201C82.4584 115.242 82.1404 115.263 81.8172 115.263Z" fill="#DDF2F9"/>
<path fill-rule="evenodd" clip-rule="evenodd" d="M81.8248 115.26C77.7653 115.26 74.4636 111.944 74.4636 107.868C74.4636 107.476 74.2495 107.134 73.9326 106.953C74.6585 107.255 75.1196 107.966 75.248 108.745C75.8157 112.186 79.2735 114.091 82.9837 114.091C84.7165 114.091 86.3093 113.483 87.5683 112.472C86.4057 113.934 84.7064 114.946 82.7712 115.199C82.4612 115.24 82.1454 115.26 81.8248 115.26Z" fill="#C0E6F3"/>
<path fill-rule="evenodd" clip-rule="evenodd" d="M73.5121 106.844C73.51 106.844 73.5073 106.844 73.5046 106.844C73.5094 106.844 73.5121 106.844 73.5121 106.844ZM73.5046 106.844H73.5041H73.5046ZM73.5041 106.844C73.5041 106.844 73.5041 106.844 73.5036 106.844C73.5041 106.844 73.5041 106.844 73.5041 106.844ZM73.5036 106.844H73.503H73.5036ZM73.503 106.844C73.5025 106.844 73.5025 106.844 73.5025 106.844C73.5025 106.844 73.5025 106.844 73.503 106.844ZM73.5025 106.844C73.502 106.844 73.502 106.844 73.502 106.844C73.502 106.844 73.502 106.844 73.5025 106.844ZM73.502 106.844C73.5014 106.844 73.5015 106.844 73.5009 106.844C73.5015 106.844 73.5014 106.844 73.502 106.844ZM73.5009 106.844C73.5009 106.844 73.5004 106.844 73.4999 106.844C73.5004 106.844 73.5009 106.844 73.5009 106.844ZM73.4999 106.844C73.4961 106.843 73.4919 106.843 73.4881 106.843C73.4929 106.843 73.4967 106.844 73.4999 106.844ZM73.4881 106.843C73.4876 106.843 73.4871 106.843 73.4871 106.843C73.4871 106.843 73.4876 106.843 73.4881 106.843ZM73.4871 106.843C73.4844 106.843 73.4817 106.843 73.4791 106.843C73.4817 106.843 73.4844 106.843 73.4871 106.843ZM73.4791 106.843C73.477 106.843 73.4748 106.843 73.4727 106.843C73.4748 106.843 73.477 106.843 73.4791 106.843ZM73.4727 106.843C73.47 106.842 73.4674 106.842 73.4642 106.842C73.4674 106.842 73.47 106.842 73.4727 106.843ZM73.4642 106.842C73.4631 106.842 73.462 106.842 73.461 106.842C73.462 106.842 73.4631 106.842 73.4642 106.842ZM73.461 106.842C73.4604 106.842 73.4604 106.842 73.4599 106.842C73.4604 106.842 73.4604 106.842 73.461 106.842ZM73.4599 106.842C73.4588 106.842 73.4578 106.842 73.4567 106.842C73.4578 106.842 73.4588 106.842 73.4599 106.842ZM73.4567 106.842C73.4556 106.842 73.4546 106.842 73.454 106.842C73.4546 106.842 73.4556 106.842 73.4567 106.842ZM73.454 106.842C73.4514 106.842 73.4493 106.842 73.4471 106.841C73.4493 106.842 73.4514 106.842 73.454 106.842ZM73.4471 106.841C73.4445 106.841 73.4418 106.841 73.4391 106.841C73.4418 106.841 73.4445 106.841 73.4471 106.841ZM73.4391 106.841C73.4386 106.841 73.4386 106.841 73.4386 106.841C73.4386 106.841 73.4386 106.841 73.4391 106.841ZM73.4386 106.841C73.4349 106.841 73.4317 106.841 73.4285 106.841C73.4317 106.841 73.4354 106.841 73.4386 106.841ZM73.4285 106.841C73.428 106.841 73.4269 106.841 73.4258 106.841C73.4269 106.841 73.428 106.841 73.4285 106.841ZM73.4258 106.841H73.4253H73.4258ZM73.4253 106.841C73.4248 106.84 73.4242 106.84 73.4237 106.84C73.4242 106.84 73.4248 106.84 73.4253 106.841ZM73.4237 106.84C73.4232 106.84 73.4226 106.84 73.4221 106.84C73.4226 106.84 73.4232 106.84 73.4237 106.84ZM73.4221 106.84C73.4205 106.84 73.4189 106.84 73.4173 106.84C73.4189 106.84 73.4205 106.84 73.4221 106.84ZM73.4173 106.84C73.4168 106.84 73.4168 106.84 73.4162 106.84C73.4168 106.84 73.4168 106.84 73.4173 106.84ZM73.4162 106.84C73.4157 106.84 73.4146 106.84 73.4141 106.84C73.4146 106.84 73.4157 106.84 73.4162 106.84ZM73.4141 106.84C73.4125 106.84 73.4114 106.84 73.4099 106.84C73.4114 106.84 73.4125 106.84 73.4141 106.84ZM73.4099 106.84C73.4067 106.84 73.4035 106.84 73.3997 106.839C73.4029 106.84 73.4067 106.84 73.4099 106.84ZM73.3997 106.839C73.3992 106.839 73.3987 106.839 73.3976 106.839C73.3987 106.839 73.3992 106.839 73.3997 106.839ZM73.3976 106.839C73.3949 106.839 73.3923 106.839 73.3891 106.839C73.3917 106.839 73.3949 106.839 73.3976 106.839ZM73.3891 106.839C73.3885 106.838 73.388 106.838 73.3875 106.838C73.388 106.838 73.3885 106.838 73.3891 106.839ZM73.3875 106.838C73.3577 106.837 73.3278 106.836 73.3028 106.835C73.3241 106.836 73.3518 106.837 73.3875 106.838ZM73.3028 106.835C73.3023 106.835 73.3017 106.835 73.3012 106.835C73.3017 106.835 73.3023 106.835 73.3028 106.835ZM73.3012 106.835C73.2916 106.834 73.2831 106.834 73.2751 106.834C73.2826 106.834 73.2911 106.834 73.3012 106.835ZM73.2751 106.834C73.2714 106.834 73.2682 106.833 73.2655 106.833C73.2682 106.833 73.2714 106.834 73.2751 106.834ZM73.2655 106.833C73.265 106.833 73.265 106.833 73.2645 106.833C73.265 106.833 73.265 106.833 73.2655 106.833ZM73.2645 106.833H73.2639H73.2645ZM73.2639 106.833C73.2634 106.833 73.2634 106.833 73.2629 106.833C73.2634 106.833 73.2634 106.833 73.2639 106.833ZM73.2629 106.833C73.2623 106.833 73.2613 106.833 73.2607 106.833C73.2613 106.833 73.2623 106.833 73.2629 106.833ZM73.2607 106.833C73.2597 106.833 73.2591 106.833 73.2581 106.833C73.2591 106.833 73.2597 106.833 73.2607 106.833ZM73.2581 106.833L73.2575 106.833L73.2581 106.833ZM73.2575 106.833C73.257 106.833 73.257 106.833 73.2565 106.833C73.257 106.833 73.257 106.833 73.2575 106.833ZM73.2565 106.833C73.2522 106.833 73.249 106.833 73.2469 106.833C73.249 106.833 73.2522 106.833 73.2565 106.833ZM73.2469 106.833H73.2464H73.2469ZM73.2464 106.833C73.2442 106.832 73.2432 106.832 73.2432 106.832C73.2432 106.832 73.2442 106.832 73.2464 106.833Z" fill="#DDF2F9"/>
<path fill-rule="evenodd" clip-rule="evenodd" d="M98.6096 115.263C94.5549 115.263 91.2558 111.954 91.2483 107.884L90.3047 106.846C90.4256 106.851 90.5646 106.89 90.7089 106.948C90.744 106.963 90.7781 106.978 90.8117 106.994C91.0939 107.182 91.2798 107.504 91.2798 107.869C91.2798 111.946 94.5815 115.262 98.6411 115.262C98.7188 115.262 98.7971 115.261 98.8748 115.258C98.787 115.262 98.6986 115.263 98.6096 115.263Z" fill="#DDF2F9"/>
<path fill-rule="evenodd" clip-rule="evenodd" d="M98.6409 115.26C94.5814 115.26 91.2796 111.944 91.2796 107.868C91.2796 107.502 91.0938 107.18 90.8115 106.992C91.4873 107.313 91.9165 107.997 92.0396 108.745C92.6072 112.186 96.065 114.091 99.7758 114.091C101.509 114.091 103.101 113.483 104.36 112.472C103.062 114.105 101.093 115.178 98.8747 115.257C98.797 115.259 98.7187 115.26 98.6409 115.26Z" fill="#C0E6F3"/>
<path fill-rule="evenodd" clip-rule="evenodd" d="M90.3043 106.843C90.3016 106.843 90.2989 106.843 90.2963 106.843C90.3016 106.843 90.3043 106.843 90.3043 106.843ZM90.2963 106.843C90.2963 106.843 90.2963 106.843 90.2957 106.843C90.2963 106.843 90.2963 106.843 90.2963 106.843ZM90.2957 106.843C90.2952 106.843 90.2952 106.843 90.2947 106.843C90.2952 106.843 90.2952 106.843 90.2957 106.843ZM90.2947 106.843H90.2942H90.2947ZM90.2942 106.843H90.2936H90.2942ZM90.2936 106.843H90.2931H90.2936ZM90.2931 106.843C90.2926 106.843 90.292 106.843 90.292 106.843C90.292 106.843 90.2926 106.843 90.2931 106.843ZM90.292 106.843C90.2878 106.842 90.284 106.842 90.2798 106.842C90.2846 106.842 90.2883 106.843 90.292 106.843ZM90.2798 106.842C90.2792 106.842 90.2792 106.842 90.2787 106.842C90.2792 106.842 90.2792 106.842 90.2798 106.842ZM90.2787 106.842C90.276 106.842 90.2734 106.842 90.2713 106.842C90.2739 106.842 90.276 106.842 90.2787 106.842ZM90.2713 106.842C90.2691 106.842 90.267 106.842 90.2649 106.842C90.267 106.842 90.2691 106.842 90.2713 106.842ZM90.2649 106.842C90.2617 106.841 90.259 106.841 90.2558 106.841C90.259 106.841 90.2617 106.841 90.2649 106.842ZM90.2558 106.841C90.2547 106.841 90.2537 106.841 90.2526 106.841C90.2537 106.841 90.2547 106.841 90.2558 106.841ZM90.2526 106.841C90.2521 106.841 90.2521 106.841 90.2515 106.841C90.2521 106.841 90.2521 106.841 90.2526 106.841ZM90.2515 106.841C90.2505 106.841 90.2494 106.841 90.2484 106.841C90.2494 106.841 90.2505 106.841 90.2515 106.841ZM90.2484 106.841C90.2473 106.841 90.2468 106.841 90.2457 106.841C90.2468 106.841 90.2473 106.841 90.2484 106.841ZM90.2457 106.841C90.2436 106.841 90.2409 106.841 90.2388 106.84C90.2409 106.841 90.2436 106.841 90.2457 106.841ZM90.2388 106.84C90.2361 106.84 90.2334 106.84 90.2308 106.84C90.2334 106.84 90.2361 106.84 90.2388 106.84ZM90.2308 106.84H90.2303H90.2308ZM90.2303 106.84C90.2271 106.84 90.2239 106.84 90.2201 106.84C90.2239 106.84 90.2271 106.84 90.2303 106.84ZM90.2201 106.84C90.2196 106.84 90.2185 106.84 90.2175 106.84C90.2185 106.84 90.2196 106.84 90.2201 106.84ZM90.2175 106.84H90.2169H90.2175ZM90.2169 106.84C90.2164 106.839 90.2159 106.839 90.2153 106.839C90.2159 106.839 90.2164 106.839 90.2169 106.84ZM90.2153 106.839C90.2148 106.839 90.2148 106.839 90.2143 106.839C90.2148 106.839 90.2148 106.839 90.2153 106.839ZM90.2143 106.839C90.2121 106.839 90.2105 106.839 90.2089 106.839C90.2105 106.839 90.2121 106.839 90.2143 106.839ZM90.2089 106.839C90.2084 106.839 90.2084 106.839 90.2084 106.839C90.2084 106.839 90.2084 106.839 90.2089 106.839ZM90.2084 106.839C90.2074 106.839 90.2063 106.839 90.2058 106.839C90.2063 106.839 90.2074 106.839 90.2084 106.839ZM90.2058 106.839C90.2042 106.838 90.2031 106.838 90.2015 106.838C90.2031 106.838 90.2042 106.838 90.2058 106.839ZM90.2015 106.838C90.1983 106.838 90.1951 106.838 90.1914 106.838C90.1951 106.838 90.1983 106.838 90.2015 106.838ZM90.1914 106.838C90.1908 106.838 90.1903 106.838 90.1892 106.838C90.1903 106.838 90.1908 106.838 90.1914 106.838ZM90.1892 106.838C90.1866 106.838 90.1839 106.838 90.1813 106.838C90.1839 106.838 90.1866 106.838 90.1892 106.838ZM90.1813 106.838C90.1802 106.837 90.1797 106.837 90.1791 106.837C90.1797 106.837 90.1802 106.837 90.1813 106.838ZM90.1791 106.837C90.1498 106.836 90.1195 106.835 90.0944 106.834C90.1158 106.835 90.144 106.836 90.1791 106.837ZM90.0944 106.834C90.0939 106.834 90.0934 106.834 90.0928 106.834C90.0934 106.834 90.0939 106.834 90.0944 106.834ZM90.0928 106.834C90.0833 106.833 90.0747 106.833 90.0673 106.833C90.0742 106.833 90.0827 106.833 90.0928 106.834ZM90.0673 106.833C90.0668 106.833 90.0668 106.833 90.0668 106.833C90.0668 106.833 90.0668 106.833 90.0673 106.833ZM90.0668 106.833C90.063 106.833 90.0598 106.832 90.0572 106.832C90.0598 106.832 90.063 106.833 90.0668 106.833ZM90.0572 106.832C90.0566 106.832 90.0566 106.832 90.0566 106.832C90.0566 106.832 90.0566 106.832 90.0572 106.832ZM90.0566 106.832C90.0561 106.832 90.0561 106.832 90.0556 106.832C90.0561 106.832 90.0561 106.832 90.0566 106.832ZM90.0556 106.832C90.0556 106.832 90.055 106.832 90.0545 106.832C90.055 106.832 90.0556 106.832 90.0556 106.832ZM90.0545 106.832C90.054 106.832 90.0534 106.832 90.0524 106.832C90.0534 106.832 90.054 106.832 90.0545 106.832ZM90.0524 106.832C90.0518 106.832 90.0513 106.832 90.0508 106.832C90.0513 106.832 90.0518 106.832 90.0524 106.832Z" fill="#DDF2F9"/>
<path fill-rule="evenodd" clip-rule="evenodd" d="M90.0511 106.833C90.0506 106.833 90.0506 106.833 90.0501 106.833C90.0506 106.833 90.0506 106.833 90.0511 106.833ZM90.0501 106.833C90.0501 106.833 90.0501 106.833 90.0495 106.833C90.0501 106.833 90.0501 106.833 90.0501 106.833ZM90.0495 106.833C90.0495 106.833 90.049 106.833 90.0485 106.833C90.049 106.833 90.0495 106.833 90.0495 106.833ZM90.0485 106.833C90.0442 106.833 90.041 106.833 90.0389 106.833C90.041 106.833 90.0442 106.833 90.0485 106.833ZM90.0389 106.833C90.0389 106.833 90.0389 106.833 90.0383 106.833C90.0389 106.833 90.0389 106.833 90.0389 106.833ZM90.0383 106.833C90.0368 106.832 90.0352 106.832 90.0352 106.832C90.0352 106.832 90.0362 106.832 90.0383 106.833Z" fill="#C0E6F3"/>
<path fill-rule="evenodd" clip-rule="evenodd" d="M31.3769 115.261C27.3174 115.261 24.0156 111.944 24.0156 107.868V66.6739C24.0167 66.5889 24.0172 66.5445 24.0172 66.5445V66.5429L33.8 56.7553C33.9672 56.5884 34.0662 56.3787 34.0971 56.1611C34.2521 57.1628 34.1051 59.0197 32.2071 61.7841C30.5446 64.2052 28.9608 65.7802 28.0006 66.867C27.1177 67.866 26.6325 69.1507 26.6325 70.4866V107.975C26.6325 107.975 26.755 112.398 31.0632 113.049C31.3886 113.098 31.7124 113.122 32.0335 113.122C34.9167 113.122 37.5469 111.197 38.5294 108.398C38.6077 108.175 38.6823 107.941 38.752 107.697C38.743 107.753 38.7382 107.81 38.7382 107.868C38.7382 111.944 35.4364 115.261 31.3769 115.261ZM33.808 55.2749C33.8064 55.2733 33.8048 55.2717 33.8032 55.2701L33.8042 55.2695C33.8042 55.2695 33.8053 55.2711 33.808 55.2749Z" fill="#5EB4DE"/>
<path fill-rule="evenodd" clip-rule="evenodd" d="M52.6124 67.4928C52.0346 67.4928 51.5654 67.0222 51.5654 66.4425V57L53.6588 57V66.4425C53.6588 67.0222 53.1897 67.4928 52.6124 67.4928Z" fill="#00B652"/>
<path fill-rule="evenodd" clip-rule="evenodd" d="M53.6593 66.4415C53.6593 67.0213 53.1901 67.4919 52.6129 67.4919C52.0351 67.4919 51.5659 67.0213 51.5659 66.4415V56.9512H45.1973V65.9553C45.1973 70.0628 48.524 73.4038 52.6129 73.4038C56.7023 73.4038 60.029 70.0628 60.029 65.9553V56.9512H53.6593V66.4415Z" fill="#2ED47A"/>
<path fill-rule="evenodd" clip-rule="evenodd" d="M52.6129 73.4038C48.524 73.4038 45.1973 70.0628 45.1973 65.9553V56.9512H46.4956C46.4679 57.0865 43.5991 71.3308 52.3716 71.5656C52.4749 71.5683 52.5783 71.5693 52.6784 71.5693C58.481 71.5699 59.7841 67.0475 60.029 64.1894V65.9553C60.029 70.0628 56.7023 73.4038 52.6129 73.4038Z" fill="#00B652"/>
<path fill-rule="evenodd" clip-rule="evenodd" d="M105.5 70L104.263 68.3424C95.5959 59.3366 95.8691 57.0101 95.8691 57.0101C95.8691 57.0101 95.8835 57.0085 95.9091 57.0059C95.9075 57.277 96.0102 57.5487 96.2169 57.7551L106.002 67.5445L107 69L105.5 70Z" fill="#C0E6F3"/>
<path fill-rule="evenodd" clip-rule="evenodd" d="M112.597 70.5705C110.912 70.5705 109.328 69.9116 108.135 68.7131L97.6932 58.2671C97.4887 58.0634 97.2219 57.9607 96.9546 57.9607C96.9195 57.9607 96.8843 57.9628 96.8492 57.966C96.8412 57.9564 96.8369 57.9516 96.8369 57.9516C96.8369 57.9516 96.8827 57.9355 96.986 57.9355C97.6229 57.9355 100.457 58.5303 108.446 67.0371C108.446 67.0371 110.454 69.0244 113.112 69.0244C114.861 69.0244 116.89 68.1649 118.815 65.3144C118.598 66.5958 117.993 67.7767 117.057 68.7147C115.867 69.9117 114.283 70.5705 112.597 70.5705Z" fill="#C0E6F3"/>
<path fill-rule="evenodd" clip-rule="evenodd" d="M12.6574 68.391C10.5033 65.9047 10.6034 62.1192 12.9641 59.7479L22.4865 50.0137C22.6782 49.8169 22.7869 49.5527 22.7869 49.2772V44.5029C22.7869 21.1229 41.7272 2.10156 65.0087 2.10156C65.0012 2.1021 29.238 5.77896 26.0093 48.2798C25.8277 50.6699 24.7615 52.9038 22.9147 54.4211L14.1331 62.3744C12.3336 64.0045 10.9655 66.37 12.6574 68.391Z" fill="#5EB4DE"/>
<path fill-rule="evenodd" clip-rule="evenodd" d="M44.8532 38.6023C45.0577 38.8077 45.3261 38.9098 45.594 38.9098C45.8613 38.9098 46.1292 38.8077 46.3337 38.6023L50.1898 34.7297L54.0464 38.6023C54.2504 38.8077 54.5188 38.9098 54.7862 38.9098C55.054 38.9098 55.3224 38.8077 55.5264 38.6023C55.9354 38.1921 55.9354 37.5262 55.5264 37.116L51.6703 33.2429L55.5264 29.3703C55.9354 28.9595 55.9354 28.2942 55.5264 27.884C55.1179 27.4733 54.4549 27.4738 54.0464 27.884L50.1898 31.7566L46.3337 27.884C45.9252 27.4733 45.2622 27.4738 44.8532 27.884C44.4448 28.2942 44.4448 28.9595 44.8532 29.3703L48.7099 33.2429L44.8532 37.116C44.4448 37.5262 44.4448 38.1921 44.8532 38.6023Z" fill="#455469"/>
<path fill-rule="evenodd" clip-rule="evenodd" d="M74.4929 38.6025C74.6974 38.8079 74.9658 38.91 75.2331 38.91C75.501 38.91 75.7694 38.8079 75.9739 38.6025L79.83 34.7299L83.6866 38.6025C83.8911 38.8079 84.1595 38.91 84.4268 38.91C84.6942 38.91 84.962 38.8079 85.1665 38.6025C85.5755 38.1923 85.5755 37.5264 85.1665 37.1162L81.3099 33.2431L85.1665 29.3705C85.5755 28.9597 85.5755 28.2944 85.1665 27.8842C84.7581 27.4735 84.0956 27.4735 83.6866 27.8842L79.83 31.7568L75.9739 27.8842C75.5649 27.4735 74.9019 27.474 74.4929 27.8842C74.0844 28.2944 74.0844 28.9597 74.4929 29.3705L78.3495 33.2431L74.4929 37.1162C74.0844 37.5264 74.0844 38.1923 74.4929 38.6025Z" fill="#455469"/>
<path d="M53.659 56.9514H44.15C43.8011 56.9514 43.1035 56.7412 43.1035 55.9005C43.1035 55.3202 43.5727 54.8496 44.15 54.8496H85.9106C86.4884 54.8496 86.957 55.3202 86.957 55.9005C86.957 56.4808 86.4884 56.9514 85.9106 56.9514H62.1221H53.659Z" fill="#455469"/>
<path fill-rule="evenodd" clip-rule="evenodd" d="M4.46763 73.8676C4.2232 73.8676 3.97823 73.7746 3.79131 73.5874C3.36581 73.1622 2.96747 72.7044 2.60694 72.2268C2.28742 71.8032 2.36996 71.1994 2.79173 70.878C2.96481 70.747 3.16824 70.6833 3.37007 70.6833C3.65977 70.6833 3.94628 70.8144 4.13479 71.0641C4.44154 71.4706 4.78076 71.8605 5.14396 72.2225C5.51886 72.598 5.52046 73.2077 5.14662 73.5842C4.95917 73.773 4.71313 73.8676 4.46763 73.8676ZM1.10465 67.2728C0.641338 67.2728 0.233945 66.9353 0.158857 66.461C0.0645979 65.8678 0.0113439 65.2624 0.000160604 64.6618C-0.0094251 64.1308 0.411281 63.6917 0.940625 63.6815C1.46464 63.7072 1.90718 64.0939 1.9173 64.626C1.92635 65.1373 1.97215 65.6528 2.05203 66.1588C2.13564 66.6834 1.77937 67.1765 1.25642 67.2605C1.2053 67.2685 1.15417 67.2728 1.10465 67.2728ZM2.24961 59.9528C2.10316 59.9528 1.95458 59.9191 1.81559 59.848C1.34376 59.6067 1.15577 59.027 1.39595 58.5532C1.66701 58.0178 1.97908 57.4969 2.3231 57.0038C2.50948 56.7364 2.80664 56.5931 3.10859 56.5931C3.29871 56.5931 3.49095 56.6497 3.6587 56.7679C4.09219 57.0733 4.19657 57.6739 3.89302 58.1093C3.60066 58.5286 3.33492 58.9714 3.10433 59.4271C2.93498 59.7602 2.59842 59.9528 2.24961 59.9528ZM6.994 54.1538C6.76021 54.1538 6.52643 54.0687 6.34164 53.8965C5.95395 53.5344 5.93211 52.9253 6.29211 52.5354L7.42748 51.3096C7.616 51.1053 7.87269 51.0021 8.12937 51.0021C8.36315 51.0021 8.59747 51.0877 8.78173 51.2599C9.16995 51.6219 9.19179 52.2311 8.83126 52.621L7.69642 53.8468C7.50737 54.0505 7.25121 54.1538 6.994 54.1538ZM12.1016 48.6361C11.8678 48.6361 11.6335 48.5505 11.4487 48.3783C11.061 48.0162 11.0392 47.407 11.4002 47.0182L11.52 46.8883C11.8188 46.5652 12.0888 46.2144 12.3226 45.8448C12.5047 45.556 12.8152 45.3983 13.132 45.3983C13.3078 45.3983 13.4856 45.4464 13.6454 45.548C14.0922 45.8326 14.2243 46.4278 13.941 46.8765C13.6449 47.345 13.3025 47.7905 12.9233 48.1996L12.8035 48.3291C12.6144 48.5334 12.3583 48.6361 12.1016 48.6361ZM14.3388 41.6968H14.3137C13.7844 41.6829 13.3664 41.2417 13.3797 40.7101C13.3941 40.1373 13.426 39.5613 13.4713 38.9858C13.5112 38.4804 13.9314 38.0996 14.4277 38.0996C14.4527 38.0996 14.4778 38.1007 14.5028 38.1023C15.0305 38.1446 15.4241 38.6082 15.3826 39.1383C15.3394 39.679 15.3101 40.2207 15.2963 40.7587C15.283 41.2823 14.8564 41.6968 14.3388 41.6968ZM15.3224 34.2345C15.2537 34.2345 15.1844 34.227 15.1147 34.2115C14.5976 34.0971 14.2711 33.5831 14.3856 33.0638C14.5103 32.4963 14.6418 31.9423 14.7765 31.4058C14.8862 30.9684 15.2787 30.679 15.7079 30.679C15.7846 30.679 15.8624 30.6881 15.9401 30.7074C16.4535 30.8379 16.7645 31.3614 16.6351 31.8765C16.5051 32.3947 16.3779 32.9301 16.2575 33.4793C16.1585 33.9281 15.7623 34.2345 15.3224 34.2345ZM17.4041 26.9925C17.297 26.9925 17.1884 26.9743 17.0819 26.9364C16.5834 26.7577 16.3236 26.2069 16.5014 25.7063C17.092 24.0441 17.272 23.543 17.8669 23.543C17.9478 23.543 18.0362 23.5526 18.1342 23.5692C18.1342 23.5692 19.2823 23.7617 18.8563 24.8864C18.8403 24.9244 18.6252 25.4576 18.3073 26.3529C18.1672 26.7471 17.7976 26.9925 17.4041 26.9925Z" fill="#B2BACF"/>
<path fill-rule="evenodd" clip-rule="evenodd" d="M29.1904 125.001L29.0748 124.994C28.4805 124.923 27.8926 124.816 27.3286 124.679C26.8142 124.554 26.4984 124.034 26.623 123.517C26.729 123.077 27.1209 122.781 27.5528 122.781C27.6279 122.781 27.7041 122.79 27.7802 122.808C28.2712 122.927 28.7835 123.02 29.3033 123.082C29.8294 123.146 30.2038 123.625 30.141 124.153C30.0824 124.642 29.6686 125.001 29.1904 125.001ZM22.417 122.075C22.1965 122.075 21.975 122 21.7939 121.844C21.3503 121.464 20.92 121.043 20.5148 120.595C20.1585 120.201 20.1878 119.593 20.5792 119.235C20.7635 119.068 20.994 118.985 21.2241 118.985C21.4845 118.985 21.7444 119.092 21.9334 119.3C22.2849 119.688 22.6577 120.052 23.0401 120.381C23.4427 120.727 23.4901 121.335 23.1455 121.738C22.9559 121.961 22.687 122.075 22.417 122.075ZM18.1604 115.954C17.786 115.954 17.4314 115.733 17.2764 115.366C17.057 114.843 16.8493 114.294 16.6597 113.734C16.4893 113.23 16.7577 112.683 17.2588 112.512C17.3605 112.477 17.4644 112.46 17.5666 112.46C17.966 112.46 18.3388 112.713 18.4746 113.114C18.6493 113.631 18.841 114.137 19.0428 114.617C19.2484 115.106 19.0205 115.671 18.5326 115.878C18.4107 115.93 18.2845 115.954 18.1604 115.954ZM16.2875 108.665C15.8087 108.665 15.3955 108.307 15.3369 107.818C15.2091 106.746 15.1894 106.076 15.1888 106.049C15.1745 105.517 15.5914 105.075 16.1202 105.061C16.14 105.06 16.1597 105.059 16.1794 105.059C16.6874 105.059 17.0905 105.484 17.1054 105.996C17.1054 106.002 17.1235 106.613 17.2402 107.588C17.3035 108.116 16.9286 108.595 16.403 108.658L16.2875 108.665Z" fill="#B2BACF"/>
</g>
<defs>
<clipPath id="clip0">
<rect width="121" height="125" fill="white"/>
</clipPath>
</defs>
</svg>
