<svg width="179" height="78" viewBox="0 0 179 78" fill="none" xmlns="http://www.w3.org/2000/svg">
<path d="M175.819 74.6068H167.429V67.9344C167.429 66.0763 166.838 63.7959 162.502 61.0087L151.804 55.1527C145.948 51.7462 142.738 46.6504 142.738 40.7944V31.1378H151.128V40.7944C151.128 41.8361 151.128 45.0175 155.97 47.861L166.866 53.8295C172.863 57.6302 175.791 62.2474 175.791 67.9063V74.5786L175.819 74.6068Z" fill="#69788b"/>
<path d="M14.3301 74.6068H4.05408V10.1071H14.3301V35.2764C17.2581 31.4756 22.1286 29.8709 26.6613 29.8709C37.3034 29.8709 42.4273 37.5005 42.4273 46.9601V74.5787H32.1513V48.7337C32.1513 43.4127 29.7582 39.1615 23.2829 39.1615C16.8076 39.1615 14.499 43.4127 14.3301 48.9027V74.5787V74.6068Z" fill="#69788b"/>
<path d="M90.9358 61.9659C88.6272 69.511 81.8141 75.6203 71.4536 75.6203C61.0931 75.6203 49.3812 67.118 49.3812 52.4781C49.3812 37.8383 59.4883 29.7864 70.3837 29.7864C81.2791 29.7864 91.4707 38.5703 91.4707 52.1966C91.4707 65.8229 91.3018 55.2935 91.2173 55.4624H59.6573C59.9106 62.0222 65.0627 66.7238 71.4536 66.7238C77.8444 66.7238 80.8569 63.458 82.2645 59.1787L90.9358 61.9377V61.9659ZM81.0821 47.9454C80.9132 42.9059 77.5347 38.3732 70.44 38.3732C63.3454 38.3732 60.2485 43.3282 59.8825 47.9454H81.0539H81.0821Z" fill="#69788b"/>
<path d="M100.255 74.6068V10.0789H110.531V74.6068H100.255Z" fill="#69788b"/>
<path d="M122.045 74.5505V31.1096H132.237V74.5505H122.045Z" fill="#69788b"/>
<path d="M122.045 20.2424V10.0789H132.237V20.2424H122.045Z" fill="#69788b"/>
<path d="M151.156 74.6068H142.766V67.9344C142.766 62.2474 145.694 57.6584 151.691 53.8577L151.916 53.7169L162.586 47.8891C167.429 45.0456 167.429 41.8643 167.429 40.8226V31.1659H175.819V40.8226C175.819 46.6785 172.609 51.7743 166.753 55.1809L166.641 55.2372L156.055 61.0368C151.719 63.824 151.128 66.1044 151.128 67.9626V74.6349L151.156 74.6068Z" fill="url(#paint0_linear_140_198_dark)"/>
<defs>
<linearGradient id="paint0_linear_140_198_dark" x1="144.033" y1="54.5333" x2="173.397" y2="51.352" gradientUnits="userSpaceOnUse">
<stop stop-color="#F37927"/>
<stop offset="0.4" stop-color="#E5422E"/>
<stop offset="0.9" stop-color="#C12829"/>
</linearGradient>
</defs>
</svg>
