<svg width="314" height="72" viewBox="0 0 314 72" fill="none" xmlns="http://www.w3.org/2000/svg">
<path d="M36 72C55.8823 72 72 55.8823 72 36C72 16.1177 55.8823 0 36 0C16.1177 0 0 16.1177 0 36C0 55.8823 16.1177 72 36 72Z" fill="#E7EBF0"/>
<g opacity="0.33">
<path d="M48 45.3333V26.6667C48 25.2 46.8 24 45.3333 24H26.6667C25.2 24 24 25.2 24 26.6667V45.3333C24 46.8 25.2 48 26.6667 48H45.3333C46.8 48 48 46.8 48 45.3333ZM31.3333 38L34.6667 42.0133L39.3333 36L45.3333 44H26.6667L31.3333 38Z" fill="black"/>
</g>
<path d="M114.495 48.35C111.158 48.35 108.545 47.545 106.655 45.935C104.788 44.3017 103.797 41.945 103.68 38.865C103.657 38.235 103.645 37.2083 103.645 35.785C103.645 34.3383 103.657 33.2883 103.68 32.635C103.797 29.6017 104.812 27.2683 106.725 25.635C108.638 23.9783 111.228 23.15 114.495 23.15C116.548 23.15 118.392 23.5 120.025 24.2C121.658 24.8767 122.942 25.8567 123.875 27.14C124.832 28.4 125.322 29.8817 125.345 31.585V31.655C125.345 31.8417 125.263 32.005 125.1 32.145C124.96 32.2617 124.797 32.32 124.61 32.32H119.885C119.582 32.32 119.348 32.2617 119.185 32.145C119.022 32.005 118.882 31.76 118.765 31.41C118.438 30.22 117.925 29.3917 117.225 28.925C116.525 28.435 115.603 28.19 114.46 28.19C111.707 28.19 110.283 29.73 110.19 32.81C110.167 33.44 110.155 34.4083 110.155 35.715C110.155 37.0217 110.167 38.0133 110.19 38.69C110.283 41.77 111.707 43.31 114.46 43.31C115.603 43.31 116.537 43.065 117.26 42.575C117.983 42.0617 118.485 41.2333 118.765 40.09C118.858 39.74 118.987 39.5067 119.15 39.39C119.313 39.25 119.558 39.18 119.885 39.18H124.61C124.82 39.18 124.995 39.25 125.135 39.39C125.298 39.53 125.368 39.705 125.345 39.915C125.322 41.6183 124.832 43.1117 123.875 44.395C122.942 45.655 121.658 46.635 120.025 47.335C118.392 48.0117 116.548 48.35 114.495 48.35ZM143.035 48.35C139.745 48.35 137.155 47.545 135.265 45.935C133.375 44.325 132.372 41.9567 132.255 38.83C132.232 38.1533 132.22 37.15 132.22 35.82C132.22 34.4667 132.232 33.4517 132.255 32.775C132.372 29.695 133.387 27.3267 135.3 25.67C137.237 23.99 139.815 23.15 143.035 23.15C146.255 23.15 148.834 23.99 150.77 25.67C152.707 27.3267 153.722 29.695 153.815 32.775C153.862 34.1283 153.885 35.1433 153.885 35.82C153.885 36.4733 153.862 37.4767 153.815 38.83C153.699 41.9567 152.695 44.325 150.805 45.935C148.915 47.545 146.325 48.35 143.035 48.35ZM143.035 43.31C144.319 43.31 145.334 42.925 146.08 42.155C146.85 41.385 147.259 40.2067 147.305 38.62C147.352 37.2667 147.375 36.31 147.375 35.75C147.375 35.1433 147.352 34.1867 147.305 32.88C147.259 31.2933 146.85 30.115 146.08 29.345C145.31 28.575 144.295 28.19 143.035 28.19C141.775 28.19 140.76 28.575 139.99 29.345C139.244 30.115 138.835 31.2933 138.765 32.88C138.742 33.5333 138.73 34.49 138.73 35.75C138.73 36.9867 138.742 37.9433 138.765 38.62C138.835 40.2067 139.244 41.385 139.99 42.155C140.737 42.925 141.752 43.31 143.035 43.31ZM162.817 48C162.584 48 162.374 47.9183 162.187 47.755C162.024 47.5683 161.942 47.3583 161.942 47.125V24.375C161.942 24.1183 162.024 23.9083 162.187 23.745C162.374 23.5817 162.584 23.5 162.817 23.5H166.597C167.157 23.5 167.566 23.7567 167.822 24.27L173.982 35.295L180.142 24.27C180.399 23.7567 180.807 23.5 181.367 23.5H185.112C185.369 23.5 185.579 23.5817 185.742 23.745C185.929 23.9083 186.022 24.1183 186.022 24.375V47.125C186.022 47.3817 185.929 47.5917 185.742 47.755C185.579 47.9183 185.369 48 185.112 48H180.947C180.691 48 180.469 47.9183 180.282 47.755C180.119 47.5917 180.037 47.3817 180.037 47.125V34L176.117 41.315C175.814 41.8517 175.406 42.12 174.892 42.12H173.072C172.769 42.12 172.524 42.05 172.337 41.91C172.151 41.77 171.987 41.5717 171.847 41.315L167.892 34V47.125C167.892 47.3583 167.811 47.5683 167.647 47.755C167.484 47.9183 167.274 48 167.017 48H162.817ZM195.802 48C195.568 48 195.358 47.9183 195.172 47.755C195.008 47.5683 194.927 47.3583 194.927 47.125V24.375C194.927 24.1183 195.008 23.9083 195.172 23.745C195.358 23.5817 195.568 23.5 195.802 23.5H205.602C208.588 23.5 210.933 24.1883 212.637 25.565C214.363 26.9417 215.227 28.9483 215.227 31.585C215.227 34.1983 214.375 36.17 212.672 37.5C210.968 38.8067 208.612 39.46 205.602 39.46H201.437V47.125C201.437 47.3817 201.343 47.5917 201.157 47.755C200.993 47.9183 200.783 48 200.527 48H195.802ZM205.427 34.63C206.453 34.63 207.258 34.3733 207.842 33.86C208.425 33.3233 208.717 32.5417 208.717 31.515C208.717 30.5583 208.437 29.8 207.877 29.24C207.34 28.6567 206.523 28.365 205.427 28.365H201.332V34.63H205.427ZM219.504 48C219.317 48 219.142 47.93 218.979 47.79C218.839 47.6267 218.769 47.4517 218.769 47.265C218.769 47.125 218.781 47.02 218.804 46.95L227.029 24.48C227.099 24.2 227.251 23.9667 227.484 23.78C227.717 23.5933 228.021 23.5 228.394 23.5H233.574C233.947 23.5 234.251 23.5933 234.484 23.78C234.717 23.9667 234.869 24.2 234.939 24.48L243.129 46.95L243.199 47.265C243.199 47.4517 243.117 47.6267 242.954 47.79C242.814 47.93 242.639 48 242.429 48H238.124C237.564 48 237.191 47.755 237.004 47.265L235.639 43.695H226.294L224.964 47.265C224.777 47.755 224.392 48 223.809 48H219.504ZM234.239 38.655L230.984 29.415L227.729 38.655H234.239ZM250.833 48C250.599 48 250.389 47.9183 250.203 47.755C250.039 47.5683 249.958 47.3583 249.958 47.125V24.375C249.958 24.1183 250.039 23.9083 250.203 23.745C250.389 23.5817 250.599 23.5 250.833 23.5H254.543C255.126 23.5 255.523 23.7217 255.733 24.165L264.273 37.605V24.375C264.273 24.1183 264.354 23.9083 264.518 23.745C264.704 23.5817 264.914 23.5 265.148 23.5H269.348C269.604 23.5 269.814 23.5817 269.978 23.745C270.141 23.9083 270.223 24.1183 270.223 24.375V47.09C270.223 47.3467 270.141 47.5683 269.978 47.755C269.814 47.9183 269.604 48 269.348 48H265.603C265.089 48 264.704 47.7783 264.448 47.335L255.908 34.385V47.125C255.908 47.3583 255.826 47.5683 255.663 47.755C255.499 47.9183 255.289 48 255.033 48H250.833ZM286.289 48C286.056 48 285.846 47.9183 285.659 47.755C285.496 47.5683 285.414 47.3583 285.414 47.125V39.6L277.294 24.62C277.224 24.41 277.189 24.2817 277.189 24.235C277.189 24.0483 277.259 23.885 277.399 23.745C277.562 23.5817 277.749 23.5 277.959 23.5H282.334C282.801 23.5 283.209 23.745 283.559 24.235L288.564 33.265L293.604 24.235C293.884 23.745 294.292 23.5 294.829 23.5H299.204C299.414 23.5 299.589 23.5817 299.729 23.745C299.869 23.885 299.939 24.0483 299.939 24.235C299.939 24.3517 299.916 24.48 299.869 24.62L291.749 39.6V47.125C291.749 47.3817 291.656 47.5917 291.469 47.755C291.306 47.9183 291.096 48 290.839 48H286.289Z" fill="#23282E"/>
</svg>
