<svg xmlns="http://www.w3.org/2000/svg" width="381.16" height="86.3" viewBox="0 0 381.16 86.3"><title>fr-logo-horz-color</title><polygon points="47.75 0 22.91 7.67 0 49.01 20.31 49.01 47.75 0" fill="#032b75"/><polygon points="0.2 56.83 16.06 86.3 36.73 86.3 19.89 56.83 0.2 56.83" fill="#032b75"/><path d="M79.16,56.36,66.56,33C58.99,46.38,45.4,70.34,40.83,78.08l6.31,11.29H60.45Z" transform="translate(-2.56 -3.07)" fill="#f96700"/><path d="M37.06,71.34,62.62,25.69,54.31,10.28c-6.53,11.53-20,35.31-25.93,45.52Z" transform="translate(-2.56 -3.07)" fill="#f96700"/><path d="M108.43,44.31v9.51h16.66V60.5H108.43V73.61H100.1V37.63h27.2v6.68Z" transform="translate(-2.56 -3.07)" fill="#032b75"/><path d="M127.96,59.79c0-8.33,6.43-14.24,15.22-14.24s15.17,5.91,15.17,14.24-6.38,14.24-15.17,14.24S127.96,68.12,127.96,59.79Zm22.26,0c0-4.78-3.03-7.66-7.04-7.66s-7.1,2.88-7.1,7.66,3.09,7.66,7.1,7.66S150.22,64.57,150.22,59.79Z" transform="translate(-2.56 -3.07)" fill="#032b75"/><path d="M179.21,45.55v7.4c-.67-.05-1.18-.1-1.8-.1-4.42,0-7.35,2.42-7.35,7.71V73.62h-8.02V45.96h7.66v3.65C171.65,46.93,174.94,45.55,179.21,45.55Z" transform="translate(-2.56 -3.07)" fill="#032b75"/><path d="M211.55,45.96V69c0,10.28-5.55,15.01-15.53,15.01-5.24,0-10.33-1.29-13.57-3.8l3.19-5.76a16.56,16.56,0,0,0,9.77,3.14c5.66,0,8.12-2.57,8.12-7.56V68.85a11.3977,11.3977,0,0,1-8.74,3.44c-7.66,0-13.83-5.3-13.83-13.37s6.17-13.37,13.83-13.37c3.86,0,7.04,1.29,9.15,3.96V45.96Zm-7.92,12.95c0-4.06-3.03-6.79-7.25-6.79s-7.3,2.73-7.3,6.79,3.09,6.79,7.3,6.79C200.6,65.7,203.63,62.98,203.63,58.91Z" transform="translate(-2.56 -3.07)" fill="#032b75"/><path d="M244.15,62.05H223.22c.77,3.44,3.7,5.55,7.92,5.55a9.3675,9.3675,0,0,0,6.94-2.67l4.27,4.63c-2.57,2.93-6.43,4.47-11.41,4.47-9.56,0-15.79-6.02-15.79-14.24,0-8.28,6.32-14.24,14.76-14.24,8.12,0,14.4,5.45,14.4,14.35C244.3,60.51,244.2,61.38,244.15,62.05Zm-21.03-4.68h13.63a6.9116,6.9116,0,0,0-13.63,0Z" transform="translate(-2.56 -3.07)" fill="#032b75"/><path d="M270.92,73.62l-6.94-10.03h-7.66V73.62h-8.33V37.63h15.58c9.62,0,15.63,4.99,15.63,13.06a11.7,11.7,0,0,1-7.4,11.36l8.07,11.57Zm-7.81-29.21h-6.79V56.96h6.79c5.09,0,7.66-2.36,7.66-6.27C270.77,46.73,268.2,44.41,263.11,44.41Z" transform="translate(-2.56 -3.07)" fill="#032b75"/><path d="M281.65,59.79c0-8.33,6.43-14.24,15.22-14.24s15.17,5.91,15.17,14.24-6.38,14.24-15.17,14.24C288.07,74.03,281.65,68.12,281.65,59.79Zm22.26,0c0-4.78-3.03-7.66-7.04-7.66s-7.1,2.88-7.1,7.66,3.09,7.66,7.1,7.66S303.91,64.57,303.91,59.79Z" transform="translate(-2.56 -3.07)" fill="#032b75"/><path d="M315.54,59.79c0-8.33,6.43-14.24,15.43-14.24,5.81,0,10.39,2.52,12.39,7.04l-6.22,3.34a6.8932,6.8932,0,0,0-6.22-3.8c-4.06,0-7.25,2.83-7.25,7.66s3.19,7.66,7.25,7.66a6.8032,6.8032,0,0,0,6.22-3.8l6.22,3.39c-2.01,4.42-6.58,6.99-12.39,6.99C321.97,74.03,315.54,68.12,315.54,59.79Z" transform="translate(-2.56 -3.07)" fill="#032b75"/><path d="M359.27,62.77l-3.86,3.8v7.04h-8.02V35.47h8.02v21.6l11.72-11.11h9.56L365.17,57.68l12.55,15.94H368Z" transform="translate(-2.56 -3.07)" fill="#032b75"/><path d="M383.72,49.24a3.1011,3.1011,0,1,1-3.09-3.02A3.0271,3.0271,0,0,1,383.72,49.24Zm-5.43,0a2.3269,2.3269,0,1,0,2.33-2.41A2.3362,2.3362,0,0,0,378.29,49.24Zm1.86,1.58h-.7V47.8a5.775,5.775,0,0,1,1.16-.09,1.8747,1.8747,0,0,1,1.05.22.824.824,0,0,1,.29.66.7769.7769,0,0,1-.63.7v.04a.8914.8914,0,0,1,.55.74,2.31,2.31,0,0,0,.22.75h-.75a2.6079,2.6079,0,0,1-.24-.74c-.06-.33-.24-.48-.63-.48h-.33v1.22Zm.02-1.71h.33c.39,0,.7-.13.7-.44,0-.28-.2-.46-.64-.46a1.6491,1.6491,0,0,0-.39.04v.86Z" transform="translate(-2.56 -3.07)" fill="#032b75"/></svg>