<svg width="88" height="89" viewBox="0 0 88 89" fill="none" xmlns="http://www.w3.org/2000/svg">
<path d="M53.1034 22.0078V29.1191C53.1034 30.2191 52.2113 31.1113 51.1113 31.1113H36.8872C35.7887 31.1113 34.8966 30.2191 34.8966 29.1191V22.0078H5.58041C2.4989 22.0078 0 24.5067 0 27.5882V77.1171C0 80.1986 2.4989 82.6975 5.58041 82.6975H82.4196C85.5011 82.6975 88 80.1986 88 77.1171V27.5882C88 24.5067 85.5011 22.0078 82.4196 22.0078H53.1034Z" fill="#E7ECED"/>
<path d="M51.1114 6.83398H36.8872C35.7887 6.83398 34.8966 7.72612 34.8966 8.82612V29.1192C34.8966 30.2177 35.7887 31.1098 36.8887 31.1098H51.1129C52.2114 31.1098 53.1035 30.2177 53.1035 29.1177V8.82612C53.1035 7.72612 52.2114 6.83398 51.1114 6.83398ZM44.0001 20.4892C41.486 20.4892 39.4483 18.4515 39.4483 15.9374C39.4483 13.4234 41.486 11.3857 44.0001 11.3857C46.5141 11.3857 48.5518 13.4234 48.5518 15.9374C48.5518 18.4515 46.5141 20.4892 44.0001 20.4892Z" fill="#424A60"/>
<path d="M33.6615 64.7258L27.946 61.8066C27.5561 61.6063 27.3103 61.2058 27.3103 60.7673V59.0179C30.2431 57.7541 31.9288 55.2992 32.7496 52.2283C33.9862 51.8444 34.8965 50.7004 34.8965 49.3425V47.8252C34.8965 46.663 34.2274 45.6601 33.2609 45.1503C32.5918 39.444 28.8199 37.1347 22.7586 37.1347C22.4718 37.1347 22.1896 37.1454 21.9135 37.1681C19.853 37.332 17.7684 36.9451 16.0539 35.789C15.3408 35.3095 14.7415 34.7982 14.3197 34.2626C14.127 34.0183 13.7431 34.1746 13.778 34.4826C13.8387 35.0136 13.9297 35.6327 14.0633 36.3094C14.5639 38.828 14.265 38.4608 13.291 40.8368C12.7524 42.1507 12.4049 43.6088 12.2441 45.1534C11.2852 45.6677 10.6206 46.6676 10.6206 47.8252V49.3425C10.6206 50.7004 11.531 51.8444 12.7675 52.2283C13.5884 55.2976 15.2725 57.7541 18.2068 59.0179V60.7552C18.2068 61.1997 17.955 61.6048 17.5559 61.8021L11.6979 64.6863C10.0987 65.5587 9.10339 67.2353 9.10339 69.056V70.4458C9.10339 70.4458 9.10339 70.8539 9.10339 71.0663C9.10339 72.7808 15.2164 73.6183 22.7586 73.6183C30.3008 73.6183 36.4137 72.7808 36.4137 71.0663C36.4137 70.8539 36.4137 70.4458 36.4137 70.4458V69.1774C36.4137 67.2929 35.3486 65.5694 33.6615 64.7258Z" fill="#2D9EE0"/>
<path d="M77.8193 66.4486C77.5447 66.7353 77.3793 67.1313 77.3793 67.5258C77.3793 67.9203 77.531 68.3148 77.8193 68.6031C78.106 68.8762 78.502 69.0431 78.8965 69.0431C79.291 69.0431 79.6855 68.8762 79.9737 68.6031C80.2469 68.3148 80.4137 67.9203 80.4137 67.5258C80.4137 67.1313 80.2469 66.7353 79.9737 66.4486C79.4124 65.9024 78.3958 65.8872 77.8193 66.4486Z" fill="#AFB6BB"/>
<path d="M45.5172 43.2767H60.6897C61.5287 43.2767 62.2069 42.5985 62.2069 41.7594C62.2069 40.9204 61.5287 40.2422 60.6897 40.2422H45.5172C44.6782 40.2422 44 40.9204 44 41.7594C44 42.5985 44.6782 43.2767 45.5172 43.2767Z" fill="#AFB6BB"/>
<path d="M47.0345 66.0352H45.5172C44.6782 66.0352 44 66.7134 44 67.5524C44 68.3914 44.6782 69.0696 45.5172 69.0696H47.0345C47.8735 69.0696 48.5517 68.3914 48.5517 67.5524C48.5517 66.7134 47.8735 66.0352 47.0345 66.0352Z" fill="#AFB6BB"/>
<path d="M56.1379 66.0352H53.1034C52.2644 66.0352 51.5862 66.7134 51.5862 67.5524C51.5862 68.3914 52.2644 69.0696 53.1034 69.0696H56.1379C56.9769 69.0696 57.6551 68.3914 57.6551 67.5524C57.6551 66.7134 56.9769 66.0352 56.1379 66.0352Z" fill="#AFB6BB"/>
<path d="M63.7242 66.0352H62.2069C61.3679 66.0352 60.6897 66.7134 60.6897 67.5524C60.6897 68.3914 61.3679 69.0696 62.2069 69.0696H63.7242C64.5632 69.0696 65.2414 68.3914 65.2414 67.5524C65.2414 66.7134 64.5632 66.0352 63.7242 66.0352Z" fill="#AFB6BB"/>
<path d="M72.8276 66.0352H69.7931C68.9541 66.0352 68.2759 66.7134 68.2759 67.5524C68.2759 68.3914 68.9541 69.0696 69.7931 69.0696H72.8276C73.6666 69.0696 74.3448 68.3914 74.3448 67.5524C74.3448 66.7134 73.6666 66.0352 72.8276 66.0352Z" fill="#AFB6BB"/>
<path d="M45.5172 52.3802H78.8965C79.7356 52.3802 80.4138 51.702 80.4138 50.8629C80.4138 50.0239 79.7356 49.3457 78.8965 49.3457H45.5172C44.6782 49.3457 44 50.0239 44 50.8629C44 51.702 44.6782 52.3802 45.5172 52.3802Z" fill="#AFB6BB"/>
<path d="M78.8965 58.4492H45.5172C44.6782 58.4492 44 59.1274 44 59.9665C44 60.8055 44.6782 61.4837 45.5172 61.4837H78.8965C79.7356 61.4837 80.4138 60.8055 80.4138 59.9665C80.4138 59.1274 79.7356 58.4492 78.8965 58.4492Z" fill="#AFB6BB"/>
</svg>
