<svg width="121" height="121" viewBox="0 0 121 121" fill="none" xmlns="http://www.w3.org/2000/svg">
<path d="M93.5073 0H60.678L55.9468 55.695L60.678 121C92.9192 108.861 114.265 78.016 114.265 43.5656V20.7581C104.043 18.2647 96.0007 10.2221 93.5073 0Z" fill="#109CF1"/>
<path d="M27.8479 0C25.3545 10.2221 17.312 18.2647 7.08984 20.7581V43.5656C7.08984 78.016 28.436 108.861 60.6782 121V0H27.8479Z" fill="#63C2FB"/>
<path d="M90.315 23.9505C87.6535 21.2881 85.3641 18.31 83.4901 15.0938H60.678L55.9468 50.0232L60.678 104.612C71.3118 99.5469 80.3874 91.833 87.1504 82.0614C95.0148 70.6973 99.1717 57.3854 99.1717 43.5658V30.7754C95.9555 28.9023 92.9774 26.612 90.315 23.9505V23.9505Z" fill="#C2C8D2"/>
<path d="M37.8653 15.0938C35.9922 18.31 33.7018 21.2891 31.0404 23.9505C28.3789 26.612 25.3999 28.9023 22.1836 30.7754V43.5658C22.1836 57.3854 26.3406 70.6973 34.2049 82.0614C40.968 91.833 50.0435 99.5469 60.6783 104.612V15.0938H37.8653Z" fill="#E7EBF0"/>
<path d="M57.1333 59.5254H64.2231V76.4339H57.1333V59.5254Z" fill="#03232E"/>
<path d="M60.678 39.625L55.9468 51.3472L60.678 63.0704C67.141 63.0704 72.4002 57.8112 72.4002 51.3472C72.4002 44.8842 67.141 39.625 60.678 39.625V39.625Z" fill="#03232E"/>
<path d="M48.9551 51.3482C48.9551 57.8121 54.2143 63.0704 60.6782 63.0704V39.625C54.2143 39.6259 48.9551 44.8842 48.9551 51.3482V51.3482Z" fill="#07485E"/>
</svg>
