<svg width="536" height="537" viewBox="0 0 536 537" fill="none" xmlns="http://www.w3.org/2000/svg">
<path d="M249.009 1.62084C367.5 -6.59525 446.066 51.3893 490.988 122.037C513.512 157.459 535.612 211.259 535.714 266.536C535.823 326.596 516.366 378.607 490.988 416.769C464.904 455.993 431.167 488.39 388.921 509.662C318.304 545.221 219.612 546.194 154.97 511.956C82.9787 473.827 27.6273 419.404 7.02992 325.024C-1.21298 287.254 -2.16044 238.452 9.32349 196.58C12.0184 186.758 16.9157 176.421 20.7922 166.763C39.4214 120.352 71.13 79.9936 110.244 52.0802C125.961 40.8644 145.028 29.7095 161.851 22.263C182.783 12.9984 218.025 3.76871 249.009 1.62084Z" fill="white"/>
<path d="M473.771 273.215C473.771 385.201 382.988 475.977 271.004 475.977C159.019 475.977 68.2383 385.201 68.2383 273.215C68.2383 161.231 159.019 70.4475 271.004 70.4475C382.987 70.4475 473.771 161.231 473.771 273.215Z" fill="black"/>
<path d="M249.009 1.62084C367.5 -6.59525 446.066 51.3893 490.988 122.037C513.512 157.459 535.612 211.259 535.714 266.536C535.823 326.596 516.366 378.607 490.988 416.769C464.904 455.993 431.167 488.39 388.921 509.662C318.304 545.221 219.612 546.194 154.97 511.956C82.9787 473.827 27.6273 419.404 7.02992 325.024C-1.21298 287.254 -2.16044 238.452 9.32349 196.58C12.0184 186.758 16.9157 176.421 20.7922 166.763C39.4214 120.352 71.13 79.9936 110.244 52.0802C125.961 40.8644 145.028 29.7095 161.851 22.263C182.783 12.9984 218.025 3.76871 249.009 1.62084ZM208.87 21.1171C164.859 32.5277 132.589 52.9705 104.51 75.0177C64.0205 106.809 38.2085 151.175 23.0858 204.608C6.26123 264.055 17.0685 335.992 40.2884 381.218C64.3673 428.119 96.6981 464.526 142.355 490.166C186.774 515.111 249.249 531.128 314.379 518.836C372.245 507.916 416.194 482.707 451.997 445.44C499.899 395.577 538.399 303.737 512.78 206.901C505.931 181.021 496.977 154.047 482.961 131.211C475.389 118.874 464.277 106.738 453.144 94.513C411.129 48.3726 343.222 8.61238 255.89 14.2355C239.27 15.3054 224.664 17.0215 208.87 21.1171Z" fill="black"/>
<path d="M283.265 516.395L517.571 282.094" stroke="white" stroke-width="1.78766"/>
<path d="M262.781 497.839L498.11 262.515" stroke="white" stroke-width="1.78766"/>
<path d="M242.298 479.286L478.65 242.938" stroke="white" stroke-width="1.78766"/>
<path d="M221.813 460.73L459.188 223.36" stroke="white" stroke-width="1.78766"/>
<path d="M201.331 442.175L439.728 203.782" stroke="white" stroke-width="1.78766"/>
<path d="M180.847 423.625L420.265 184.204" stroke="white" stroke-width="1.78766"/>
<path d="M160.363 405.065L400.805 164.626" stroke="white" stroke-width="1.78766"/>
<path d="M139.879 386.51L381.343 145.048" stroke="white" stroke-width="1.78766"/>
<path d="M119.396 367.955L361.877 125.47" stroke="white" stroke-width="1.78766"/>
<path d="M98.9121 349.399L342.421 105.893" stroke="white" stroke-width="1.78766"/>
<path d="M78.4287 330.845L322.96 86.3154" stroke="white" stroke-width="1.78766"/>
<path d="M57.9443 312.29L303.499 66.7368" stroke="white" stroke-width="1.78766"/>
<path d="M37.4609 293.734L284.038 47.1594" stroke="white" stroke-width="1.78766"/>
<path d="M16.9766 275.179L264.576 27.5818" stroke="white" stroke-width="1.78766"/>
<path d="M16.8975 277.548L255.886 516.547" stroke="white" stroke-width="1.78766"/>
<path d="M36.2783 257.89L275.732 497.355" stroke="white" stroke-width="1.78766"/>
<path d="M55.6592 238.231L295.577 478.16" stroke="white" stroke-width="1.78766"/>
<path d="M75.04 218.573L315.424 458.968" stroke="white" stroke-width="1.78766"/>
<path d="M94.4199 198.916L335.269 439.774" stroke="white" stroke-width="1.78766"/>
<path d="M113.801 179.258L355.116 420.581" stroke="white" stroke-width="1.78766"/>
<path d="M133.182 159.6L374.962 401.388" stroke="white" stroke-width="1.78766"/>
<path d="M152.562 139.941L394.808 382.193" stroke="white" stroke-width="1.78766"/>
<path d="M171.943 120.283L414.655 363" stroke="white" stroke-width="1.78766"/>
<path d="M191.324 100.625L434.5 343.805" stroke="white" stroke-width="1.78766"/>
<path d="M210.705 80.9675L454.346 324.614" stroke="white" stroke-width="1.78766"/>
<path d="M230.085 61.3096L474.192 305.42" stroke="white" stroke-width="1.78766"/>
<path d="M249.466 41.6523L494.037 286.227" stroke="white" stroke-width="1.78766"/>
<path d="M268.848 21.9944L513.884 267.033" stroke="white" stroke-width="1.78766"/>
<path d="M439.382 95.6598C418.293 74.5716 392.367 55.5688 361.398 44.0527C329.297 32.1156 292.984 22.0537 250.156 25.7032C181.933 31.5185 134.033 62.1277 97.6283 97.9533C72.1291 123.046 52.9484 153.794 40.2873 189.699C21.6975 242.418 22.8255 304.643 43.7277 358.281C61.5569 404.034 90.7387 440.936 132.033 469.523C170.853 496.398 226.569 517.241 289.147 511.956C365.365 505.518 421.133 466.415 457.729 421.357C467.093 409.83 476.403 396.801 481.812 381.219C487.111 369.991 489.705 362.359 492.134 358.282C502.298 335.506 507.684 311.474 509.335 284.886C514.417 203.108 482.952 139.231 439.382 95.6598ZM416.919 344.813C416.773 345.124 416.643 345.414 416.491 345.735C412.71 356.554 406.196 365.602 399.65 373.607C374.056 404.895 335.059 432.047 281.758 436.518C237.995 440.186 199.032 425.714 171.886 407.053C148.296 390.836 130.364 370.763 117.79 346.638C117.023 345.187 109.72 328.362 109.699 327.622C99.7369 296.723 98.8725 247.039 109.097 217.223C115.921 197.324 127.293 175.793 142.355 158.736C163.151 135.182 183.962 120.09 216.898 109.422C231.937 104.551 245.4 99.5926 263.917 99.101C309.074 97.8988 355.057 118.174 379.746 140.386C402.435 160.799 428.294 200.561 434.794 237.865C441.485 276.262 434.345 313.75 416.919 344.813Z" fill="black"/>
<path d="M338.431 381.644C327.311 381.644 317.553 374.602 314.148 364.121L301.763 326.385H239.807L228.3 363.777C224.827 374.462 214.995 381.614 203.818 381.614C201.135 381.614 198.469 381.19 195.896 380.355C182.537 376.344 174.953 361.965 179.046 348.32L231.34 182.673C234.736 172.135 244.732 164.785 255.652 164.785H283.459C294.441 164.785 304.437 172.01 307.766 182.355L362.762 347.941C367.16 361.479 359.878 376.012 346.539 380.354C343.901 381.21 341.174 381.644 338.431 381.644Z" fill="white" stroke="black" stroke-width="5.36298"/>
<path d="M133.058 111.994L132.993 111.906C126.471 102.968 128.385 90.4653 137.989 83.4559C147.593 76.4474 159.931 78.4147 166.452 87.3512L166.517 87.4397C173.039 96.3771 171.125 108.881 161.521 115.889C151.917 122.898 139.579 120.932 133.058 111.994ZM157.778 93.9539L157.713 93.8655C154.436 89.3749 148.335 87.8303 143.578 91.302C138.865 94.7414 138.499 100.869 141.775 105.36L141.841 105.449C145.118 109.939 151.219 111.484 155.932 108.044C160.69 104.573 161.056 98.4454 157.778 93.9539Z" fill="white"/>
<path d="M195.933 53.415L205.734 50.2705L233.209 82.2106L222.307 85.7082L217.532 80.0145L203.38 84.5551L202.862 91.948L192.17 95.3785L195.933 53.415ZM212.058 73.0417L204.623 63.9229L203.828 75.6821L212.058 73.0417Z" fill="white"/>
<path d="M250.86 63.0238L250.945 41.3904L261.789 41.4333L261.704 62.8468C261.682 68.4064 264.479 71.0593 268.773 71.0772C273.067 71.0941 275.884 68.5735 275.905 63.1793L275.991 41.4914L286.835 41.5343L286.75 62.8924C286.701 75.3327 279.579 80.7547 268.624 80.7109C257.671 80.6662 250.812 75.0788 250.86 63.0238Z" fill="white"/>
<path d="M325.998 59.2438L314.943 55.8696L317.675 46.9197L349.998 56.7849L347.267 65.7348L336.212 62.3615L327.697 90.2633L317.484 87.1465L325.998 59.2438Z" fill="white"/>
<path d="M378.871 69.2734L387.761 75.1897L379.772 87.1956L391.182 94.7896L399.172 82.7828L408.062 88.699L386.715 120.778L377.824 114.861L385.937 102.671L374.525 95.0774L366.413 107.267L357.523 101.351L378.871 69.2734Z" fill="white"/>
<path d="M410.274 419.944L410.342 420.031C417.202 428.713 415.766 441.282 406.436 448.652C397.107 456.023 384.702 454.528 377.843 445.846L377.775 445.76C370.916 437.077 372.352 424.509 381.681 417.138C391.011 409.769 403.415 411.262 410.274 419.944ZM386.258 438.917L386.326 439.004C389.773 443.367 395.928 444.677 400.55 441.026C405.129 437.409 405.262 431.272 401.814 426.909L401.746 426.822C398.301 422.459 392.144 421.149 387.566 424.766C382.944 428.418 382.812 434.555 386.258 438.917Z" fill="white"/>
<path d="M349.995 480.992L340.342 484.565L311.487 453.865L322.225 449.89L327.246 455.37L341.185 450.21L341.377 442.802L351.908 438.904L349.995 480.992ZM333.022 462.095L340.851 470.877L341.128 459.094L333.022 462.095Z" fill="white"/>
<path d="M294.739 473.665L295.693 495.277L284.86 495.755L283.915 474.363C283.67 468.809 280.749 466.294 276.46 466.483C272.17 466.673 269.477 469.326 269.715 474.715L270.671 496.382L259.838 496.86L258.896 475.523C258.347 463.095 265.201 457.337 276.144 456.855C287.088 456.371 294.208 461.621 294.739 473.665Z" fill="white"/>
<path d="M219.464 480.732L230.626 483.745L228.186 492.78L195.552 483.971L197.991 474.935L209.152 477.948L216.756 449.778L227.067 452.562L219.464 480.732Z" fill="white"/>
<path d="M166.709 472.881L157.548 467.392L164.963 455.02L153.206 447.973L145.792 460.345L136.632 454.855L156.443 421.802L165.603 427.293L158.075 439.853L169.832 446.9L177.36 434.34L186.52 439.83L166.709 472.881Z" fill="white"/>
</svg>