<svg width="640" height="638" viewBox="0 0 640 638" fill="none" xmlns="http://www.w3.org/2000/svg">
<rect x="67" y="255" width="500" height="123" fill="white"/>
<path d="M248.89 308.64H222.54C223.23 303.48 225.86 294.52 236.18 294.52C242.93 294.52 248.15 298.34 248.89 308.64V308.64ZM385.55 294.76C385.08 294.76 371.44 292.99 371.44 314.76C371.44 336.53 385.07 334.76 385.55 334.76C398.55 334.76 399.66 321.22 399.66 314.76C399.66 293 386 294.76 385.55 294.76ZM142.33 318.52C141.234 319.379 140.362 320.491 139.79 321.761C139.217 323.03 138.959 324.42 139.04 325.81C139.04 330.59 141.12 331.86 142.33 332.86C147.03 336.56 157.4 334.98 163.26 333.81V316.87C157.94 315.8 146.53 314.91 142.33 318.52V318.52ZM640 295C640 382.58 560 449.39 474.64 431.43C456.27 464.43 403.91 502.18 342.44 473.06C301.28 569.11 164.55 565.24 128.63 467.89C8.91002 491.78 -50.19 329.52 53.36 268.61C18.61 189.18 76 95 167.67 95C186.734 95.0118 205.539 99.4105 222.63 107.855C239.721 116.3 254.639 128.565 266.23 143.7C286.93 122.3 315.63 108.89 347.38 108.89C389.72 108.89 426.38 132.41 446.18 167.46C539 126.78 640 195.69 640 295ZM120.45 326.8C120.45 315.04 108.76 311.63 102.58 309.63C97.31 307.52 89.17 306.12 89.17 300.69C89.17 291.23 106.17 294.03 114.34 298.57C114.34 298.57 115.51 299.28 115.98 298.1C116.22 297.4 118.34 291.52 118.57 290.81C118.66 290.53 118.637 290.226 118.506 289.963C118.375 289.7 118.147 289.498 117.87 289.4C105.54 281.77 77.17 280.89 77.17 302.1C77.17 314.56 88.66 317.54 95.05 319.27C99.77 320.85 108.22 322.27 108.22 327.97C108.22 331.97 104.69 335.03 99.05 335.03C92.1975 335.018 85.5325 332.791 80.05 328.68C79.58 328.45 78.63 327.97 78.4 329.39L76 336.86C75.53 337.8 76.23 338.04 76.23 338.27C77.98 339.67 86.53 344.86 99.05 344.86C112.22 344.86 120.45 337.8 120.45 326.75V326.8ZM152.45 284.22C142.32 284.22 133.79 287.39 131.05 289.4C130.94 289.476 130.847 289.573 130.776 289.685C130.704 289.798 130.656 289.923 130.633 290.054C130.611 290.186 130.615 290.32 130.645 290.45C130.676 290.58 130.732 290.702 130.81 290.81L133.4 297.87C133.47 298.115 133.632 298.324 133.851 298.454C134.07 298.584 134.331 298.626 134.58 298.57C135.23 298.57 141.38 294.57 151.51 294.57C155.51 294.57 158.57 295.28 160.69 296.93C164.29 299.73 163.75 305.22 163.75 307.51C158.96 307.21 144.64 304.07 134.34 311.27C131.992 312.88 130.088 315.057 128.805 317.599C127.522 320.14 126.901 322.965 127 325.81C127 331.71 128.51 336.21 133.59 340.16C145.83 348.32 169.87 342.16 171.69 341.57C173.27 341.25 175.22 340.91 175.22 339.69V305.81C175.26 301.2 175.54 284.17 152.44 284.17L152.45 284.22ZM199 263.24C199.01 263.082 198.987 262.924 198.931 262.777C198.876 262.629 198.789 262.494 198.677 262.383C198.566 262.271 198.431 262.184 198.283 262.129C198.136 262.073 197.978 262.05 197.82 262.06H188C187.843 262.051 187.686 262.076 187.54 262.132C187.393 262.188 187.26 262.275 187.149 262.387C187.039 262.498 186.953 262.632 186.898 262.779C186.843 262.926 186.82 263.083 186.83 263.24V342.24C186.82 342.397 186.843 342.554 186.898 342.701C186.953 342.848 187.039 342.982 187.149 343.093C187.26 343.205 187.393 343.292 187.54 343.348C187.686 343.404 187.843 343.429 188 343.42H197.88C198.038 343.43 198.196 343.407 198.343 343.351C198.491 343.296 198.626 343.209 198.737 343.097C198.849 342.986 198.936 342.851 198.991 342.703C199.047 342.556 199.07 342.398 199.06 342.24L199 263.24ZM254.75 292.17C252.65 289.86 247.96 284.64 237.1 284.64C233.59 284.64 222.94 284.87 216.4 293.58C210.05 301.21 209.82 311.69 209.82 314.99C209.82 318.11 209.97 329.25 216.88 336.16C219.52 339.07 225.94 344.39 239.69 344.39C250.51 344.39 256.16 342.04 258.27 340.63C258.74 340.39 258.98 339.92 258.51 338.75L256.16 331.92C256.039 331.661 255.834 331.45 255.578 331.323C255.322 331.195 255.03 331.159 254.75 331.22C252.16 332.16 248.4 334.04 239.46 334.04C222.04 334.04 222.61 319.3 222.52 317.34H259.69C259.961 317.334 260.223 317.239 260.435 317.069C260.647 316.899 260.796 316.664 260.86 316.4C260.57 316.4 262.93 301.7 254.77 292.17H254.75ZM291.44 344.86C304.61 344.86 312.85 337.8 312.85 326.75C312.85 314.99 301.15 311.58 294.97 309.58C290.83 307.92 281.56 306.2 281.56 300.64C281.56 296.88 284.85 294.29 290.03 294.29C295.847 294.407 301.559 295.854 306.73 298.52C306.73 298.52 307.91 299.23 308.38 298.05C308.61 297.35 310.73 291.47 310.96 290.76C311.05 290.48 311.027 290.176 310.896 289.913C310.765 289.65 310.537 289.448 310.26 289.35C302.35 284.45 293.52 284.41 290.03 284.41C278.03 284.41 269.57 291.7 269.57 302.05C269.57 314.51 281.05 317.49 287.44 319.22C293.55 321.22 300.61 322.48 300.61 327.92C300.61 331.92 297.09 334.98 291.44 334.98C284.588 334.966 277.924 332.738 272.44 328.63C272.298 328.508 272.125 328.429 271.94 328.4C271.755 328.372 271.565 328.396 271.394 328.47C271.222 328.544 271.074 328.665 270.967 328.819C270.861 328.972 270.799 329.153 270.79 329.34L268.44 336.86C267.97 337.8 268.67 338.04 268.67 338.27C270.39 339.67 279 344.86 291.46 344.86H291.44ZM357.09 287C357.09 286.29 356.85 285.82 355.91 285.82H344.15C344.15 285.68 345.09 276.88 348.62 273.35C352.78 269.2 360.38 271.71 360.62 271.71C361.79 272.18 362.03 271.71 362.26 271.24L365.09 263.47C365.79 262.53 365.09 262.3 364.85 262.06C359.76 260.06 347.5 259.19 340.39 266.3C334.91 271.78 333.39 280.22 332.39 285.82H323.92C323.617 285.845 323.332 285.978 323.118 286.194C322.903 286.411 322.773 286.696 322.75 287L321.33 294.76C321.33 295.46 321.57 295.93 322.51 295.93H330.74C322.23 343.83 321.99 346.14 320.39 351.45C319.31 355.07 317.1 358.35 314.51 359.21C314.42 359.21 310.63 360.89 304.87 358.97C304.87 358.97 303.93 358.5 303.46 359.68C303.22 360.39 300.87 366.5 300.63 367.21C300.39 367.92 300.63 368.62 301.1 368.62C306.21 370.62 314.1 370.39 318.98 368.62C325.26 366.34 328.7 360.73 330.51 355.68C333.26 347.97 333.32 345.89 342.27 295.94H354.5C354.805 295.915 355.09 295.783 355.307 295.566C355.523 295.35 355.655 295.065 355.68 294.76L357.09 287ZM410.48 303C409.92 301.32 405.38 284.89 385.31 284.89C370.06 284.89 362.31 294.89 360.15 303C359.15 306 356.97 317 360.15 326.52C360.24 326.82 364.56 344.64 385.31 344.64C400.26 344.64 408.21 335.03 410.48 326.52C413.69 316.91 411.49 306 410.48 303V303ZM455.88 286.3C450.88 284.65 439.26 284.4 433.77 291.71V287.24C433.779 287.083 433.754 286.926 433.698 286.78C433.642 286.633 433.555 286.5 433.443 286.389C433.332 286.279 433.198 286.193 433.051 286.138C432.904 286.083 432.747 286.06 432.59 286.07H423.19C423.033 286.06 422.876 286.083 422.729 286.138C422.582 286.193 422.448 286.279 422.337 286.389C422.225 286.5 422.138 286.633 422.082 286.78C422.026 286.926 422.001 287.083 422.01 287.24V342.52C422.001 342.677 422.026 342.835 422.082 342.982C422.138 343.129 422.225 343.262 422.336 343.374C422.448 343.485 422.581 343.572 422.728 343.628C422.875 343.684 423.033 343.709 423.19 343.7H432.83C432.987 343.709 433.145 343.684 433.292 343.628C433.439 343.572 433.572 343.485 433.684 343.374C433.795 343.262 433.882 343.129 433.938 342.982C433.994 342.835 434.019 342.677 434.01 342.52V314.75C434.01 311.84 434.06 303.38 438.47 299.7C443.37 294.8 450.47 296.34 451.88 296.64C452.18 296.635 452.473 296.543 452.723 296.377C452.973 296.21 453.17 295.975 453.29 295.7C454.464 293.095 455.485 290.424 456.35 287.7C456.449 287.447 456.456 287.167 456.371 286.91C456.285 286.652 456.111 286.433 455.88 286.29V286.3ZM502.69 340.4L500.57 333.11C500.1 331.93 499.16 332.4 499.16 332.4C494.93 334.22 489.01 334.29 487.87 334.29C483.23 334.29 470.7 333.16 470.7 314.53C470.7 308.3 472.55 294.77 487.17 294.77C491.075 294.67 494.97 295.228 498.69 296.42C498.69 296.42 499.63 296.89 499.87 295.71C500.81 293.12 501.51 291.24 502.46 288.18C502.69 287.24 501.99 287.01 501.75 287.01C490.16 283.14 479.41 284.48 473.99 287.01C472.4 287.75 457.76 293.5 457.76 314.53C457.76 317.43 457.18 344.64 486.7 344.64C492.001 344.63 497.257 343.671 502.22 341.81C502.435 341.651 502.596 341.429 502.68 341.174C502.764 340.92 502.767 340.646 502.69 340.39V340.4ZM556.56 300.88C555.76 297.88 551.19 284.65 534.21 284.65C518.21 284.65 510.69 294.76 508.57 303.24C507.416 307.051 506.86 311.018 506.92 315C506.92 340.87 525.76 344.4 536.8 344.4C547.62 344.4 553.26 342.05 555.38 340.64C555.85 340.4 556.09 339.93 555.62 338.76L553.26 331.93C553.139 331.671 552.934 331.46 552.678 331.333C552.422 331.205 552.13 331.169 551.85 331.23C549.26 332.17 545.5 334.05 536.56 334.05C519.14 334.05 519.71 319.31 519.63 317.35H556.79C557.062 317.343 557.325 317.248 557.538 317.078C557.751 316.908 557.903 316.674 557.97 316.41C557.73 316.4 558.91 309.34 556.56 300.87V300.88ZM533.27 294.53C522.94 294.53 520.27 303.53 519.63 308.65H546C545.12 296.73 538.38 294.52 533.27 294.52V294.53Z" fill="#47A0DB"/>
</svg>