<svg width="89" height="88" viewBox="0 0 89 88" fill="none" xmlns="http://www.w3.org/2000/svg">
<g clip-path="url(#clip0)">
<path opacity="0.75" d="M77.9596 58.7658C75.5943 65.1762 72.0172 70.7501 67.3262 75.3309C61.9866 80.5449 54.9948 84.6881 46.5447 87.6435C46.2675 87.7402 45.9781 87.8194 45.6874 87.8778C45.3033 87.9537 44.9126 87.9947 44.5252 88H44.4493C44.0364 88 43.6215 87.9584 43.21 87.8778C42.9193 87.8194 42.6339 87.7402 42.358 87.6455C33.8978 84.6948 26.8973 80.5537 21.5524 75.3397C16.8594 70.7588 13.2829 65.1883 10.9209 58.7779C6.62607 47.1226 6.87046 34.283 7.06718 23.9651L7.07053 23.8067C7.11014 22.9547 7.13566 22.0597 7.14976 21.0714C7.22159 16.2193 11.0794 12.2051 15.9322 11.9345C26.05 11.3699 33.877 8.07003 40.5647 1.55153L40.6231 1.49782C41.7336 0.479323 43.1328 -0.0201887 44.5252 0.000624406C45.868 0.0180805 47.2054 0.516921 48.2762 1.49782L48.3333 1.55153C55.0224 8.07003 62.8494 11.3699 72.9672 11.9345C77.82 12.2051 81.6778 16.2193 81.7496 21.0714C81.7637 22.0664 81.7892 22.9601 81.8288 23.8067L81.8308 23.8738C82.0269 34.2112 82.2699 47.0763 77.9596 58.7658Z" fill="#109CF1"/>
<path d="M77.9596 58.7652C75.5943 65.1756 72.0171 70.7494 67.3261 75.3303C61.9866 80.5443 54.9948 84.6874 46.5447 87.6429C46.2674 87.7396 45.978 87.8188 45.6873 87.8772C45.3033 87.9531 44.9125 87.994 44.5251 87.9994V0C45.8679 0.0174561 47.2053 0.516297 48.2762 1.49719L48.3333 1.5509C55.0223 8.0694 62.8493 11.3693 72.9671 11.9339C77.8199 12.2045 81.6777 16.2187 81.7496 21.0708C81.7637 22.0658 81.7892 22.9594 81.8288 23.806L81.8308 23.8732C82.0268 34.2105 82.2699 47.0757 77.9596 58.7652Z" fill="#109CF1"/>
<path d="M66.3794 43.9999C66.3794 56.0668 56.5818 65.8892 44.525 65.9321H44.4478C32.3555 65.9321 22.5156 56.0929 22.5156 43.9999C22.5156 31.9075 32.3555 22.0684 44.4478 22.0684H44.525C56.5818 22.1113 66.3794 31.9337 66.3794 43.9999Z" fill="white"/>
<path d="M66.3795 43.9999C66.3795 56.0668 56.5819 65.8892 44.5251 65.9321V22.0684C56.5819 22.1113 66.3795 31.9337 66.3795 43.9999Z" fill="#E7EBF0"/>
<path d="M54.4024 40.8414L44.5249 50.7202L42.3906 52.8546C41.8864 53.3588 41.2251 53.6105 40.5644 53.6105C39.9031 53.6105 39.2425 53.3588 38.7376 52.8546L34.1487 48.2636C33.1402 47.2552 33.1402 45.6217 34.1487 44.6126C35.1557 43.6042 36.7912 43.6042 37.7997 44.6126L40.5644 47.3774L50.7514 37.1904C51.7598 36.1813 53.3953 36.1813 54.4024 37.1904C55.4108 38.1988 55.4108 39.8343 54.4024 40.8414Z" fill="#B4D2D7"/>
<path d="M54.4026 40.8414L44.5251 50.7202V43.4162L50.7516 37.1904C51.76 36.1813 53.3955 36.1813 54.4026 37.1904C55.411 38.1988 55.411 39.8343 54.4026 40.8414Z" fill="#6FA5AA"/>
</g>
<defs>
<clipPath id="clip0">
<rect width="88" height="88" fill="white" transform="translate(0.275879)"/>
</clipPath>
</defs>
</svg>
