<svg width="121" height="121" viewBox="0 0 121 121" fill="none" xmlns="http://www.w3.org/2000/svg">
<g clip-path="url(#clip0)">
<path d="M60.6516 0.00927734C59.5456 0.00927734 58.6516 0.903277 58.6516 2.00928V28.5933C58.6516 29.6993 59.5456 30.5933 60.6516 30.5933C61.7576 30.5933 62.6516 29.6993 62.6516 28.5933V4.04528C92.6096 5.10128 116.652 29.8013 116.652 60.0093C116.652 90.8873 91.5296 116.009 60.6516 116.009C29.7736 116.009 4.65161 90.8873 4.65161 60.0093C4.65161 45.0893 10.4516 31.0513 20.9836 20.4813C21.7656 19.6973 21.7616 18.4333 20.9796 17.6533C20.1956 16.8773 18.9316 16.8773 18.1516 17.6573C6.86561 28.9813 0.651611 44.0233 0.651611 60.0093C0.651611 93.0933 27.5676 120.009 60.6516 120.009C93.7356 120.009 120.652 93.0933 120.652 60.0093C120.652 26.9253 93.7356 0.00927734 60.6516 0.00927734Z" fill="white"/>
<path d="M57.7603 67.0733C59.0963 68.9113 61.2523 70.0093 63.5263 70.0093C65.4263 70.0093 67.2163 69.2673 68.5623 67.9213C70.0363 66.4473 70.7903 64.4093 70.6283 62.3273C70.4663 60.2453 69.4043 58.3473 67.7103 57.1153L41.8223 38.3893C41.0303 37.8173 39.9323 37.9053 39.2363 38.5973C38.5403 39.2933 38.4543 40.3893 39.0283 41.1833L57.7603 67.0733Z" fill="white"/>
</g>
<defs>
<clipPath id="clip0">
<rect width="120" height="120" fill="white" transform="translate(0.651611 0.00927734)"/>
</clipPath>
</defs>
</svg>
