<svg width="576" height="512" viewBox="0 0 576 512" fill="none" xmlns="http://www.w3.org/2000/svg">
<circle cx="141.5" cy="140.5" r="28.5" fill="#7C7F7F"/>
<circle cx="277.5" cy="140.5" r="28.5" fill="#7C7F7F"/>
<circle cx="346.5" cy="276.5" r="28.5" fill="#7C7F7F"/>
<circle cx="454.5" cy="276.5" r="28.5" fill="#7C7F7F"/>
<path d="M385.2 167.6C391.6 167.6 397.8 167.9 404 168.7C387.4 90.3 303.3 32 207.7 32C100.5 32 13 104.8 13 197.4C13 250.8 42.3 294.9 90.9 329L71.6 387.6L139.6 353.5C164 358.3 183.4 363.2 207.8 363.2C214 363.2 219.9 362.9 226.1 362.4C222.1 349.5 219.9 335.8 219.9 321.6C219.8 236.7 292.8 167.6 385.2 167.6ZM280.7 114.7C295.2 114.7 304.9 124.4 304.9 139.1C304.9 153.6 295.2 163.3 280.7 163.3C265.9 163.3 251.4 153.6 251.4 139.1C251.5 124.4 266 114.7 280.7 114.7ZM144.3 163.3C129.8 163.3 115 153.6 115 139.1C115 124.3 129.8 114.7 144.3 114.7C159.1 114.7 168.7 124.4 168.7 139.1C168.7 153.7 159.1 163.3 144.3 163.3Z" fill="url(#paint0_linear)"/>
<path d="M563 319.4C563 241.5 485.1 178.1 397.6 178.1C304.9 178.1 232.2 241.5 232.2 319.4C232.2 397.3 305 460.7 397.6 460.7C416.9 460.7 436.5 455.6 456.2 450.8L509.6 480.1L494.8 431.5C534 402.1 563 363.2 563 319.4ZM343.9 294.9C334.2 294.9 324.6 285.2 324.6 275.3C324.6 265.6 334.3 256 343.9 256C358.7 256 368.3 265.7 368.3 275.3C368.3 285.3 358.6 294.9 343.9 294.9ZM451 294.9C441.3 294.9 431.7 285.2 431.7 275.3C431.7 265.6 441.4 256 451 256C465.5 256 475.4 265.7 475.4 275.3C475.5 285.3 465.5 294.9 451 294.9Z" fill="url(#paint1_linear)"/>
<defs>
<linearGradient id="paint0_linear" x1="208.5" y1="32" x2="208.5" y2="387.6" gradientUnits="userSpaceOnUse">
<stop stop-color="#B1EB7A"/>
<stop offset="1" stop-color="#98D55B"/>
</linearGradient>
<linearGradient id="paint1_linear" x1="397.6" y1="178.1" x2="397.6" y2="480.1" gradientUnits="userSpaceOnUse">
<stop stop-color="#F5F5F5"/>
<stop offset="1" stop-color="#DCDCDC"/>
</linearGradient>
</defs>
</svg>